<?xml version="1.0" standalone="no"?>
<!DOCTYPE svg PUBLIC "-//W3C//DTD SVG 1.1//EN" "http://www.w3.org/Graphics/SVG/1.1/DTD/svg11.dtd" >
<svg xmlns="http://www.w3.org/2000/svg">
<metadata></metadata>
<defs>
<font id="consolasbold" horiz-adv-x="1126" >
<font-face units-per-em="2048" ascent="1521" descent="-527" />
<missing-glyph horiz-adv-x="500" />
<glyph />
<glyph />
<glyph unicode="&#xd;" horiz-adv-x="0" />
<glyph unicode=" " />
<glyph unicode="!" d="M408 133q0 33 12 61.5t33 49.5t49.5 33t60.5 12t60.5 -12t49.5 -33t33.5 -49.5t12.5 -61.5t-12.5 -61.5t-33.5 -49.5t-49.5 -33t-60.5 -12t-60.5 12t-49.5 33t-33 49.5t-12 61.5zM422 1413h283l-37 -1007h-209z" />
<glyph unicode="&#x22;" d="M227 1413h262l-32 -498h-197zM637 1413h262l-33 -498h-196z" />
<glyph unicode="#" d="M41 340v183h194l29 287h-170v183h188l32 314h196l-32 -314h231l32 314h196l-32 -314h178v-183h-196l-29 -287h172v-183h-191l-34 -340h-196l35 340h-232l-34 -340h-196l35 340h-176zM431 523h231l29 287h-231z" />
<glyph unicode="$" d="M90 49v234q71 -23 149.5 -42.5t153.5 -27.5l53 362q-65 22 -128.5 50.5t-113.5 70t-81 101t-31 143.5q0 70 27 133t83.5 112.5t144 81.5t208.5 38l31 204h176l-31 -213q53 -5 104.5 -13t98.5 -19v-215q-54 17 -114.5 30t-119.5 19l-47 -326q67 -24 134.5 -52.5t122 -70.5 t88.5 -101.5t34 -144.5q0 -97 -37.5 -169.5t-103.5 -122t-156 -76.5t-196 -33l-37 -250h-176l36 252q-140 9 -272 45zM352 961q0 -45 34 -76t99 -56l39 271q-95 -10 -133.5 -46.5t-38.5 -92.5zM569 211q54 6 92 20t61.5 34.5t34.5 45.5t11 54q0 57 -36.5 92t-117.5 61z" />
<glyph unicode="%" d="M0 0l928 1413h198l-927 -1413h-199zM33 1122q0 67 18.5 123.5t54 98t87 65t116.5 23.5q127 0 198 -76t71 -226q0 -67 -19 -123.5t-54.5 -98t-87 -64.5t-116.5 -23q-127 0 -197.5 76t-70.5 225zM211 1126q0 -78 24 -115.5t70 -37.5q95 0 95 153q0 79 -24 116.5t-71 37.5 q-94 0 -94 -154zM549 283q0 68 18.5 124.5t54 97.5t87 64.5t116.5 23.5q127 0 198 -76t71 -226q0 -67 -19 -123.5t-54.5 -98t-87 -64.5t-116.5 -23q-127 0 -197.5 75.5t-70.5 225.5zM727 287q0 -79 24 -116t70 -37q95 0 95 153q0 79 -24 116.5t-71 37.5q-94 0 -94 -154z" />
<glyph unicode="&#x26;" d="M31 352q0 72 19 130t51 104.5t74 83t89 67.5l-20 27q-56 69 -86.5 141.5t-30.5 141.5q0 70 25 134.5t73.5 114t119.5 79.5t163 30q87 0 155 -24.5t115 -66t71.5 -97.5t24.5 -119q0 -78 -26 -136.5t-68.5 -103t-97 -79t-111.5 -66.5l220 -271q14 51 21 111t5 129h227 q0 -127 -26 -233t-76 -191l213 -258h-289l-71 86q-68 -54 -151 -81.5t-177 -27.5q-104 0 -185 26.5t-137 75.5t-85 118.5t-29 154.5zM272 373q0 -44 15 -80.5t42.5 -63t66.5 -41t87 -14.5q53 0 100.5 16t86.5 50l-287 352q-50 -42 -80.5 -93.5t-30.5 -125.5zM358 1063 q0 -54 26 -102.5t71 -104.5l2 -4q38 23 72 46.5t59.5 50.5t40 58.5t14.5 69.5q0 26 -9.5 51.5t-27.5 45t-44 31.5t-60 12t-61 -12.5t-45.5 -33.5t-28 -49t-9.5 -59z" />
<glyph unicode="'" d="M426 1413h274l-32 -498h-209z" />
<glyph unicode="(" d="M272 530q0 152 36 287.5t101.5 254.5t156 223.5t198.5 195.5l139 -139q-195 -175 -293 -378t-98 -427q0 -227 98 -436.5t293 -382.5l-145 -148q-243 206 -364.5 442t-121.5 508z" />
<glyph unicode=")" d="M229 -281q196 175 294 379t98 428q0 226 -98 436t-294 384l144 145q245 -204 365 -440.5t120 -509.5q0 -152 -36 -287t-100.5 -255t-154.5 -224.5t-198 -194.5z" />
<glyph unicode="*" d="M135 852l281 129l-281 129l101 174l251 -180l-28 309h209l-29 -309l252 180l100 -174l-280 -129l280 -129l-100 -174l-252 180l29 -309h-209l28 309l-251 -180z" />
<glyph unicode="+" d="M78 444v201h373v387h225v-387h373v-201h-373v-389h-225v389h-373z" />
<glyph unicode="," d="M211 -193q60 -2 112 7t90.5 28.5t60.5 49.5t22 71q0 29 -8.5 49.5t-21.5 37t-27.5 32t-27.5 33t-21.5 40t-8.5 54.5q0 31 11 60.5t32 52.5t51.5 37t69.5 14q49 0 88 -22.5t66 -61t41 -88t14 -103.5q0 -93 -34 -175t-102 -143t-169.5 -96.5t-237.5 -35.5v159z" />
<glyph unicode="-" d="M252 436v217h622v-217h-622z" />
<glyph unicode="&#xad;" d="M252 436v217h622v-217h-622z" />
<glyph unicode="." d="M365 172q0 41 15 77t41 62.5t61 42t75 15.5q42 0 78 -15.5t62.5 -42t41.5 -62.5t15 -77q0 -40 -15 -75.5t-41.5 -62t-62.5 -42t-78 -15.5q-40 0 -75 15.5t-61 42t-41 62t-15 75.5z" />
<glyph unicode="/" d="M72 -215l698 1628h238l-699 -1628h-237z" />
<glyph unicode="0" d="M53 647q0 161 35.5 288t102.5 214.5t165 133.5t222 46q108 0 199 -38t156.5 -119t102.5 -208t37 -305q0 -161 -35 -288t-102.5 -214.5t-164.5 -133.5t-222 -46q-108 0 -199 38t-157 119.5t-103 208.5t-37 304zM299 617.5q0 -17.5 2 -35.5l490 354q-35 99 -92.5 146.5 t-135.5 47.5q-56 0 -104 -28.5t-83.5 -87.5t-56 -148t-20.5 -211v-37.5zM338 367q32 -97 90 -144t135 -47q56 0 104.5 29t84 87.5t55.5 148t20 210.5q0 17 -1 34.5t-1 33.5z" />
<glyph unicode="1" d="M115 1096l415 219h205v-1098h287v-217h-870v217h333v840l-290 -160z" />
<glyph unicode="2" d="M123 1155q85 79 191.5 126.5t230.5 47.5q96 0 174 -24.5t133.5 -72.5t86 -120t30.5 -166q0 -78 -21 -145.5t-61 -131.5t-98.5 -128t-133.5 -135l-190 -181h551v-225h-887v180l309 309q87 87 139.5 150t81 112.5t37.5 91.5t9 87q0 37 -12 70.5t-35 58t-58 39t-80 14.5 q-77 0 -143 -33.5t-125 -89.5z" />
<glyph unicode="3" d="M139 0v212q63 -12 141.5 -19.5t163.5 -7.5q83 0 143 14t99 40.5t57.5 65.5t18.5 88q0 43 -19 78t-58 59.5t-99.5 38t-143.5 13.5h-145v186h133q78 0 129.5 15.5t82 41.5t43.5 61.5t13 74.5q0 80 -52 121.5t-161 41.5q-78 0 -154 -15t-157 -40v205q45 15 86 25t82 17 t83 10t87 3q108 0 189.5 -23t137 -65.5t83.5 -103.5t28 -136q0 -119 -54.5 -192.5t-152.5 -112.5q63 -10 114 -34.5t87.5 -63t56 -88.5t19.5 -111q0 -97 -36 -174.5t-110.5 -132t-187.5 -83.5t-266 -29q-34 0 -71.5 1.5t-74.5 4t-72 6t-63 8.5z" />
<glyph unicode="4" d="M39 266v209l510 832h336v-826h198v-215h-198v-266h-238v266h-608zM278 481h372v590z" />
<glyph unicode="5" d="M156 4v213q57 -14 131 -22.5t151 -8.5q150 0 228.5 57.5t78.5 159.5q0 106 -73 157.5t-236 51.5h-256v695h754v-230h-526v-266h94q100 0 191 -18t160.5 -62.5t111 -120.5t41.5 -192q0 -105 -44 -186.5t-122 -137.5t-184 -85t-230 -29q-31 0 -66 2t-71 5t-70 7.5t-63 9.5z " />
<glyph unicode="6" d="M98 561q0 108 13 205.5t43.5 180t82 149.5t128.5 113.5t182 72t244 25.5h149v-207h-174q-108 0 -181 -22t-119 -63t-69 -100t-30 -133l-2 -24q52 25 118.5 41t139.5 16q106 0 186 -27.5t133.5 -79.5t80 -126t26.5 -168q0 -99 -36 -179.5t-99.5 -138t-151.5 -88.5 t-193 -31q-229 0 -350 144t-121 440zM358 549q0 -101 14 -170.5t42.5 -113.5t71 -63.5t98.5 -19.5q48 0 87 16t66.5 45.5t42.5 70t15 89.5q0 46 -12 84.5t-37.5 66t-65 43t-94.5 15.5q-32 0 -63.5 -5.5t-61 -14.5t-56 -20t-47.5 -23z" />
<glyph unicode="7" d="M106 1071v236h908v-213l-525 -1094h-276l520 1071h-627z" />
<glyph unicode="8" d="M102 307q0 67 19.5 119.5t53.5 95.5t78.5 77t94.5 63q-45 26 -84.5 57t-69.5 70t-47.5 87t-17.5 109q0 71 27.5 133.5t82 109.5t137 74t193.5 27q102 0 182 -21.5t134.5 -61.5t83 -95.5t28.5 -122.5q0 -62 -17 -112t-46 -90.5t-69 -73t-85 -60.5q49 -27 93.5 -59.5 t78 -75t53 -96t19.5 -121.5q0 -89 -36 -157t-99.5 -114t-149 -69t-184.5 -23q-110 0 -194.5 23.5t-142 66.5t-87 104t-29.5 136zM348 326q0 -76 59 -116t156 -40q44 0 83 9t68.5 28t46.5 48.5t17 70.5q0 42 -19 75.5t-52 61.5t-77 53t-93 49q-39 -21 -73.5 -45t-60 -53 t-40.5 -63.5t-15 -77.5zM367 1001q0 -38 17 -68t47 -55.5t70.5 -47.5t86.5 -44q36 20 67.5 42.5t54.5 49.5t37 59t14 71q0 65 -51 99t-147 34q-94 0 -145 -35t-51 -105z" />
<glyph unicode="9" d="M72 893q0 98 35.5 178.5t99 137.5t151 88.5t191.5 31.5q102 0 188.5 -29t150 -98.5t99 -184.5t35.5 -286q0 -154 -26 -268.5t-73.5 -195.5t-113.5 -133t-146.5 -82t-172 -41t-189.5 -11h-151v209h178q117 0 195.5 20.5t127 60t72 98.5t31.5 136l2 25q-53 -25 -121 -41 t-137 -16q-95 0 -173 22t-134.5 70t-87.5 124.5t-31 184.5zM326 903q0 -106 56 -157.5t155 -51.5q27 0 57.5 5t61 14t58 20.5t48.5 24.5q0 89 -11.5 157t-38 114.5t-69.5 70.5t-106 24q-48 0 -87 -16t-66.5 -45t-42.5 -69.5t-15 -90.5z" />
<glyph unicode=":" d="M383 158q0 37 14 70t38.5 57t57 38t70.5 14t71 -14t57 -38t38 -57t14 -70q0 -38 -14 -71t-38 -57.5t-57 -38.5t-71 -14t-70.5 14t-57 38.5t-38.5 57.5t-14 71zM383 846q0 37 14 70t38.5 57.5t57 38.5t70.5 14t71 -14t57 -38.5t38 -57.5t14 -70q0 -38 -14 -71t-38 -57 t-57 -38t-71 -14t-70.5 14t-57 38t-38.5 57t-14 71z" />
<glyph unicode=";" d="M223 -193q60 -2 112 7t90.5 28.5t60.5 49.5t22 71q0 29 -8.5 49.5t-21.5 37t-27.5 32t-27.5 33t-21.5 40t-8.5 54.5q0 31 11 60.5t32 52.5t51.5 37t69.5 14q49 0 88 -22.5t66 -61t41 -88t14 -103.5q0 -93 -34 -175t-101.5 -143t-169.5 -96.5t-238 -35.5v159zM383 846 q0 37 14 70t38.5 57.5t57 38.5t70.5 14t71 -14t57 -38.5t38 -57.5t14 -70q0 -38 -14 -71t-38 -57t-57 -38t-71 -14t-70.5 14t-57 38t-38.5 57t-14 71z" />
<glyph unicode="&#x3c;" d="M102 545l674 567l156 -158l-496 -407l496 -412l-156 -158z" />
<glyph unicode="=" d="M133 252v194h860v-194h-860zM133 646v194h860v-194h-860z" />
<glyph unicode="&#x3e;" d="M195 135l495 408l-495 411l155 158l674 -567l-674 -568z" />
<glyph unicode="?" d="M281 1186v227h69q154 0 269 -36.5t192 -97t115.5 -138.5t38.5 -162t-25.5 -150.5t-73 -115t-114.5 -78.5t-150 -41l-10 -188h-209l-18 376h145q49 0 84.5 14t58 38t33 55.5t10.5 66.5q0 48 -20.5 89.5t-64 73t-110.5 49.5t-161 18h-59zM326 137q0 33 13 62t35 51 t51.5 34.5t63.5 12.5t64 -12.5t52 -34.5t35 -51t13 -62t-13 -62t-35 -51t-52 -34.5t-64 -12.5t-63.5 12.5t-51.5 34.5t-35 51t-13 62z" />
<glyph unicode="@" d="M10 352q-1 151 20 290t60.5 259.5t96 219t127.5 168.5t155 108.5t178 38.5q118 0 206 -48t146.5 -141t87.5 -229t29 -311q-1 -174 -20 -298.5t-58 -205t-98 -118.5t-139 -38q-118 0 -150 115q-29 -56 -74.5 -85.5t-101.5 -29.5q-45 0 -80.5 18.5t-61 58.5t-39 102.5 t-13.5 150.5q0 64 5 131t18 130.5t35 120t56.5 98.5t83 66.5t113.5 24.5q34 0 66.5 -7.5t52.5 -16.5l149 32l-53 -546q-3 -28 -4.5 -60t-1.5 -55q0 -40 7 -52t21 -12q38 0 65.5 115t27.5 344q0 139 -15.5 245.5t-49.5 178.5t-88 109t-130 37q-59 0 -114 -33t-103.5 -92.5 t-88 -142.5t-68 -183.5t-44.5 -215.5t-16 -239q0 -148 23 -260t66.5 -187t105 -113t139.5 -38q38 0 75.5 5t77.5 16t83 30t93 48v-191q-75 -40 -163 -62t-181 -22q-132 0 -228.5 48.5t-159.5 145.5t-94 241.5t-32 336.5zM485 395q0 -54 2.5 -86t7.5 -49.5t11.5 -23 t13.5 -5.5q13 0 34 24t44 77l37 422q-5 5 -16 8.5t-23 3.5q-32 0 -53.5 -36.5t-34 -91.5t-18 -120t-5.5 -123z" />
<glyph unicode="A" d="M4 0l387 1307h344l387 -1307h-272l-72 258h-456l-74 -258h-244zM381 459h342l-170 608z" />
<glyph unicode="B" d="M129 0v1307h422q223 0 334.5 -78t111.5 -236q0 -49 -11.5 -95.5t-35.5 -85.5t-60 -69t-85 -47q49 -8 93.5 -31.5t78 -61t53 -88.5t19.5 -114q0 -200 -134 -300.5t-387 -100.5h-399zM373 201h172q59 0 103.5 15t74.5 41.5t45.5 62.5t15.5 77q0 85 -63.5 133t-194.5 48 h-153v-377zM373 766h149q60 0 101.5 14.5t68 40t38 58.5t11.5 71q0 37 -12 67t-38.5 51t-68 32.5t-100.5 11.5h-149v-346z" />
<glyph unicode="C" d="M82 633q0 165 42 293.5t120 217t189.5 135t250.5 46.5q45 0 84.5 -2t77.5 -7.5t77 -14.5t81 -23v-244q-85 40 -162 57t-140 17q-93 0 -159 -33.5t-108.5 -94t-62.5 -144t-20 -183.5q0 -106 20.5 -189.5t63.5 -141.5t110 -88.5t159 -30.5q33 0 71.5 6.5t78 17t78 25 t71.5 29.5v-230q-87 -35 -168.5 -52t-169.5 -17q-141 0 -249.5 41.5t-183 123.5t-113 203.5t-38.5 282.5z" />
<glyph unicode="D" d="M86 0v1307h387q150 0 262.5 -37.5t187.5 -115.5t112.5 -198t37.5 -286q0 -152 -37.5 -276t-117 -211.5t-203.5 -135t-297 -47.5h-332zM332 206h108q181 0 275 108t94 340q0 106 -17 189t-57.5 140.5t-108.5 87.5t-169 30h-125v-895z" />
<glyph unicode="E" d="M184 0v1307h787v-208h-537v-325h512v-203h-512v-363h537v-208h-787z" />
<glyph unicode="F" d="M184 0v1307h772v-208h-522v-362h494v-202h-494v-535h-250z" />
<glyph unicode="G" d="M47 635q0 163 42.5 292t124 218.5t200 136.5t270.5 47q90 0 175.5 -15.5t170.5 -41.5v-243q-74 35 -163.5 57.5t-180.5 22.5q-92 0 -162.5 -32t-118 -91t-72 -145t-24.5 -194q0 -104 19 -187.5t61.5 -142t109.5 -89.5t163 -31q23 0 40 1.5t32 4.5t28.5 7t28.5 9v334h-222 v203h465v-697q-90 -42 -188 -62t-213 -20q-136 0 -244.5 42t-184.5 125t-116.5 206t-40.5 285z" />
<glyph unicode="H" d="M95 0v1307h246v-525h444v525h246v-1307h-246v569h-444v-569h-246z" />
<glyph unicode="I" d="M150 0v203h288v903h-288v201h826v-201h-288v-903h288v-203h-826z" />
<glyph unicode="J" d="M172 47v238q25 -21 58.5 -39t71.5 -31.5t78 -21t79 -7.5q33 0 68.5 12t63.5 40t46 73.5t18 112.5v680h-473v203h723v-916q0 -92 -29 -168t-85 -130t-139 -83.5t-193 -29.5q-81 0 -156 19t-131 48z" />
<glyph unicode="K" d="M129 0v1307h250v-595l391 595h297l-444 -623l467 -684h-318l-393 632v-632h-250z" />
<glyph unicode="L" d="M197 0v1307h250v-1096h552v-211h-802z" />
<glyph unicode="M" d="M45 0l64 1307h278l115 -371l55 -209l55 197l121 383h283l65 -1307h-217l-24 739l-9 295l-63 -200l-145 -445h-154l-131 445l-55 200l-7 -289l-22 -745h-209z" />
<glyph unicode="N" d="M94 0v1307h302l357 -785l63 -153v577v361h224v-1307h-300l-350 780l-72 168v-542v-406h-224z" />
<glyph unicode="O" d="M37 647q0 178 41.5 307t114 212t170 123t208.5 40q258 0 388 -171t130 -499q0 -178 -41.5 -307t-114 -212t-170 -123t-208.5 -40q-258 0 -388 171.5t-130 498.5zM297 659q0 -232 62.5 -346t203.5 -114q71 0 121.5 29.5t82.5 86.5t47 140.5t15 191.5q0 232 -62 346 t-204 114q-71 0 -121 -29.5t-82.5 -86.5t-47.5 -140.5t-15 -191.5z" />
<glyph unicode="P" d="M135 0v1307h383q127 0 224.5 -27.5t164 -80.5t101 -130.5t34.5 -177.5q0 -102 -34 -188.5t-101 -149.5t-167 -98t-232 -35h-125v-420h-248zM383 624h137q64 0 113 17.5t82.5 50.5t51 79t17.5 103q0 52 -16.5 94.5t-50 72.5t-84.5 46t-121 16h-129v-479z" />
<glyph unicode="Q" d="M37 641q0 177 41.5 306.5t114 214t170 126t208.5 41.5q258 0 388 -170t130 -491q0 -153 -31 -271t-87.5 -202t-133.5 -135t-167 -70q8 -48 26.5 -79t44 -49t55.5 -25t62 -7q43 0 85.5 18t76.5 50l113 -168q-63 -53 -137.5 -81t-149.5 -28q-94 0 -168.5 22t-127 67.5 t-81.5 115t-33 164.5q-201 37 -300 201t-99 450zM297 659q0 -230 62.5 -345t203.5 -115q71 0 121.5 29.5t82.5 86.5t47 140.5t15 191.5q0 232 -61 346t-201 114q-71 0 -122 -29.5t-84 -87t-48.5 -141t-15.5 -190.5z" />
<glyph unicode="R" d="M129 0v1307h381q108 0 196 -18.5t150 -61.5t95.5 -112t33.5 -169q0 -72 -21 -128t-59 -96.5t-90.5 -65.5t-114.5 -35q48 -10 88 -54.5t80 -128.5l209 -438h-289l-184 420q-26 60 -72.5 90.5t-109.5 30.5h-47v-541h-246zM375 733h100q57 0 103.5 12t79.5 36t51 59.5 t18 81.5q0 96 -61 138t-183 42h-108v-369z" />
<glyph unicode="S" d="M98 29v243q46 -16 96 -30t100.5 -24.5t100.5 -16.5t97 -6q70 0 119 12t80 33t45 50t14 64q0 48 -27.5 80.5t-72.5 57.5t-102.5 45t-117 43t-117 52t-102.5 72t-72.5 102.5t-27.5 143.5q0 77 28 146t88 120.5t154 82t227 30.5q39 0 81.5 -3.5t84 -9t80 -13t70.5 -15.5 v-225q-32 12 -70 22t-78.5 17.5t-81.5 11.5t-78 4q-65 0 -110 -10.5t-74 -29t-42 -45.5t-13 -60q0 -41 27.5 -70.5t73 -53t103 -44t118 -44t118 -53.5t103 -73t73 -101.5t27.5 -138.5q0 -107 -39.5 -186t-110.5 -130.5t-169 -76.5t-214 -25q-103 0 -199 12t-190 40z" />
<glyph unicode="T" d="M79 1102v205h968v-205h-358v-1102h-252v1102h-358z" />
<glyph unicode="U" d="M87 440v867h246v-852q0 -66 11.5 -117t40 -86.5t71.5 -53.5t108 -18q61 0 103 15.5t70 50t42 88.5t14 131v842h246v-826q0 -125 -33.5 -219.5t-96 -157.5t-152.5 -95t-202 -32q-126 0 -216 32t-146 92t-81 146t-25 193z" />
<glyph unicode="V" d="M0 1307h279l221 -787l71 -258l74 273l219 772h262l-401 -1307h-326z" />
<glyph unicode="W" d="M33 1307h217l31 -838l8 -229l59 204l144 465h155l152 -493l49 -174l4 204l33 861h209l-74 -1307h-289l-129 403l-47 164l-45 -168l-127 -399h-277z" />
<glyph unicode="X" d="M8 0l377 670l-352 637h289l237 -455l229 455h289l-350 -637l391 -670h-313l-252 481l-248 -481h-297z" />
<glyph unicode="Y" d="M10 1307h273l192 -404l88 -198l88 204l201 398h262l-429 -844v-463h-250v461z" />
<glyph unicode="Z" d="M104 0v186l598 898h-579v223h891v-200l-602 -884h610v-223h-918z" />
<glyph unicode="[" d="M305 -397v1855h526v-190h-301v-1475h301v-190h-526z" />
<glyph unicode="\" d="M119 1413h237l699 -1628h-238z" />
<glyph unicode="]" d="M264 -207h299v1475h-299v190h524v-1855h-524v190z" />
<glyph unicode="^" d="M85 668l379 639h186l391 -639h-227l-262 462l-258 -462h-209z" />
<glyph unicode="_" d="M0 -217h1126v-193h-1126v193z" />
<glyph unicode="`" d="M0 1016zM92 1413h330l262 -262h-244z" />
<glyph unicode="a" d="M109 291q0 72 30.5 133t93 105t156 69t219.5 25h133v61q0 39 -11 70.5t-35.5 53.5t-63.5 34t-96 12q-90 0 -177.5 -20.5t-169.5 -57.5v195q73 29 168.5 48t198.5 19q113 0 194 -21.5t133.5 -64.5t77.5 -107.5t25 -150.5v-694h-209l-6 133q-32 -34 -67 -62.5t-77 -49.5 t-91.5 -32.5t-108.5 -11.5q-78 0 -137 23t-99 64t-60.5 99t-20.5 128zM365 297q0 -62 40 -94.5t109 -32.5q51 0 106 37t121 106v136h-149q-62 0 -105 -12t-70 -33t-39.5 -48.5t-12.5 -58.5z" />
<glyph unicode="b" d="M139 43v1370h244v-332l-10 -200q55 71 128.5 114t176.5 43q90 0 160 -36t117.5 -102.5t72.5 -161t25 -212.5q0 -140 -39.5 -242t-110 -169.5t-166.5 -100t-209 -32.5q-111 0 -206.5 16.5t-182.5 44.5zM383 199q29 -11 71.5 -18t86.5 -7q58 0 105.5 24t81 68t51.5 107.5 t18 142.5q0 84 -12 143t-34.5 97t-55 55.5t-74.5 17.5q-62 0 -118.5 -50t-119.5 -136v-444z" />
<glyph unicode="c" d="M133 496q0 122 38.5 221t108.5 169t168.5 108t219.5 38q99 0 166.5 -10.5t121.5 -26.5v-237q-62 31 -134.5 48t-137.5 17q-68 0 -122 -23t-91 -64t-56.5 -99.5t-19.5 -128.5q0 -73 21 -131t59.5 -98.5t92.5 -62t120 -21.5q32 0 67.5 4.5t71 13t70 19.5t64.5 24v-217 q-72 -29 -149 -43t-161 -14q-121 0 -217 33t-163 98t-102.5 161t-35.5 222z" />
<glyph unicode="d" d="M76 489q0 140 39.5 242.5t109.5 170t166 100t209 32.5q38 0 76.5 -5t68.5 -13v397h244v-1413h-211l-6 150q-32 -39 -66 -71t-73 -54.5t-83.5 -35t-98.5 -12.5q-90 0 -160 36t-117.5 102.5t-72.5 161.5t-25 212zM332 500q0 -84 11.5 -143.5t34 -97.5t55.5 -55.5t75 -17.5 q62 0 118 50t119 137v444q-29 11 -71.5 18t-85.5 7q-59 0 -106 -24t-80.5 -68t-51.5 -107.5t-18 -142.5z" />
<glyph unicode="e" d="M102 487q0 124 34 225.5t96 174t150.5 112t197.5 39.5q108 0 191 -33.5t139 -93.5t85 -143t29 -182q0 -25 -1.5 -65t-4.5 -75h-668q0 -67 20.5 -118t58 -85.5t90 -52.5t116.5 -18q74 0 158.5 11.5t175.5 37.5v-194q-39 -11 -85 -20t-94 -16t-97 -10.5t-95 -3.5 q-116 0 -208 33t-156 97.5t-98 159.5t-34 220zM354 621h422v7q0 56 -15 98q-16 44 -43.5 73t-64 43t-78.5 14q-92 0 -151 -61.5t-70 -173.5z" />
<glyph unicode="f" d="M0 1016zM80 680v190h295v154q0 108 31.5 185.5t89 127t138.5 72.5t181 23q66 0 125.5 -8.5t110.5 -20.5v-197q-44 14 -104.5 23.5t-123.5 9.5q-43 0 -80 -11.5t-64 -36.5t-42.5 -63.5t-15.5 -93.5v-164h399v-190h-399v-680h-246v680h-295z" />
<glyph unicode="g" d="M76 -156q0 35 9 65t27 57.5t45 53.5t64 52q-49 28 -74.5 72t-25.5 94q0 34 9 63.5t23.5 56.5t33.5 52t40 49q-37 37 -61.5 89.5t-24.5 131.5q0 85 30.5 151.5t84.5 112t128.5 69t162.5 23.5q45 0 86.5 -4.5t75.5 -15.5h352v-178h-160q28 -35 39.5 -73.5t11.5 -78.5 q0 -85 -29.5 -150t-83 -109t-128 -66.5t-164.5 -22.5q-53 0 -98 10.5t-68 24.5q-17 -17 -29 -37.5t-12 -46.5q0 -16 8 -32t23.5 -28.5t37 -20.5t48.5 -9l241 -9q81 -2 146.5 -20.5t112.5 -52.5t72.5 -82.5t25.5 -110.5q0 -71 -32 -134t-96.5 -109.5t-160.5 -73.5t-223 -27 q-123 0 -211.5 19.5t-145 54.5t-83.5 83.5t-27 106.5zM326 -135q0 -59 59.5 -87t167.5 -28q69 0 116.5 13t77.5 34t43 49t13 58q0 27 -12.5 45.5t-35 31t-53 19t-67.5 8.5l-215 4q-29 -20 -47.5 -38t-29 -35.5t-14 -35.5t-3.5 -38zM367 680q0 -81 47.5 -128.5t132.5 -47.5 q45 0 78.5 15t55.5 40t33 58t11 69q0 85 -47.5 132.5t-132.5 47.5q-45 0 -78.5 -15t-55.5 -40.5t-33 -59.5t-11 -71z" />
<glyph unicode="h" d="M139 0v1413h244v-348l-12 -184q31 37 63 66.5t69 49.5t80 30.5t95 10.5q78 0 136 -25.5t97 -72t58.5 -112t19.5 -146.5v-682h-244v662q0 167 -124 167q-62 0 -118.5 -50t-119.5 -136v-643h-244z" />
<glyph unicode="i" d="M145 0v190h322v636h-287v190h537v-826h293v-190h-865zM418 1294q0 33 12 62t33.5 51t51 34.5t63.5 12.5t63 -12.5t50.5 -34.5t33.5 -51t12 -62t-12 -62t-33.5 -50.5t-50.5 -34t-63 -12.5t-63.5 12.5t-51 34t-33.5 50.5t-12 62z" />
<glyph unicode="j" d="M119 -145q28 -15 63.5 -29.5t74 -26t78.5 -18t79 -6.5q111 0 166 64t55 188v799h-483v190h731v-987q0 -114 -33.5 -198.5t-96 -140t-150 -83t-195.5 -27.5q-88 0 -164 15t-125 36v224zM584 1294q0 33 12 62t33.5 51t50.5 34.5t63 12.5t63.5 -12.5t51 -34.5t33.5 -51 t12 -62t-12 -62t-33.5 -50.5t-51 -34t-63.5 -12.5t-63 12.5t-50.5 34t-33.5 50.5t-12 62z" />
<glyph unicode="k" d="M149 0v1413h244v-827l355 430h305l-412 -463l446 -553h-319l-375 508v-508h-244z" />
<glyph unicode="l" d="M145 0v190h322v1033h-287v190h537v-1223h293v-190h-865z" />
<glyph unicode="m" d="M59 0v1016h181l4 -148q22 45 44 77t47 52.5t53.5 29.5t64.5 9q85 0 129.5 -44.5t50.5 -123.5q24 45 47.5 77t49 52.5t55 29.5t65.5 9q111 0 164 -77.5t53 -229.5v-729h-211v692q0 38 -2 66.5t-8 47.5t-17.5 28.5t-31.5 9.5q-31 0 -61 -42t-68 -143v-659h-209v692 q0 38 -2 66.5t-8 47.5t-18 28.5t-32 9.5q-26 0 -58 -42t-71 -143v-659h-211z" />
<glyph unicode="n" d="M139 0v1016h211l6 -150q31 39 64.5 71t72.5 54.5t84 34.5t101 12q78 0 136 -25.5t97 -72t58.5 -112t19.5 -146.5v-682h-244v662q0 167 -124 167q-62 0 -118.5 -50t-119.5 -136v-643h-244z" />
<glyph unicode="o" d="M72 502q0 121 34.5 220t99 169t157.5 108.5t210 38.5q114 0 203 -33.5t151 -99.5t94.5 -163.5t32.5 -225.5q0 -120 -34 -219.5t-98 -170.5t-157 -110t-212 -39q-113 0 -202 33t-151 98.5t-95 164t-33 229.5zM326 508q0 -159 64 -239.5t175 -80.5q61 0 106 24.5t73 68 t42 102.5t14 127q0 158 -59.5 237.5t-175.5 79.5q-64 0 -109 -25t-74 -68.5t-42.5 -101.5t-13.5 -124z" />
<glyph unicode="p" d="M139 -397v1413h211l6 -150q31 39 64.5 71t72.5 54.5t84 34.5t101 12q90 0 160 -36t117.5 -102.5t72.5 -161t25 -212.5q0 -140 -39.5 -242t-110 -169.5t-166.5 -100t-209 -32.5q-38 0 -76 5t-69 13v-397h-244zM383 199q29 -11 71.5 -18t86.5 -7q58 0 105.5 24t81 68 t51.5 107.5t18 142.5q0 84 -12 143t-34.5 97t-55 55.5t-74.5 17.5q-62 0 -118.5 -50t-119.5 -136v-444z" />
<glyph unicode="q" d="M76 489q0 121 33 221.5t98.5 172.5t163.5 111.5t229 39.5q25 0 55 -3t60 -7.5t57.5 -11t48.5 -13.5l168 37v-1433h-244v334l11 198q-28 -35 -59.5 -64t-69 -50t-81.5 -32.5t-95 -11.5q-90 0 -160 36t-117.5 102.5t-72.5 161.5t-25 212zM332 500q0 -84 11.5 -143.5 t34 -97.5t55.5 -55.5t75 -17.5q62 0 118 50t119 137v444q-29 11 -71.5 18t-85.5 7q-59 0 -106 -24t-80.5 -68t-51.5 -107.5t-18 -142.5z" />
<glyph unicode="r" d="M180 0v1016h221l9 -148q25 39 56.5 70t70 53.5t85.5 34.5t103 12q77 0 136.5 -26.5t100.5 -78.5q40 -53 60 -131q17 -68 16 -154v-27h-245v23q1 42 -5 74q-8 40 -24.5 66t-40.5 38t-55 12q-54 0 -111.5 -44.5t-126.5 -146.5v-643h-250z" />
<glyph unicode="s" d="M156 18v220q94 -39 187.5 -56.5t176.5 -17.5q96 0 143.5 30.5t47.5 79.5q0 23 -10 42t-37.5 36.5t-77.5 36t-131 41.5q-75 21 -131.5 47.5t-93.5 62.5t-55.5 83.5t-18.5 111.5q0 62 28 117t83.5 96.5t138.5 65.5t194 24q96 0 170 -10t131 -22v-199q-87 28 -163.5 39.5 t-151.5 11.5t-120.5 -27t-45.5 -75q0 -23 9 -41t35.5 -35t74 -35.5t125.5 -40.5q88 -25 148 -53.5t96.5 -64.5t52.5 -82t16 -105q0 -87 -38.5 -148.5t-102 -100t-144 -56t-164.5 -17.5q-112 0 -202 10.5t-170 30.5z" />
<glyph unicode="t" d="M59 826v190h273v260l250 65v-325h395v-190h-395v-478q0 -87 40 -131.5t134 -44.5q60 0 117 10t104 23v-195q-66 -15 -133 -24t-127 -9q-100 0 -172.5 21t-120 64t-70 109.5t-22.5 158.5v496h-273z" />
<glyph unicode="u" d="M137 334v682h244v-662q0 -83 31 -125.5t94 -42.5q61 0 117.5 50.5t119.5 136.5v643h244v-1016h-211l-6 150q-32 -39 -65 -71t-71.5 -54.5t-84 -35t-100.5 -12.5q-78 0 -136.5 25.5t-97.5 72.5t-58.5 112.5t-19.5 146.5z" />
<glyph unicode="v" d="M23 1016h272l211 -576l63 -186l62 178l213 584h262l-399 -1016h-281z" />
<glyph unicode="w" d="M8 1016h232l73 -574l17 -157l41 141l102 309h186l109 -307l47 -145l19 161l61 572h221l-143 -1016h-271l-108 322l-33 112l-33 -115l-104 -319h-272z" />
<glyph unicode="x" d="M33 0l381 512l-361 504h297l228 -334l225 334h274l-350 -502l369 -514h-303l-232 342l-233 -342h-295z" />
<glyph unicode="y" d="M23 1016h272l211 -576l63 -186l62 178l213 584h262l-356 -905q-53 -132 -110.5 -231.5t-126.5 -166t-153.5 -100t-189.5 -33.5q-25 0 -54.5 2.5t-60.5 7.5v207q12 -2 27.5 -4.5t32.5 -4t34.5 -2.5t32.5 -1q42 0 78 16t66.5 44.5t55.5 68t44 86.5z" />
<glyph unicode="z" d="M150 0v170l497 637h-485v209h807v-172l-486 -629h494v-215h-827z" />
<glyph unicode="{" d="M152 479v189h63q54 0 92 11.5t62 35.5t34.5 61.5t10.5 89.5v176q0 103 23.5 181t73.5 130t127.5 78.5t186.5 26.5h84v-188h-63q-48 0 -86.5 -11.5t-66.5 -37.5t-43 -68.5t-15 -105.5v-175q0 -75 -12.5 -128t-38.5 -88.5t-66 -55t-94 -27.5q107 -12 159 -83.5t52 -219.5 v-254q0 -65 15 -108t43 -69t66.5 -37t86.5 -11h63v-188h-84q-207 0 -309 99.5t-102 315.5v254q0 103 -46 155t-153 52h-63z" />
<glyph unicode="|" d="M451 -410v2048h225v-2048h-225z" />
<glyph unicode="}" d="M217 -209h64q48 0 86.5 11t66.5 37.5t43 69t15 105.5v260q0 75 12.5 128.5t38 89t65.5 54.5t94 27q-107 13 -158.5 84.5t-51.5 219.5v167q0 65 -15 108.5t-43 69.5t-66.5 37t-86.5 11h-64v188h84q208 0 310 -99.5t102 -316.5v-168q0 -103 45.5 -154.5t152.5 -51.5h64 v-189h-64q-54 0 -92 -11.5t-61.5 -35.5t-34 -61.5t-10.5 -89.5v-263q0 -103 -23.5 -180.5t-73.5 -129.5t-128 -78.5t-187 -26.5h-84v188z" />
<glyph unicode="~" d="M47 393q0 78 16 148.5t52 123.5t94.5 84t142.5 31q56 0 101.5 -18.5t83 -46t69 -59.5t60.5 -59.5t57 -46t59 -18.5q45 0 68.5 39.5t23.5 137.5h205q0 -78 -16 -148.5t-52 -124t-94.5 -84.5t-142.5 -31q-56 0 -101.5 18.5t-83 46t-69 60t-60.5 59.5t-57 45.5t-59 18.5 q-44 0 -68 -39t-24 -137h-205z" />
<glyph unicode="&#xa0;" />
<glyph unicode="&#xa1;" d="M408 883q0 33 12 61.5t33 49t49.5 32.5t60.5 12t60.5 -12t49.5 -32.5t33.5 -49t12.5 -61.5t-12.5 -61.5t-33.5 -49.5t-49.5 -33t-60.5 -12t-60.5 12t-49.5 33t-33 49.5t-12 61.5zM422 -397l37 1007h209l37 -1007h-283z" />
<glyph unicode="&#xa2;" d="M113 653q0 118 36 213t103 162t161.5 103t211.5 38l43 326h174l-43 -334q34 -5 63.5 -11t55.5 -15v-232q-68 36 -146 51l-80 -583q59 3 119 20t111 39v-213q-60 -26 -124 -38.5t-132 -14.5l-56 -414h-174l58 420q-182 31 -281.5 151t-99.5 332zM369 668q0 -106 39.5 -178 t113.5 -97l76 570q-111 -14 -170 -92t-59 -203z" />
<glyph unicode="&#xa3;" d="M76 0v209h157v346h-157v182h157v158q0 105 29.5 186t85.5 136t136 83.5t182 28.5q114 0 209 -38t155 -107l-131 -150q-23 24 -50 42.5t-55.5 31t-57.5 19t-54 6.5q-100 0 -154.5 -57.5t-54.5 -172.5v-166h406v-182h-406v-346h539v-209h-936z" />
<glyph unicode="&#xa4;" d="M41 137l190 246q-67 101 -67 274q0 159 69 269l-192 256l207 114l160 -231q37 14 77 21.5t86 7.5q44 0 82.5 -6.5t73.5 -18.5l156 227l202 -112l-188 -248q32 -51 49 -117t17 -151q0 -160 -72 -273l194 -256l-206 -114l-160 233q-35 -14 -76.5 -21.5t-87.5 -7.5 q-43 0 -82 6t-74 17l-155 -227zM387 662q0 -119 47.5 -178.5t130.5 -59.5q45 0 78 18t54.5 50t31.5 76t10 96q0 235 -174 235q-48 0 -81.5 -18.5t-55 -51t-31.5 -75.5t-10 -92z" />
<glyph unicode="&#xa5;" d="M39 1307h274l166 -303l92 -181l88 172l166 312h267l-408 -699v-28h291v-154h-291v-137h291v-154h-291v-135h-242v135h-292v154h292v137h-292v154h292v28z" />
<glyph unicode="&#xa6;" d="M451 -410v856h225v-856h-225zM451 807v831h225v-831h-225z" />
<glyph unicode="&#xa7;" d="M90 672q0 40 11.5 81.5t34 81t56.5 74.5t78 62q-21 34 -34 71.5t-13 83.5q0 64 27.5 119.5t82.5 97t136.5 65.5t189.5 24q93 0 165.5 -10.5t129.5 -22.5v-201q-85 26 -160 37.5t-149 11.5q-72 0 -118 -25.5t-46 -74.5q0 -32 24.5 -60.5t64.5 -55.5t91 -55t104 -60 t104 -69t91 -83t64.5 -102t24.5 -125q0 -50 -13 -95t-36.5 -84t-56 -72t-71.5 -59q20 -24 31.5 -59t11.5 -80q0 -88 -38 -149.5t-100 -100.5t-141 -56.5t-161 -17.5q-109 0 -197.5 10.5t-166.5 30.5v213q92 -37 183.5 -52t172.5 -15q94 0 141 31t47 79q0 34 -24.5 62.5 t-64 56t-90.5 55t-103.5 58.5t-103.5 68t-90.5 82.5t-64 102t-24.5 126.5zM350 694q0 -51 35 -91t89.5 -77t120.5 -73t128 -78q32 28 48.5 65t16.5 72q0 50 -34 91t-86.5 78t-117.5 73t-126 77q-17 -12 -30.5 -28.5t-23.5 -34.5t-15 -37t-5 -37z" />
<glyph unicode="&#xa8;" d="M0 1016zM217 1292q0 28 11 53.5t29.5 44t43.5 29.5t53 11t53.5 -11t43.5 -29.5t29 -44t11 -53.5t-11 -53t-29 -43.5t-43.5 -29.5t-53.5 -11t-53 11t-43.5 29.5t-29.5 43.5t-11 53zM635 1292q0 28 10.5 53.5t29.5 44t43.5 29.5t53.5 11q28 0 53 -11t44 -29.5t29.5 -44 t10.5 -53.5t-10.5 -53t-29.5 -43.5t-44 -29.5t-53 -11q-29 0 -53.5 11t-43.5 29.5t-29.5 43.5t-10.5 53z" />
<glyph unicode="&#xa9;" d="M16 651q0 140 38 263.5t109 215.5t172.5 145.5t227.5 53.5t227.5 -53t172.5 -145t109 -215t38 -263t-38 -263t-109 -214.5t-172.5 -145t-227.5 -53.5q-132 0 -233.5 50t-171.5 139.5t-106 213.5t-36 271zM186 653q0 -106 24 -200.5t71.5 -165.5t117.5 -112.5t163 -41.5 q94 0 164.5 41t118 112t71.5 165t24 200t-24 201t-71.5 166t-118 113t-164.5 42q-93 0 -163 -41.5t-117.5 -112t-71.5 -165t-24 -201.5zM318 642q0 72 18.5 137.5t57.5 114.5t102 78.5t150 29.5q64 0 113 -12v-175q-46 19 -97 19q-40 0 -65 -13t-42 -36.5t-24 -58.5t-7 -79 q0 -85 30.5 -128t97.5 -43q24 0 52.5 6.5t54.5 15.5v-174q-34 -10 -70 -14.5t-69 -4.5q-75 0 -131.5 23.5t-94.5 67t-57 106.5t-19 140z" />
<glyph unicode="&#xaa;" d="M217 338v168h692v-168h-692zM219 825q0 48 22.5 88t67.5 69t113 45.5t160 16.5h71v43q0 22 -6.5 40t-22.5 31t-44 19.5t-70 6.5q-22 0 -51 -3.5t-60.5 -10.5t-64 -17t-62.5 -23v156q57 20 122.5 31.5t140.5 11.5q92 0 152.5 -18.5t96 -50t50 -74.5t14.5 -92v-463h-160 l-14 74q-40 -41 -95 -65t-139 -24q-44 0 -84 11.5t-70.5 36.5t-48.5 64.5t-18 96.5zM426 829q0 -41 26.5 -56t69.5 -15q63 0 131 65v99h-84q-41 0 -68.5 -8t-44 -21.5t-23.5 -30t-7 -33.5z" />
<glyph unicode="&#xab;" d="M115 543l270 413l182 -92l-217 -321l217 -322l-188 -92zM543 543l278 403l176 -92l-219 -311l219 -312l-182 -92z" />
<glyph unicode="&#xac;" d="M102 446v197h887v-475h-213v278h-674z" />
<glyph unicode="&#xae;" d="M68 940q0 103 39 193t106 157.5t157 106.5t193 39t193.5 -39t157.5 -106.5t106 -157.5t39 -193t-39 -193t-106 -157.5t-157.5 -106.5t-193.5 -39t-193 39t-157 106.5t-106 157.5t-39 193zM207 940q0 -77 28 -143.5t76 -116t113 -77.5t139 -28q75 0 140 28t113 77.5 t76 116t28 143.5t-28 143.5t-76 116t-113 77.5t-140 28q-74 0 -139 -28t-113 -77.5t-76 -116t-28 -143.5zM379 682v547h174q44 0 83 -6t68.5 -23t46.5 -47.5t17 -79.5q0 -34 -10 -58t-27.5 -40t-39.5 -24t-46 -9q33 -3 70 -76l86 -184h-148l-73 176q-7 16 -24.5 27.5 t-37.5 11.5h-12v-215h-127zM506 991h31q43 0 70.5 17.5t27.5 52.5t-23.5 49t-74.5 14h-31v-133z" />
<glyph unicode="&#xaf;" d="M0 1016zM284 1204v174h558v-174h-558z" />
<glyph unicode="&#xb0;" d="M190 1077q0 80 26 146t74.5 113.5t118.5 73.5t158 26t156.5 -24.5t115.5 -69.5t72 -109t25 -143q0 -80 -25.5 -146t-74.5 -113.5t-119 -73.5t-158 -26q-87 0 -156 24.5t-116 69.5t-72 109t-25 143zM399 1083q0 -81 40.5 -129.5t123.5 -48.5t123.5 50t40.5 128 q0 82 -40 130.5t-124 48.5q-41 0 -72 -13t-51.5 -37t-30.5 -57t-10 -72z" />
<glyph unicode="&#xb1;" d="M104 684v188h349v357h221v-357h348v-188h-348v-352h-221v352h-349zM133 0v193h860v-193h-860z" />
<glyph unicode="&#xb2;" d="M229 1325q63 48 143 77.5t173 29.5q69 0 127 -14t100.5 -42.5t66 -72t23.5 -103.5q0 -49 -15.5 -90t-44 -78t-70 -72.5t-93.5 -74.5l-82 -61h330v-193h-647v160l190 170q55 49 89.5 81.5t54 56.5t26 43t6.5 40q0 28 -24.5 44.5t-73.5 16.5q-43 0 -90 -16t-90 -47z" />
<glyph unicode="&#xb3;" d="M236 629v173q85 -18 219 -18q51 0 85 6t53.5 16.5t27.5 26t8 35.5q0 18 -8 34t-30 27.5t-61.5 18t-101.5 6.5h-88v151h68q55 0 90 7t54.5 19.5t26.5 29.5t7 36q0 34 -23.5 51t-85.5 17t-112.5 -10.5t-106.5 -24.5v169q37 10 67 17t59.5 11t60.5 5.5t69 1.5 q74 0 132.5 -14.5t99 -41.5t62 -64t21.5 -82q0 -77 -33.5 -120.5t-99.5 -63.5q101 -14 144 -60t43 -116q0 -125 -111 -191t-332 -66q-22 0 -49 1t-54.5 3t-53.5 4.5t-47 5.5z" />
<glyph unicode="&#xb4;" d="M0 1016zM440 1151l262 262h330l-348 -262h-244z" />
<glyph unicode="&#xb5;" d="M135 -397v1413h244v-660q0 -82 29 -126t94 -44q51 0 107 50.5t122 146.5v633h244v-684q0 -36 2.5 -63t11 -45t23.5 -27t41 -9h30v-188q-41 -11 -70 -15.5t-63 -4.5q-47 0 -80.5 10.5t-56.5 31.5t-36.5 52.5t-20.5 72.5q-121 -170 -266 -170q-41 0 -75 12.5t-52 32.5 l16 -198v-221h-244z" />
<glyph unicode="&#xb6;" d="M74 956q0 103 36.5 187.5t109 144.5t180.5 92.5t251 32.5h393v-1200q0 -114 -33 -198.5t-94 -140t-148.5 -83t-195.5 -27.5q-94 0 -184 31.5t-166 93.5l115 168q46 -40 105.5 -69t136.5 -29q111 0 168 64t57 188v1012h-131v-715q-155 0 -268 31t-186.5 89.5t-109.5 141 t-36 186.5z" />
<glyph unicode="&#xb7;" d="M371 561q0 41 15 77t41 62.5t61 42t75 15.5q42 0 78 -15.5t62.5 -42t41.5 -62.5t15 -77q0 -40 -15 -75t-41.5 -61.5t-62.5 -42t-78 -15.5q-40 0 -75 15.5t-61 42t-41 61.5t-15 75z" />
<glyph unicode="&#xb8;" d="M420 -295l61 295h228l-111 -295h-178z" />
<glyph unicode="&#xb9;" d="M231 1290l283 132h193v-609h180v-182h-631v182h215v396l-172 -82z" />
<glyph unicode="&#xba;" d="M201 969q0 78 25.5 144t73 114t115.5 75t154 27q85 0 151 -22.5t112 -66.5t69.5 -109.5t23.5 -151.5q0 -77 -24.5 -144t-72.5 -116.5t-117 -78t-156 -28.5q-83 0 -148.5 21.5t-111.5 66t-70 111.5t-24 158zM217 338v168h692v-168h-692zM403 972q0 -91 42.5 -140 t117.5 -49q76 0 118 50t42 141q0 90 -40.5 137t-119.5 47q-38 0 -68 -13.5t-50.5 -38t-31 -59t-10.5 -75.5z" />
<glyph unicode="&#xbb;" d="M129 236l219 311l-219 311l182 92l273 -403l-279 -404zM559 225l217 322l-217 321l189 93l264 -414l-271 -414z" />
<glyph unicode="&#xbc;" d="M0 0l928 1413h198l-927 -1413h-199zM43 1315l207 104h164v-579h-191v407l-131 -65zM528 102v131l220 340h249v-335h84v-136h-84v-102h-168v102h-301zM698 238h131v206z" />
<glyph unicode="&#xbd;" d="M0 0l928 1413h198l-927 -1413h-199zM43 1315l207 104h164v-579h-191v407l-131 -65zM610 514q44 34 104 56t128 22q109 0 170 -48t61 -128q0 -74 -37.5 -129t-120.5 -107l-55 -35h230v-145h-474v133l132 105q43 34 69.5 58t40.5 41.5t18.5 32t4.5 29.5q0 23 -15.5 37.5 t-50.5 14.5q-38 0 -70.5 -16t-60.5 -38z" />
<glyph unicode="&#xbe;" d="M0 0l928 1413h198l-927 -1413h-199zM43 831v140q32 -6 75.5 -10.5t90.5 -4.5q35 0 58.5 4t37.5 11.5t19.5 17t5.5 21.5q0 14 -6.5 24t-22.5 16.5t-43 9.5t-68 3h-69v135h55q39 0 63.5 4.5t37.5 12.5t17.5 17.5t4.5 20.5q0 20 -15 32t-59 12q-43 0 -83 -8t-81 -19v135 q27 7 49.5 12.5t44.5 8.5t45 4.5t52 1.5q116 0 178 -39.5t62 -114.5q0 -51 -26.5 -84.5t-74.5 -44.5q69 -8 103 -45.5t34 -89.5q0 -91 -79.5 -142t-245.5 -51q-16 0 -37.5 0.5t-43.5 2t-43 3.5t-36 4zM528 102v131l220 340h249v-335h84v-136h-84v-102h-168v102h-301z M698 238h131v206z" />
<glyph unicode="&#xbf;" d="M162 37q0 84 25.5 150.5t72.5 115t114 78.5t150 41l11 188h208l19 -377h-146q-49 0 -84.5 -14t-58 -37.5t-33 -55t-10.5 -67.5q0 -48 20.5 -89.5t64 -72.5t111 -49t160.5 -18h60v-227h-70q-153 0 -268.5 36.5t-192 97t-115 138.5t-38.5 162zM473 879q0 33 13 62 t35.5 50.5t52 34t63.5 12.5t63.5 -12.5t52 -34t35.5 -50.5t13 -62t-13 -62t-35.5 -51t-52 -34.5t-63.5 -12.5t-63.5 12.5t-52 34.5t-35.5 51t-13 62z" />
<glyph unicode="&#xc0;" d="M0 1307zM4 0l387 1307h344l387 -1307h-272l-72 258h-456l-74 -258h-244zM133 1671h330l223 -225h-244zM381 459h342l-170 608z" />
<glyph unicode="&#xc1;" d="M0 1307zM4 0l387 1307h344l387 -1307h-272l-72 258h-456l-74 -258h-244zM381 459h342l-170 608zM440 1446l224 225h329l-309 -225h-244z" />
<glyph unicode="&#xc2;" d="M0 1307zM4 0l387 1307h344l387 -1307h-272l-72 258h-456l-74 -258h-244zM225 1446l238 225h205l237 -225h-219l-123 94l-123 -94h-215zM381 459h342l-170 608z" />
<glyph unicode="&#xc3;" d="M0 1307zM4 0l387 1307h344l387 -1307h-272l-72 258h-456l-74 -258h-244zM186 1538q42 81 98 119.5t138 38.5q59 0 99.5 -16t72 -35.5t58.5 -35.5t59 -16q37 0 65 23.5t55 66.5l109 -104q-42 -80 -98 -119t-137 -39q-59 0 -99.5 16t-72 35.5t-58.5 35.5t-59 16 q-37 0 -65 -23.5t-56 -66.5zM381 459h342l-170 608z" />
<glyph unicode="&#xc4;" d="M0 1307zM4 0l387 1307h344l387 -1307h-272l-72 258h-456l-74 -258h-244zM205 1552q0 28 10.5 53.5t29.5 44t43.5 29.5t53.5 11q28 0 53 -11t44 -29.5t29.5 -44t10.5 -53.5t-10.5 -53t-29.5 -43.5t-44 -29.5t-53 -11q-29 0 -53.5 11t-43.5 29.5t-29.5 43.5t-10.5 53z M381 459h342l-170 608zM647 1552q0 28 11 53.5t29.5 44t43.5 29.5t53 11t53.5 -11t43.5 -29.5t29 -44t11 -53.5t-11 -53t-29 -43.5t-43.5 -29.5t-53.5 -11t-53 11t-43.5 29.5t-29.5 43.5t-11 53z" />
<glyph unicode="&#xc5;" d="M0 1307zM4 0l387 1307h344l387 -1307h-272l-72 258h-456l-74 -258h-244zM338 1539q0 48 17.5 85.5t48 63.5t71.5 39.5t88 13.5q48 0 89 -13.5t71 -39.5t47.5 -63.5t17.5 -85.5q0 -46 -17.5 -83t-48 -63.5t-71.5 -41t-88 -14.5t-88 14t-71.5 40t-48 63t-17.5 85zM381 459 h342l-170 608zM477 1539q0 -38 24 -60t62 -22t62 22t24 60t-24 60t-62 22t-62 -22t-24 -60z" />
<glyph unicode="&#xc6;" d="M-41 0l500 1307h616v-199h-268v-338h252v-195h-252v-376h278v-199h-497v262h-307l-95 -262h-227zM348 449h240v659z" />
<glyph unicode="&#xc7;" d="M82 633q0 165 42 293.5t120 217t189.5 135t250.5 46.5q45 0 84.5 -2t77.5 -7.5t77 -14.5t81 -23v-244q-85 40 -162 57t-140 17q-93 0 -159 -33.5t-108.5 -94t-62.5 -144t-20 -183.5q0 -106 20.5 -189.5t63.5 -141.5t110 -88.5t159 -30.5q33 0 71.5 6.5t78 17t78 25 t71.5 29.5v-230q-87 -35 -156.5 -50t-126.5 -17l-105 -279h-178l61 295q-63 11 -140 50t-141 115t-100 195t-36 273z" />
<glyph unicode="&#xc8;" d="M0 1307zM133 1671h330l223 -225h-244zM184 0v1307h787v-208h-537v-325h512v-203h-512v-363h537v-208h-787z" />
<glyph unicode="&#xc9;" d="M0 1307zM184 0v1307h787v-208h-537v-325h512v-203h-512v-363h537v-208h-787zM440 1446l224 225h329l-309 -225h-244z" />
<glyph unicode="&#xca;" d="M0 1307zM184 0v1307h787v-208h-537v-325h512v-203h-512v-363h537v-208h-787zM225 1446l238 225h205l237 -225h-219l-123 94l-123 -94h-215z" />
<glyph unicode="&#xcb;" d="M0 1307zM184 0v1307h787v-208h-537v-325h512v-203h-512v-363h537v-208h-787zM205 1552q0 28 10.5 53.5t29.5 44t43.5 29.5t53.5 11q28 0 53 -11t44 -29.5t29.5 -44t10.5 -53.5t-10.5 -53t-29.5 -43.5t-44 -29.5t-53 -11q-29 0 -53.5 11t-43.5 29.5t-29.5 43.5t-10.5 53z M647 1552q0 28 11 53.5t29.5 44t43.5 29.5t53 11t53.5 -11t43.5 -29.5t29 -44t11 -53.5t-11 -53t-29 -43.5t-43.5 -29.5t-53.5 -11t-53 11t-43.5 29.5t-29.5 43.5t-11 53z" />
<glyph unicode="&#xcc;" d="M0 1307zM133 1671h330l223 -225h-244zM150 0v203h288v903h-288v201h826v-201h-288v-903h288v-203h-826z" />
<glyph unicode="&#xcd;" d="M0 1307zM150 0v203h288v903h-288v201h826v-201h-288v-903h288v-203h-826zM440 1446l224 225h329l-309 -225h-244z" />
<glyph unicode="&#xce;" d="M0 1307zM150 0v203h288v903h-288v201h826v-201h-288v-903h288v-203h-826zM225 1446l238 225h205l237 -225h-219l-123 94l-123 -94h-215z" />
<glyph unicode="&#xcf;" d="M0 1307zM150 0v203h288v903h-288v201h826v-201h-288v-903h288v-203h-826zM205 1552q0 28 10.5 53.5t29.5 44t43.5 29.5t53.5 11q28 0 53 -11t44 -29.5t29.5 -44t10.5 -53.5t-10.5 -53t-29.5 -43.5t-44 -29.5t-53 -11q-29 0 -53.5 11t-43.5 29.5t-29.5 43.5t-10.5 53z M647 1552q0 28 11 53.5t29.5 44t43.5 29.5t53 11t53.5 -11t43.5 -29.5t29 -44t11 -53.5t-11 -53t-29 -43.5t-43.5 -29.5t-53.5 -11t-53 11t-43.5 29.5t-29.5 43.5t-11 53z" />
<glyph unicode="&#xd0;" d="M0 571v203h106v533h367q150 0 262.5 -37.5t187.5 -115.5t112.5 -198t37.5 -286q0 -152 -37.5 -276t-117 -211.5t-203.5 -135t-297 -47.5h-312v571h-106zM352 206h88q181 0 275 108t94 340q0 106 -17 189t-57.5 140.5t-108.5 87.5t-169 30h-105v-327h232v-203h-232v-365z " />
<glyph unicode="&#xd1;" d="M0 1307zM94 0v1307h302l357 -785l63 -153v577v361h224v-1307h-300l-350 780l-72 168v-542v-406h-224zM186 1538q42 81 98 119.5t138 38.5q59 0 99.5 -16t72 -35.5t58.5 -35.5t59 -16q37 0 65 23.5t55 66.5l109 -104q-42 -80 -98 -119t-137 -39q-59 0 -99.5 16t-72 35.5 t-58.5 35.5t-59 16q-37 0 -65 -23.5t-56 -66.5z" />
<glyph unicode="&#xd2;" d="M0 1307zM37 647q0 178 41.5 307t114 212t170 123t208.5 40q258 0 388 -171t130 -499q0 -178 -41.5 -307t-114 -212t-170 -123t-208.5 -40q-258 0 -388 171.5t-130 498.5zM133 1671h330l223 -225h-244zM297 659q0 -232 62.5 -346t203.5 -114q71 0 121.5 29.5t82.5 86.5 t47 140.5t15 191.5q0 232 -62 346t-204 114q-71 0 -121 -29.5t-82.5 -86.5t-47.5 -140.5t-15 -191.5z" />
<glyph unicode="&#xd3;" d="M0 1307zM37 647q0 178 41.5 307t114 212t170 123t208.5 40q258 0 388 -171t130 -499q0 -178 -41.5 -307t-114 -212t-170 -123t-208.5 -40q-258 0 -388 171.5t-130 498.5zM297 659q0 -232 62.5 -346t203.5 -114q71 0 121.5 29.5t82.5 86.5t47 140.5t15 191.5 q0 232 -62 346t-204 114q-71 0 -121 -29.5t-82.5 -86.5t-47.5 -140.5t-15 -191.5zM440 1446l224 225h329l-309 -225h-244z" />
<glyph unicode="&#xd4;" d="M0 1307zM37 647q0 178 41.5 307t114 212t170 123t208.5 40q258 0 388 -171t130 -499q0 -178 -41.5 -307t-114 -212t-170 -123t-208.5 -40q-258 0 -388 171.5t-130 498.5zM225 1446l238 225h205l237 -225h-219l-123 94l-123 -94h-215zM297 659q0 -232 62.5 -346 t203.5 -114q71 0 121.5 29.5t82.5 86.5t47 140.5t15 191.5q0 232 -62 346t-204 114q-71 0 -121 -29.5t-82.5 -86.5t-47.5 -140.5t-15 -191.5z" />
<glyph unicode="&#xd5;" d="M0 1307zM37 647q0 178 41.5 307t114 212t170 123t208.5 40q258 0 388 -171t130 -499q0 -178 -41.5 -307t-114 -212t-170 -123t-208.5 -40q-258 0 -388 171.5t-130 498.5zM186 1538q42 81 98 119.5t138 38.5q59 0 99.5 -16t72 -35.5t58.5 -35.5t59 -16q37 0 65 23.5 t55 66.5l109 -104q-42 -80 -98 -119t-137 -39q-59 0 -99.5 16t-72 35.5t-58.5 35.5t-59 16q-37 0 -65 -23.5t-56 -66.5zM297 659q0 -232 62.5 -346t203.5 -114q71 0 121.5 29.5t82.5 86.5t47 140.5t15 191.5q0 232 -62 346t-204 114q-71 0 -121 -29.5t-82.5 -86.5 t-47.5 -140.5t-15 -191.5z" />
<glyph unicode="&#xd6;" d="M0 1307zM37 647q0 178 41.5 307t114 212t170 123t208.5 40q258 0 388 -171t130 -499q0 -178 -41.5 -307t-114 -212t-170 -123t-208.5 -40q-258 0 -388 171.5t-130 498.5zM205 1552q0 28 10.5 53.5t29.5 44t43.5 29.5t53.5 11q28 0 53 -11t44 -29.5t29.5 -44t10.5 -53.5 t-10.5 -53t-29.5 -43.5t-44 -29.5t-53 -11q-29 0 -53.5 11t-43.5 29.5t-29.5 43.5t-10.5 53zM297 659q0 -232 62.5 -346t203.5 -114q71 0 121.5 29.5t82.5 86.5t47 140.5t15 191.5q0 232 -62 346t-204 114q-71 0 -121 -29.5t-82.5 -86.5t-47.5 -140.5t-15 -191.5zM647 1552 q0 28 11 53.5t29.5 44t43.5 29.5t53 11t53.5 -11t43.5 -29.5t29 -44t11 -53.5t-11 -53t-29 -43.5t-43.5 -29.5t-53.5 -11t-53 11t-43.5 29.5t-29.5 43.5t-11 53z" />
<glyph unicode="&#xd7;" d="M117 245l296 296l-296 296l155 155l296 -296l296 296l145 -145l-296 -296l296 -296l-155 -155l-296 296l-296 -296z" />
<glyph unicode="&#xd8;" d="M37 641q0 176 40.5 305.5t112 214.5t168 126.5t207.5 41.5q29 0 57 -2.5t54 -7.5l63 203h197l-86 -269q119 -75 179 -223t60 -362q0 -177 -41 -307.5t-112 -215.5t-167.5 -126.5t-207.5 -41.5q-29 0 -56.5 3t-53.5 8l-64 -203h-197l84 266q-117 76 -177 224t-60 366z M289 660q0 -120 15 -208.5t50 -147.5l254 807q-11 2 -22.5 3t-24.5 1q-71 0 -122 -31t-84.5 -89.5t-49.5 -143t-16 -191.5zM516 196q12 -4 25.5 -4.5t27.5 -0.5q71 0 122 31t83.5 90t47.5 143.5t15 192.5q0 119 -15 208.5t-50 148.5z" />
<glyph unicode="&#xd9;" d="M0 1307zM87 440v867h246v-852q0 -66 11.5 -117t40 -86.5t71.5 -53.5t108 -18q61 0 103 15.5t70 50t42 88.5t14 131v842h246v-826q0 -125 -33.5 -219.5t-96 -157.5t-152.5 -95t-202 -32q-126 0 -216 32t-146 92t-81 146t-25 193zM133 1671h330l223 -225h-244z" />
<glyph unicode="&#xda;" d="M0 1307zM87 440v867h246v-852q0 -66 11.5 -117t40 -86.5t71.5 -53.5t108 -18q61 0 103 15.5t70 50t42 88.5t14 131v842h246v-826q0 -125 -33.5 -219.5t-96 -157.5t-152.5 -95t-202 -32q-126 0 -216 32t-146 92t-81 146t-25 193zM440 1446l224 225h329l-309 -225h-244z " />
<glyph unicode="&#xdb;" d="M0 1307zM87 440v867h246v-852q0 -66 11.5 -117t40 -86.5t71.5 -53.5t108 -18q61 0 103 15.5t70 50t42 88.5t14 131v842h246v-826q0 -125 -33.5 -219.5t-96 -157.5t-152.5 -95t-202 -32q-126 0 -216 32t-146 92t-81 146t-25 193zM225 1446l238 225h205l237 -225h-219 l-123 94l-123 -94h-215z" />
<glyph unicode="&#xdc;" d="M0 1307zM87 440v867h246v-852q0 -66 11.5 -117t40 -86.5t71.5 -53.5t108 -18q61 0 103 15.5t70 50t42 88.5t14 131v842h246v-826q0 -125 -33.5 -219.5t-96 -157.5t-152.5 -95t-202 -32q-126 0 -216 32t-146 92t-81 146t-25 193zM205 1552q0 28 10.5 53.5t29.5 44 t43.5 29.5t53.5 11q28 0 53 -11t44 -29.5t29.5 -44t10.5 -53.5t-10.5 -53t-29.5 -43.5t-44 -29.5t-53 -11q-29 0 -53.5 11t-43.5 29.5t-29.5 43.5t-10.5 53zM647 1552q0 28 11 53.5t29.5 44t43.5 29.5t53 11t53.5 -11t43.5 -29.5t29 -44t11 -53.5t-11 -53t-29 -43.5 t-43.5 -29.5t-53.5 -11t-53 11t-43.5 29.5t-29.5 43.5t-11 53z" />
<glyph unicode="&#xdd;" d="M0 1307zM10 1307h273l192 -404l88 -198l88 204l201 398h262l-429 -844v-463h-250v461zM440 1446l224 225h329l-309 -225h-244z" />
<glyph unicode="&#xde;" d="M135 0v1307h248v-180h135q127 0 224.5 -28t164 -81t101 -130t34.5 -177q0 -102 -34 -188.5t-101 -149.5t-167 -98t-232 -35h-125v-240h-248zM383 444h137q64 0 113 18t82.5 51t51 80t17.5 105q0 102 -66.5 163.5t-205.5 61.5h-129v-479z" />
<glyph unicode="&#xdf;" d="M139 0v1020q0 106 33 183.5t91.5 128.5t137.5 75.5t172 24.5q87 0 160 -20t126 -57.5t82.5 -91.5t29.5 -122q0 -60 -16 -103t-40 -74t-52.5 -55t-52.5 -46.5t-40 -48t-16 -60.5q0 -38 23.5 -67t59 -56t77 -56.5t77 -67.5t59 -89.5t23.5 -122.5q0 -72 -28 -129.5t-78 -98 t-121 -62t-156 -21.5q-52 0 -101.5 4t-84.5 12v199q37 -11 82.5 -18t89.5 -7q41 0 68.5 7.5t43.5 20.5t22.5 30.5t6.5 37.5q0 41 -23 72.5t-58 60.5t-75.5 59t-75.5 68.5t-58 88t-23 118.5q0 51 16.5 89t41 68.5t53 55.5t53 51t41 55.5t16.5 67.5q0 30 -12.5 52.5t-34.5 38 t-52 23t-65 7.5q-87 0 -132.5 -53.5t-45.5 -163.5v-1028h-244z" />
<glyph unicode="&#xe0;" d="M0 1016zM92 1413h330l262 -262h-244zM109 291q0 72 30.5 133t93 105t156 69t219.5 25h133v61q0 39 -11 70.5t-35.5 53.5t-63.5 34t-96 12q-90 0 -177.5 -20.5t-169.5 -57.5v195q73 29 168.5 48t198.5 19q113 0 194 -21.5t133.5 -64.5t77.5 -107.5t25 -150.5v-694h-209 l-6 133q-32 -34 -67 -62.5t-77 -49.5t-91.5 -32.5t-108.5 -11.5q-78 0 -137 23t-99 64t-60.5 99t-20.5 128zM365 297q0 -62 40 -94.5t109 -32.5q51 0 106 37t121 106v136h-149q-62 0 -105 -12t-70 -33t-39.5 -48.5t-12.5 -58.5z" />
<glyph unicode="&#xe1;" d="M0 1016zM109 291q0 72 30.5 133t93 105t156 69t219.5 25h133v61q0 39 -11 70.5t-35.5 53.5t-63.5 34t-96 12q-90 0 -177.5 -20.5t-169.5 -57.5v195q73 29 168.5 48t198.5 19q113 0 194 -21.5t133.5 -64.5t77.5 -107.5t25 -150.5v-694h-209l-6 133q-32 -34 -67 -62.5 t-77 -49.5t-91.5 -32.5t-108.5 -11.5q-78 0 -137 23t-99 64t-60.5 99t-20.5 128zM365 297q0 -62 40 -94.5t109 -32.5q51 0 106 37t121 106v136h-149q-62 0 -105 -12t-70 -33t-39.5 -48.5t-12.5 -58.5zM440 1151l262 262h330l-348 -262h-244z" />
<glyph unicode="&#xe2;" d="M0 1016zM109 291q0 72 30.5 133t93 105t156 69t219.5 25h133v61q0 39 -11 70.5t-35.5 53.5t-63.5 34t-96 12q-90 0 -177.5 -20.5t-169.5 -57.5v195q73 29 168.5 48t198.5 19q113 0 194 -21.5t133.5 -64.5t77.5 -107.5t25 -150.5v-694h-209l-6 133q-32 -34 -67 -62.5 t-77 -49.5t-91.5 -32.5t-108.5 -11.5q-78 0 -137 23t-99 64t-60.5 99t-20.5 128zM227 1151l246 262h184l246 -262h-217l-123 123l-123 -123h-213zM365 297q0 -62 40 -94.5t109 -32.5q51 0 106 37t121 106v136h-149q-62 0 -105 -12t-70 -33t-39.5 -48.5t-12.5 -58.5z" />
<glyph unicode="&#xe3;" d="M0 1016zM109 291q0 72 30.5 133t93 105t156 69t219.5 25h133v61q0 39 -11 70.5t-35.5 53.5t-63.5 34t-96 12q-90 0 -177.5 -20.5t-169.5 -57.5v195q73 29 168.5 48t198.5 19q113 0 194 -21.5t133.5 -64.5t77.5 -107.5t25 -150.5v-694h-209l-6 133q-32 -34 -67 -62.5 t-77 -49.5t-91.5 -32.5t-108.5 -11.5q-78 0 -137 23t-99 64t-60.5 99t-20.5 128zM186 1276q42 80 98 118.5t138 38.5q59 0 99.5 -17.5t72 -37.5t58.5 -37.5t59 -17.5q37 0 65 23.5t55 66.5l109 -108q-42 -81 -98 -119.5t-137 -38.5q-59 0 -99.5 17t-72 38t-58.5 38t-59 17 q-37 0 -65 -23t-56 -67zM365 297q0 -62 40 -94.5t109 -32.5q51 0 106 37t121 106v136h-149q-62 0 -105 -12t-70 -33t-39.5 -48.5t-12.5 -58.5z" />
<glyph unicode="&#xe4;" d="M0 1016zM109 291q0 72 30.5 133t93 105t156 69t219.5 25h133v61q0 39 -11 70.5t-35.5 53.5t-63.5 34t-96 12q-90 0 -177.5 -20.5t-169.5 -57.5v195q73 29 168.5 48t198.5 19q113 0 194 -21.5t133.5 -64.5t77.5 -107.5t25 -150.5v-694h-209l-6 133q-32 -34 -67 -62.5 t-77 -49.5t-91.5 -32.5t-108.5 -11.5q-78 0 -137 23t-99 64t-60.5 99t-20.5 128zM217 1292q0 28 11 53.5t29.5 44t43.5 29.5t53 11t53.5 -11t43.5 -29.5t29 -44t11 -53.5t-11 -53t-29 -43.5t-43.5 -29.5t-53.5 -11t-53 11t-43.5 29.5t-29.5 43.5t-11 53zM365 297 q0 -62 40 -94.5t109 -32.5q51 0 106 37t121 106v136h-149q-62 0 -105 -12t-70 -33t-39.5 -48.5t-12.5 -58.5zM635 1292q0 28 10.5 53.5t29.5 44t43.5 29.5t53.5 11q28 0 53 -11t44 -29.5t29.5 -44t10.5 -53.5t-10.5 -53t-29.5 -43.5t-44 -29.5t-53 -11q-29 0 -53.5 11 t-43.5 29.5t-29.5 43.5t-10.5 53z" />
<glyph unicode="&#xe5;" d="M0 1016zM109 291q0 72 30.5 133t93 105t156 69t219.5 25h133v61q0 39 -11 70.5t-35.5 53.5t-63.5 34t-96 12q-90 0 -177.5 -20.5t-169.5 -57.5v195q73 29 168.5 48t198.5 19q113 0 194 -21.5t133.5 -64.5t77.5 -107.5t25 -150.5v-694h-209l-6 133q-32 -34 -67 -62.5 t-77 -49.5t-91.5 -32.5t-108.5 -11.5q-78 0 -137 23t-99 64t-60.5 99t-20.5 128zM323 1324q0 50 19 92t52 72t76.5 47t92.5 17q50 0 93.5 -17t76 -47t51.5 -71.5t19 -91.5q0 -48 -19 -90t-52 -73t-76.5 -48.5t-92.5 -17.5t-92.5 17t-76.5 47.5t-52 72t-19 91.5zM365 297 q0 -62 40 -94.5t109 -32.5q51 0 106 37t121 106v136h-149q-62 0 -105 -12t-70 -33t-39.5 -48.5t-12.5 -58.5zM469 1324q0 -40 27 -67t67 -27t67 27t27 67t-27 67t-67 27t-67 -27t-27 -67z" />
<glyph unicode="&#xe6;" d="M18 279q0 75 21 136t65 103.5t113.5 66t167.5 23.5h80v74q0 37 -6.5 70t-23 57.5t-44.5 38.5t-72 14q-23 0 -52 -6t-60.5 -17t-64 -26.5t-62.5 -34.5v195q54 31 122 48t136 17q90 0 151.5 -26t98.5 -72q37 45 91.5 71.5t123.5 26.5q82 0 139 -32.5t92.5 -92t51.5 -144 t16 -187.5q0 -12 -0.5 -28.5t-1 -34t-1 -34.5t-1.5 -30h-445q0 -70 13.5 -125.5t38 -94t60 -59t79.5 -20.5q49 0 105.5 15t113.5 40v-186q-50 -20 -118 -34t-142 -14q-53 0 -94.5 11t-74 32t-57 50.5t-42.5 66.5q-60 -84 -120 -122t-136 -38q-123 0 -192 74t-69 228z M229 291q0 -65 22 -100t68 -35q35 0 71.5 36t74.5 99v164h-92q-40 0 -67.5 -13t-44.5 -35.5t-24.5 -52t-7.5 -63.5zM655 608h252q1 130 -31.5 192t-87.5 62q-63 0 -94 -66t-39 -188z" />
<glyph unicode="&#xe7;" d="M133 496q0 122 38.5 221t108.5 169t168.5 108t219.5 38q99 0 166.5 -10.5t121.5 -26.5v-237q-62 31 -134.5 48t-137.5 17q-68 0 -122 -23t-91 -64t-56.5 -99.5t-19.5 -128.5q0 -73 21 -131t59.5 -98.5t92.5 -62t120 -21.5q32 0 67.5 4.5t71 13t70 19.5t64.5 24v-217 q-59 -24 -122 -37.5t-130 -17.5l-105 -279h-178l61 295q-168 39 -261 164.5t-93 331.5z" />
<glyph unicode="&#xe8;" d="M0 1016zM92 1413h330l262 -262h-244zM102 487q0 124 34 225.5t96 174t150.5 112t197.5 39.5q108 0 191 -33.5t139 -93.5t85 -143t29 -182q0 -25 -1.5 -65t-4.5 -75h-668q0 -67 20.5 -118t58 -85.5t90 -52.5t116.5 -18q74 0 158.5 11.5t175.5 37.5v-194q-39 -11 -85 -20 t-94 -16t-97 -10.5t-95 -3.5q-116 0 -208 33t-156 97.5t-98 159.5t-34 220zM354 621h422q1 60 -15 104.5t-43.5 73.5t-64 43t-78.5 14q-92 0 -151 -61.5t-70 -173.5z" />
<glyph unicode="&#xe9;" d="M0 1016zM102 487q0 124 34 225.5t96 174t150.5 112t197.5 39.5q108 0 191 -33.5t139 -93.5t85 -143t29 -182q0 -25 -1.5 -65t-4.5 -75h-668q0 -67 20.5 -118t58 -85.5t90 -52.5t116.5 -18q74 0 158.5 11.5t175.5 37.5v-194q-39 -11 -85 -20t-94 -16t-97 -10.5t-95 -3.5 q-116 0 -208 33t-156 97.5t-98 159.5t-34 220zM354 621h422q1 60 -15 104.5t-43.5 73.5t-64 43t-78.5 14q-92 0 -151 -61.5t-70 -173.5zM440 1151l262 262h330l-348 -262h-244z" />
<glyph unicode="&#xea;" d="M0 1016zM102 487q0 124 34 225.5t96 174t150.5 112t197.5 39.5q108 0 191 -33.5t139 -93.5t85 -143t29 -182q0 -25 -1.5 -65t-4.5 -75h-668q0 -67 20.5 -118t58 -85.5t90 -52.5t116.5 -18q74 0 158.5 11.5t175.5 37.5v-194q-39 -11 -85 -20t-94 -16t-97 -10.5t-95 -3.5 q-116 0 -208 33t-156 97.5t-98 159.5t-34 220zM227 1151l246 262h184l246 -262h-217l-123 123l-123 -123h-213zM354 621h422q1 60 -15 104.5t-43.5 73.5t-64 43t-78.5 14q-92 0 -151 -61.5t-70 -173.5z" />
<glyph unicode="&#xeb;" d="M0 1016zM102 487q0 124 34 225.5t96 174t150.5 112t197.5 39.5q108 0 191 -33.5t139 -93.5t85 -143t29 -182q0 -25 -1.5 -65t-4.5 -75h-668q0 -67 20.5 -118t58 -85.5t90 -52.5t116.5 -18q74 0 158.5 11.5t175.5 37.5v-194q-39 -11 -85 -20t-94 -16t-97 -10.5t-95 -3.5 q-116 0 -208 33t-156 97.5t-98 159.5t-34 220zM217 1292q0 28 11 53.5t29.5 44t43.5 29.5t53 11t53.5 -11t43.5 -29.5t29 -44t11 -53.5t-11 -53t-29 -43.5t-43.5 -29.5t-53.5 -11t-53 11t-43.5 29.5t-29.5 43.5t-11 53zM354 621h422q1 60 -15 104.5t-43.5 73.5t-64 43 t-78.5 14q-92 0 -151 -61.5t-70 -173.5zM635 1292q0 28 10.5 53.5t29.5 44t43.5 29.5t53.5 11q28 0 53 -11t44 -29.5t29.5 -44t10.5 -53.5t-10.5 -53t-29.5 -43.5t-44 -29.5t-53 -11q-29 0 -53.5 11t-43.5 29.5t-29.5 43.5t-10.5 53z" />
<glyph unicode="&#xec;" d="M20 1016zM112 1413h330l262 -262h-244zM145 0v190h322v636h-287v190h537v-826h293v-190h-865z" />
<glyph unicode="&#xed;" d="M20 1016zM145 0v190h322v636h-287v190h537v-826h293v-190h-865zM460 1151l262 262h330l-348 -262h-244z" />
<glyph unicode="&#xee;" d="M0 1016zM145 0v190h322v636h-287v190h537v-826h293v-190h-865zM227 1151l246 262h184l246 -262h-217l-123 123l-123 -123h-213z" />
<glyph unicode="&#xef;" d="M20 1016zM145 0v190h322v636h-287v190h537v-826h293v-190h-865zM237 1292q0 28 11 53.5t29.5 44t43.5 29.5t53 11t53.5 -11t43.5 -29.5t29 -44t11 -53.5t-11 -53t-29 -43.5t-43.5 -29.5t-53.5 -11t-53 11t-43.5 29.5t-29.5 43.5t-11 53zM655 1292q0 28 10.5 53.5t29.5 44 t43.5 29.5t53.5 11q28 0 53 -11t44 -29.5t29.5 -44t10.5 -53.5t-10.5 -53t-29.5 -43.5t-44 -29.5t-53 -11q-29 0 -53.5 11t-43.5 29.5t-29.5 43.5t-10.5 53z" />
<glyph unicode="&#xf0;" d="M76 485q0 141 39 244.5t106 171t157 100.5t191 33h4q-15 25 -32 48.5t-35 47.5l-297 -63v184l170 35l-113 127h318l59 -70l299 64v-184l-176 -37q74 -100 124 -186.5t81 -167.5t44 -159t13 -161q0 -63 -9 -127t-31 -123.5t-58 -111.5t-90.5 -90.5t-128.5 -60.5t-172 -22 q-119 0 -206.5 33.5t-144.5 98.5t-84.5 159.5t-27.5 216.5zM332 498q0 -163 54 -237.5t167 -74.5q46 0 86 19.5t69.5 58.5t46.5 98t17 138q0 88 -20 166t-58 161q-24 7 -54.5 11t-57.5 4q-56 0 -102 -24t-79 -68.5t-51 -108t-18 -143.5z" />
<glyph unicode="&#xf1;" d="M0 1016zM139 0v1016h211l6 -150q31 39 64.5 71t72.5 54.5t84 34.5t101 12q78 0 136 -25.5t97 -72t58.5 -112t19.5 -146.5v-682h-244v662q0 167 -124 167q-62 0 -118.5 -50t-119.5 -136v-643h-244zM186 1276q42 80 98 118.5t138 38.5q59 0 99.5 -17.5t72 -37.5t58.5 -37.5 t59 -17.5q37 0 65 23.5t55 66.5l109 -108q-42 -81 -98 -119.5t-137 -38.5q-59 0 -99.5 17t-72 38t-58.5 38t-59 17q-37 0 -65 -23t-56 -67z" />
<glyph unicode="&#xf2;" d="M0 1016zM72 502q0 121 34.5 220t99 169t157.5 108.5t210 38.5q114 0 203 -33.5t151 -99.5t94.5 -163.5t32.5 -225.5q0 -120 -34 -219.5t-98 -170.5t-157 -110t-212 -39q-113 0 -202 33t-151 98.5t-95 164t-33 229.5zM92 1413h330l262 -262h-244zM326 508 q0 -159 64 -239.5t175 -80.5q61 0 106 24.5t73 68t42 102.5t14 127q0 158 -59.5 237.5t-175.5 79.5q-64 0 -109 -25t-74 -68.5t-42.5 -101.5t-13.5 -124z" />
<glyph unicode="&#xf3;" d="M0 1016zM72 502q0 121 34.5 220t99 169t157.5 108.5t210 38.5q114 0 203 -33.5t151 -99.5t94.5 -163.5t32.5 -225.5q0 -120 -34 -219.5t-98 -170.5t-157 -110t-212 -39q-113 0 -202 33t-151 98.5t-95 164t-33 229.5zM326 508q0 -159 64 -239.5t175 -80.5q61 0 106 24.5 t73 68t42 102.5t14 127q0 158 -59.5 237.5t-175.5 79.5q-64 0 -109 -25t-74 -68.5t-42.5 -101.5t-13.5 -124zM440 1151l262 262h330l-348 -262h-244z" />
<glyph unicode="&#xf4;" d="M0 1016zM72 502q0 121 34.5 220t99 169t157.5 108.5t210 38.5q114 0 203 -33.5t151 -99.5t94.5 -163.5t32.5 -225.5q0 -120 -34 -219.5t-98 -170.5t-157 -110t-212 -39q-113 0 -202 33t-151 98.5t-95 164t-33 229.5zM227 1151l246 262h184l246 -262h-217l-123 123 l-123 -123h-213zM326 508q0 -159 64 -239.5t175 -80.5q61 0 106 24.5t73 68t42 102.5t14 127q0 158 -59.5 237.5t-175.5 79.5q-64 0 -109 -25t-74 -68.5t-42.5 -101.5t-13.5 -124z" />
<glyph unicode="&#xf5;" d="M0 1016zM72 502q0 121 34.5 220t99 169t157.5 108.5t210 38.5q114 0 203 -33.5t151 -99.5t94.5 -163.5t32.5 -225.5q0 -120 -34 -219.5t-98 -170.5t-157 -110t-212 -39q-113 0 -202 33t-151 98.5t-95 164t-33 229.5zM186 1276q42 80 98 118.5t138 38.5q59 0 99.5 -17.5 t72 -37.5t58.5 -37.5t59 -17.5q37 0 65 23.5t55 66.5l109 -108q-42 -81 -98 -119.5t-137 -38.5q-59 0 -99.5 17t-72 38t-58.5 38t-59 17q-37 0 -65 -23t-56 -67zM326 508q0 -159 64 -239.5t175 -80.5q61 0 106 24.5t73 68t42 102.5t14 127q0 158 -59.5 237.5t-175.5 79.5 q-64 0 -109 -25t-74 -68.5t-42.5 -101.5t-13.5 -124z" />
<glyph unicode="&#xf6;" d="M0 1016zM72 502q0 121 34.5 220t99 169t157.5 108.5t210 38.5q114 0 203 -33.5t151 -99.5t94.5 -163.5t32.5 -225.5q0 -120 -34 -219.5t-98 -170.5t-157 -110t-212 -39q-113 0 -202 33t-151 98.5t-95 164t-33 229.5zM217 1292q0 28 11 53.5t29.5 44t43.5 29.5t53 11 t53.5 -11t43.5 -29.5t29 -44t11 -53.5t-11 -53t-29 -43.5t-43.5 -29.5t-53.5 -11t-53 11t-43.5 29.5t-29.5 43.5t-11 53zM326 508q0 -159 64 -239.5t175 -80.5q61 0 106 24.5t73 68t42 102.5t14 127q0 158 -59.5 237.5t-175.5 79.5q-64 0 -109 -25t-74 -68.5t-42.5 -101.5 t-13.5 -124zM635 1292q0 28 10.5 53.5t29.5 44t43.5 29.5t53.5 11q28 0 53 -11t44 -29.5t29.5 -44t10.5 -53.5t-10.5 -53t-29.5 -43.5t-44 -29.5t-53 -11q-29 0 -53.5 11t-43.5 29.5t-29.5 43.5t-10.5 53z" />
<glyph unicode="&#xf7;" d="M78 444v201h971v-201h-971zM406 158q0 31 11.5 57.5t32 46.5t48.5 31.5t61 11.5t61.5 -11.5t49.5 -31.5t33 -46.5t12 -57.5q0 -32 -12 -60t-33 -48.5t-49.5 -32t-61.5 -11.5t-61 11.5t-48.5 32t-32 48.5t-11.5 60zM406 932q0 32 11.5 59.5t32 48t48.5 32t61 11.5 t61.5 -11.5t49.5 -32t33 -48t12 -59.5q0 -31 -12 -58t-33 -47t-49.5 -31.5t-61.5 -11.5t-61 11.5t-48.5 31.5t-32 47t-11.5 58z" />
<glyph unicode="&#xf8;" d="M72 502q0 114 31.5 212t94 170t155.5 113t216 41q20 0 39 -1t37 -3l70 197h196l-86 -250q110 -59 170 -175.5t60 -289.5q0 -113 -31 -211.5t-93 -171t-155.5 -114.5t-218.5 -42q-20 0 -39.5 1.5t-38.5 3.5l-67 -197h-197l86 248q-111 59 -170 175t-59 294zM313 508 q0 -85 16 -148.5t48 -105.5l201 585h-19q-63 0 -109.5 -26t-77.5 -71.5t-45 -105.5t-14 -128zM547 176h20q61 0 107.5 25.5t77.5 70.5t46.5 106t15.5 132q0 85 -15.5 147.5t-50.5 103.5z" />
<glyph unicode="&#xf9;" d="M0 1016zM92 1413h330l262 -262h-244zM137 334v682h244v-662q0 -83 31 -125.5t94 -42.5q61 0 117.5 50.5t119.5 136.5v643h244v-1016h-211l-6 150q-32 -39 -65 -71t-71.5 -54.5t-84 -35t-100.5 -12.5q-78 0 -136.5 25.5t-97.5 72.5t-58.5 112.5t-19.5 146.5z" />
<glyph unicode="&#xfa;" d="M0 1016zM137 334v682h244v-662q0 -83 31 -125.5t94 -42.5q61 0 117.5 50.5t119.5 136.5v643h244v-1016h-211l-6 150q-32 -39 -65 -71t-71.5 -54.5t-84 -35t-100.5 -12.5q-78 0 -136.5 25.5t-97.5 72.5t-58.5 112.5t-19.5 146.5zM440 1151l262 262h330l-348 -262h-244z " />
<glyph unicode="&#xfb;" d="M0 1016zM137 334v682h244v-662q0 -83 31 -125.5t94 -42.5q61 0 117.5 50.5t119.5 136.5v643h244v-1016h-211l-6 150q-32 -39 -65 -71t-71.5 -54.5t-84 -35t-100.5 -12.5q-78 0 -136.5 25.5t-97.5 72.5t-58.5 112.5t-19.5 146.5zM227 1151l246 262h184l246 -262h-217 l-123 123l-123 -123h-213z" />
<glyph unicode="&#xfc;" d="M0 1016zM137 334v682h244v-662q0 -83 31 -125.5t94 -42.5q61 0 117.5 50.5t119.5 136.5v643h244v-1016h-211l-6 150q-32 -39 -65 -71t-71.5 -54.5t-84 -35t-100.5 -12.5q-78 0 -136.5 25.5t-97.5 72.5t-58.5 112.5t-19.5 146.5zM217 1292q0 28 11 53.5t29.5 44t43.5 29.5 t53 11t53.5 -11t43.5 -29.5t29 -44t11 -53.5t-11 -53t-29 -43.5t-43.5 -29.5t-53.5 -11t-53 11t-43.5 29.5t-29.5 43.5t-11 53zM635 1292q0 28 10.5 53.5t29.5 44t43.5 29.5t53.5 11q28 0 53 -11t44 -29.5t29.5 -44t10.5 -53.5t-10.5 -53t-29.5 -43.5t-44 -29.5t-53 -11 q-29 0 -53.5 11t-43.5 29.5t-29.5 43.5t-10.5 53z" />
<glyph unicode="&#xfd;" d="M0 1016zM23 1016h272l211 -576l63 -186l62 178l213 584h262l-356 -905q-53 -132 -110.5 -231.5t-126.5 -166t-153.5 -100t-189.5 -33.5q-25 0 -54.5 2.5t-60.5 7.5v207q12 -2 27.5 -4.5t32.5 -4t34.5 -2.5t32.5 -1q42 0 78 16t66.5 44.5t55.5 68t44 86.5zM440 1151 l262 262h330l-348 -262h-244z" />
<glyph unicode="&#xfe;" d="M139 -397v1810h244v-332l-10 -200q55 71 128.5 114t176.5 43q90 0 160 -36t117.5 -102.5t72.5 -161t25 -212.5q0 -140 -39.5 -242t-110 -169.5t-166.5 -100t-209 -32.5q-38 0 -76 5t-69 13v-397h-244zM383 199q29 -11 71.5 -18t86.5 -7q58 0 105.5 24t81 68t51.5 107.5 t18 142.5q0 84 -12 143t-34.5 97t-55 55.5t-74.5 17.5q-62 0 -118.5 -50t-119.5 -136v-444z" />
<glyph unicode="&#xff;" d="M0 1016zM23 1016h272l211 -576l63 -186l62 178l213 584h262l-356 -905q-53 -132 -110.5 -231.5t-126.5 -166t-153.5 -100t-189.5 -33.5q-25 0 -54.5 2.5t-60.5 7.5v207q12 -2 27.5 -4.5t32.5 -4t34.5 -2.5t32.5 -1q42 0 78 16t66.5 44.5t55.5 68t44 86.5zM217 1292 q0 28 11 53.5t29.5 44t43.5 29.5t53 11t53.5 -11t43.5 -29.5t29 -44t11 -53.5t-11 -53t-29 -43.5t-43.5 -29.5t-53.5 -11t-53 11t-43.5 29.5t-29.5 43.5t-11 53zM635 1292q0 28 10.5 53.5t29.5 44t43.5 29.5t53.5 11q28 0 53 -11t44 -29.5t29.5 -44t10.5 -53.5t-10.5 -53 t-29.5 -43.5t-44 -29.5t-53 -11q-29 0 -53.5 11t-43.5 29.5t-29.5 43.5t-10.5 53z" />
<glyph unicode="&#x152;" d="M27 651q0 177 36.5 304t101.5 209.5t153.5 121.5t193.5 39q41 0 70.5 -3t54.5 -6t48.5 -6t51.5 -3h363v-197h-289v-340h266v-190h-266v-383h289v-197h-355q-38 0 -67 -3t-56.5 -6t-56 -6t-63.5 -3q-126 0 -216 43t-147.5 128t-84.5 209.5t-27 288.5zM276 655 q0 -111 12.5 -197.5t41 -145.5t74 -90t110.5 -31q26 0 41.5 3t26.5 8v906q-14 5 -29.5 6.5t-44.5 1.5q-62 0 -105.5 -33.5t-72 -94t-41.5 -145.5t-13 -188z" />
<glyph unicode="&#x153;" d="M29 498q0 120 19 219.5t58.5 171t100 110.5t143.5 39q78 0 138 -37.5t92 -117.5q32 74 89 114.5t132 40.5q78 0 134.5 -32.5t92.5 -92.5t53 -143.5t17 -185.5q0 -12 -0.5 -29t-1 -35l-1 -36t-1.5 -31h-424q0 -71 13 -127t36 -95.5t56 -60.5t73 -21q46 0 101.5 11.5 t111.5 34.5v-172q-53 -22 -118.5 -34t-127.5 -12q-41 0 -79.5 10t-71.5 29.5t-58.5 49.5t-40.5 71q-13 -35 -36 -64.5t-53 -50.5t-66 -33t-76 -12q-79 0 -136.5 28.5t-95 90.5t-55.5 161.5t-18 240.5zM225 508q0 -99 7 -167.5t21.5 -111t37.5 -61.5t55 -19q28 0 50 19.5 t37.5 63t23.5 112t8 166.5q0 97 -7 165t-21.5 110.5t-37 61.5t-53.5 19q-29 0 -51 -20t-38 -63t-24 -111t-8 -164zM670 608h233q0 137 -28 197.5t-78 60.5q-59 0 -90 -66.5t-37 -191.5z" />
<glyph unicode="&#x178;" d="M0 1307zM10 1307h273l192 -404l88 -198l88 204l201 398h262l-429 -844v-463h-250v461zM205 1552q0 28 10.5 53.5t29.5 44t43.5 29.5t53.5 11q28 0 53 -11t44 -29.5t29.5 -44t10.5 -53.5t-10.5 -53t-29.5 -43.5t-44 -29.5t-53 -11q-29 0 -53.5 11t-43.5 29.5t-29.5 43.5 t-10.5 53zM647 1552q0 28 11 53.5t29.5 44t43.5 29.5t53 11t53.5 -11t43.5 -29.5t29 -44t11 -53.5t-11 -53t-29 -43.5t-43.5 -29.5t-53.5 -11t-53 11t-43.5 29.5t-29.5 43.5t-11 53z" />
<glyph unicode="&#x2c6;" d="M0 1016zM227 1151l246 262h184l246 -262h-217l-123 123l-123 -123h-213z" />
<glyph unicode="&#x2dc;" d="M0 1016zM186 1276q42 80 98 118.5t138 38.5q59 0 99.5 -17.5t72 -37.5t58.5 -37.5t59 -17.5q37 0 65 23.5t55 66.5l109 -108q-42 -81 -98 -119.5t-137 -38.5q-59 0 -99.5 17t-72 38t-58.5 38t-59 17q-37 0 -65 -23t-56 -67z" />
<glyph unicode="&#x2000;" horiz-adv-x="870" />
<glyph unicode="&#x2001;" horiz-adv-x="1741" />
<glyph unicode="&#x2002;" horiz-adv-x="870" />
<glyph unicode="&#x2003;" horiz-adv-x="1741" />
<glyph unicode="&#x2004;" horiz-adv-x="580" />
<glyph unicode="&#x2005;" horiz-adv-x="435" />
<glyph unicode="&#x2006;" horiz-adv-x="290" />
<glyph unicode="&#x2007;" horiz-adv-x="290" />
<glyph unicode="&#x2008;" horiz-adv-x="217" />
<glyph unicode="&#x2009;" horiz-adv-x="348" />
<glyph unicode="&#x200a;" horiz-adv-x="96" />
<glyph unicode="&#x2010;" d="M252 436v217h622v-217h-622z" />
<glyph unicode="&#x2011;" d="M252 436v217h622v-217h-622z" />
<glyph unicode="&#x2012;" d="M252 436v217h622v-217h-622z" />
<glyph unicode="&#x2013;" d="M133 438v213h860v-213h-860z" />
<glyph unicode="&#x2014;" d="M-4 438v213h1134v-213h-1134z" />
<glyph unicode="&#x2018;" d="M373 981q0 93 34 175t101.5 143.5t169 97t237.5 35.5v-160q-60 1 -111.5 -7.5t-90 -27.5t-60.5 -49t-22 -72q0 -29 8.5 -49.5t21 -37t27.5 -32t27.5 -33t21 -40t8.5 -54.5q0 -31 -11 -60t-31.5 -52t-51 -37t-69.5 -14q-49 0 -88 22.5t-66 60.5t-41 87.5t-14 103.5z" />
<glyph unicode="&#x2019;" d="M211 707v159q60 -2 112 7t90.5 28t60.5 49t22 72q0 29 -8.5 49.5t-21.5 37t-27.5 32t-27.5 33t-21.5 40t-8.5 54.5q0 31 11 60.5t32 52.5t51.5 37t69.5 14q49 0 88 -23t66 -61t41 -87.5t14 -103.5q0 -93 -34 -175t-102 -143t-169.5 -96.5t-237.5 -35.5z" />
<glyph unicode="&#x201a;" d="M211 -193q60 -2 112 7t90.5 28.5t60.5 49.5t22 71q0 29 -8.5 49.5t-21.5 37t-27.5 32t-27.5 33t-21.5 40t-8.5 54.5q0 31 11 60.5t32 52.5t51.5 37t69.5 14q49 0 88 -22.5t66 -61t41 -88t14 -103.5q0 -93 -34 -175t-102 -143t-169.5 -96.5t-237.5 -35.5v159z" />
<glyph unicode="&#x201c;" d="M82 1049q0 83 29 153t87 121t145 80t204 29v-154q-105 3 -161 -23.5t-56 -89.5q0 -35 14 -56t31 -40.5t31 -43.5t14 -64q0 -29 -10.5 -56t-30 -48t-48 -33.5t-63.5 -12.5q-44 0 -78.5 19t-58.5 51.5t-36.5 76t-12.5 91.5zM606 1049q0 83 29 153t87 121t145 80t204 29 v-154q-105 3 -161 -23.5t-56 -89.5q0 -35 14 -56t31 -40.5t31 -43.5t14 -64q0 -29 -10.5 -56t-30 -48t-47.5 -33.5t-63 -12.5q-45 0 -79.5 19t-58.5 51.5t-36.5 76t-12.5 91.5z" />
<glyph unicode="&#x201d;" d="M55 811v154q106 -3 161.5 23t55.5 89q0 35 -14 56.5t-31 41t-31 43t-14 64.5q0 29 10.5 56t30 48t48 33.5t63.5 12.5q45 0 79.5 -19t58 -51.5t36 -76t12.5 -91.5q0 -83 -29 -153t-86.5 -121t-145 -80t-204.5 -29zM580 811v154q105 -3 161 23t56 89q0 35 -14 56.5t-31 41 t-31 43t-14 64.5q0 29 10.5 56t30 48t47.5 33.5t63 12.5q45 0 79.5 -19t58 -51.5t36 -76t12.5 -91.5q0 -83 -29 -153t-86.5 -121t-144.5 -80t-204 -29z" />
<glyph unicode="&#x201e;" d="M55 -154q106 -3 161.5 23.5t55.5 89.5q0 35 -14 56t-31 40.5t-31 43.5t-14 65q0 29 10.5 56t30 47.5t48 33t63.5 12.5q45 0 79.5 -19t58 -51t36 -75.5t12.5 -91.5q0 -83 -29 -153t-86.5 -121t-145 -80t-204.5 -29v153zM580 -154q105 -3 161 23.5t56 89.5q0 35 -14 56 t-31 40.5t-31 43.5t-14 65q0 29 10.5 56t30 47.5t47.5 33t63 12.5q45 0 79.5 -19t58 -51t36 -75.5t12.5 -91.5q0 -83 -29 -153t-86.5 -121t-144.5 -80t-204 -29v153z" />
<glyph unicode="&#x2022;" d="M201 555q0 75 28.5 141.5t77.5 115.5t115 77.5t141 28.5t141.5 -28.5t115.5 -77.5t77.5 -115.5t28.5 -141.5t-28.5 -141t-77.5 -115t-115.5 -77.5t-141.5 -28.5t-141 28.5t-115 77.5t-77.5 115t-28.5 141z" />
<glyph unicode="&#x2026;" d="M35 129q0 30 11.5 56.5t31 47t45.5 32t55 11.5q31 0 58 -11.5t47.5 -32t32.5 -47t12 -56.5q0 -32 -12 -59.5t-32.5 -48t-47.5 -32.5t-58 -12q-29 0 -55 12t-45.5 32.5t-31 48t-11.5 59.5zM420 129q0 30 11.5 56.5t31 47t45.5 32t55 11.5q31 0 58 -11.5t47.5 -32t32.5 -47 t12 -56.5q0 -32 -12 -59.5t-32.5 -48t-47.5 -32.5t-58 -12q-29 0 -55 12t-45.5 32.5t-31 48t-11.5 59.5zM805 129q0 30 11.5 56.5t31 47t45.5 32t55 11.5q31 0 58 -11.5t47.5 -32t32.5 -47t12 -56.5q0 -32 -12 -59.5t-32.5 -48t-47.5 -32.5t-58 -12q-29 0 -55 12t-45.5 32.5 t-31 48t-11.5 59.5z" />
<glyph unicode="&#x202f;" horiz-adv-x="348" />
<glyph unicode="&#x2039;" d="M260 545l387 470l165 -116l-299 -354l299 -354l-167 -116z" />
<glyph unicode="&#x203a;" d="M314 191l299 354l-299 354l166 115l386 -469l-387 -470z" />
<glyph unicode="&#x205f;" horiz-adv-x="435" />
<glyph unicode="&#x20ac;" d="M43 412v154h119q-2 19 -2 34.5v32.5q0 23 1 47t3 49h-121v154h147q26 105 75.5 188t118 140t154.5 87.5t187 30.5q43 0 81 -2t74 -7.5t71.5 -14.5t74.5 -23v-240q-78 38 -150.5 54t-132.5 16q-111 0 -182.5 -61.5t-105.5 -167.5h362v-154h-395q-2 -20 -2 -38.5v-37.5v-41 t2 -46h395v-154h-362q34 -107 105 -162.5t185 -55.5q31 0 67.5 5.5t73.5 15.5t73 23.5t67 28.5v-222q-80 -35 -157 -51.5t-160 -16.5q-215 0 -349.5 110t-179.5 325h-137z" />
<glyph unicode="&#x2122;" d="M14 1171v136h402v-136h-119v-393h-162v393h-121zM430 778l76 529h188l62 -238l16 -78l12 74l62 242h190l80 -529h-164l-30 240l-11 86l-16 -80l-59 -246h-148l-61 252l-13 74l-6 -68l-30 -258h-148z" />
<glyph unicode="&#x25fc;" horiz-adv-x="1014" d="M0 0v1015h1015v-1015h-1015z" />
<glyph unicode="&#xfb01;" d="M0 1016zM33 723v190h157v107q0 110 33.5 188t96.5 128t153.5 73t204.5 23q33 0 68.5 -2.5t70.5 -7.5t68 -11.5t61 -13.5v-197q-25 9 -57 16t-66.5 12t-70 8t-66.5 3q-57 0 -104 -11.5t-80.5 -37.5t-52.5 -67t-19 -99v-111h549v-913h-240v723h-309v-723h-240v723h-157z " />
<glyph unicode="&#xfb02;" d="M0 1016zM33 723v190h157v107q0 110 33.5 188t94.5 128t147.5 73t193.5 23q81 0 160 -8.5t160 -26.5v-1397h-240v1233q-14 3 -37 4.5t-45 1.5q-118 0 -172.5 -50.5t-54.5 -164.5v-111h182v-190h-182v-723h-240v723h-157z" />
</font>
</defs>
</svg>
