<?xml version="1.0" standalone="no"?>
<!DOCTYPE svg PUBLIC "-//W3C//DTD SVG 1.1//EN" "http://www.w3.org/Graphics/SVG/1.1/DTD/svg11.dtd" >
<svg xmlns="http://www.w3.org/2000/svg">
<metadata></metadata>
<defs>
<font id="consolasbold_italic" horiz-adv-x="1126" >
<font-face units-per-em="2048" ascent="1521" descent="-527" />
<missing-glyph horiz-adv-x="500" />
<glyph />
<glyph />
<glyph unicode="&#xd;" horiz-adv-x="0" />
<glyph unicode=" " />
<glyph unicode="!" d="M326 129q0 37 14.5 67.5t38.5 53t55.5 35t65.5 12.5t62 -12t48 -33t31.5 -48.5t11.5 -58.5q0 -37 -15 -67.5t-39.5 -53t-56 -35t-65.5 -12.5t-61.5 12t-47.5 33t-31 48.5t-11 58.5zM436 406l166 1007h283l-240 -1007h-209z" />
<glyph unicode="&#x22;" d="M340 915l68 498h262l-133 -498h-197zM750 915l67 498h262l-133 -498h-196z" />
<glyph unicode="#" d="M7 340l36 183h194l87 287h-170l36 183h188l95 314h196l-95 -314h231l95 314h196l-95 -314h178l-36 -183h-196l-87 -287h172l-36 -183h-191l-102 -340h-196l104 340h-233l-102 -340h-196l103 340h-176zM433 523h231l87 287h-231z" />
<glyph unicode="$" d="M-4 53l47 219q66 -23 140 -37t149 -22l129 377q-73 31 -126.5 64.5t-88 74t-51.5 89.5t-17 110q0 75 34.5 142t102.5 118t167.5 82.5t230.5 34.5l71 204h177l-72 -213q51 -5 101 -13t93 -19l-43 -201q-51 14 -108.5 21.5t-114.5 13.5l-117 -340q81 -34 139.5 -67 t96.5 -72t56 -85.5t18 -107.5q0 -101 -46 -179t-124 -132t-182.5 -82.5t-221.5 -30.5l-88 -250h-176l88 252q-69 6 -135 17.5t-129 31.5zM440 946q0 -37 23.5 -69.5t83.5 -57.5l94 281q-97 -10 -149 -49.5t-52 -104.5zM508 211q111 12 171 58.5t60 127.5q0 17 -5 34.5 t-18.5 35t-37.5 33t-62 28.5z" />
<glyph unicode="%" d="M-107 0l1210 1413h209l-1211 -1413h-208zM147 1047q0 28 6 68t20.5 82.5t39 84.5t61 75.5t86.5 54t117 20.5q106 0 167 -58t61 -168q0 -28 -6 -68t-20.5 -82.5t-39 -84.5t-61 -75.5t-87 -54t-116.5 -20.5q-107 0 -167.5 58t-60.5 168zM326 1059q0 -86 69 -86 q28 0 49 13.5t35.5 34.5t23.5 47t14 50.5t7 45t2 30.5q0 86 -69 86q-28 0 -49 -13.5t-35.5 -34.5t-23.5 -47t-14 -50.5t-7 -45t-2 -30.5zM500 207q0 29 6 68.5t20.5 82.5t38.5 85t60.5 75t86.5 53.5t117 20.5q107 0 167.5 -58t60.5 -167q0 -29 -6 -68.5t-20.5 -82.5t-39 -85 t-61 -75t-87 -53.5t-116.5 -20.5q-106 0 -166.5 57.5t-60.5 167.5zM678 219q0 -86 70 -86q28 0 48.5 13.5t35 34.5t24 47t14.5 50.5t7 45t2 30.5q0 86 -70 86q-28 0 -49 -13.5t-35.5 -34.5t-23.5 -47t-14 -50.5t-7 -45t-2 -30.5z" />
<glyph unicode="&#x26;" d="M-10 299q0 82 27 148t72 119.5t104 97t124 81.5l-10 19q-35 57 -53 117t-18 112q0 90 32.5 165.5t90 130.5t136.5 85.5t171 30.5q87 0 148.5 -24t101.5 -62.5t58.5 -87t18.5 -98.5q0 -83 -32.5 -146t-85.5 -113t-120.5 -91t-138.5 -78l160 -261q25 51 44.5 110t31.5 128 h225q-26 -128 -72.5 -235.5t-109.5 -194.5l158 -252h-275l-53 84q-75 -53 -161.5 -80t-182.5 -27q-103 0 -177 25t-121.5 68.5t-70 102t-22.5 126.5zM238 322q0 -67 40 -107.5t125 -40.5q121 0 222 76l-211 340q-39 -26 -71 -54.5t-55.5 -61.5t-36.5 -70.5t-13 -81.5z M467 1022q0 -28 10.5 -69t44.5 -97q49 27 92 54.5t75 57.5t50.5 64.5t18.5 75.5q0 53 -28.5 81t-84.5 28q-35 0 -67 -13.5t-56.5 -39t-39.5 -61.5t-15 -81z" />
<glyph unicode="'" d="M539 915l67 498h275l-133 -498h-209z" />
<glyph unicode="(" d="M254 326q0 131 35.5 278t117.5 298.5t215 301.5t328 287l121 -150q-172 -131 -283.5 -266t-176 -264.5t-90 -249.5t-25.5 -221q0 -86 18 -170.5t51 -164.5t79 -153t101 -135l-165 -137q-156 161 -241 349t-85 397z" />
<glyph unicode=")" d="M68 -270q172 131 283 266t176 264.5t90.5 249.5t25.5 221q0 86 -18.5 171t-51.5 164.5t-79 152.5t-101 135l166 137q156 -161 241 -349t85 -397q0 -131 -35.5 -278t-117.5 -298.5t-215.5 -301.5t-328.5 -287z" />
<glyph unicode="*" d="M227 1110l103 174l252 -180l-29 309h209l-29 -309l252 180l98 -174l-272 -129l274 -129l-102 -174l-250 180l27 -309h-209l31 309l-254 -180l-99 174l287 129z" />
<glyph unicode="+" d="M64 444l41 201h373l77 387h225l-77 -387h373l-41 -201h-373l-77 -389h-225l77 389h-373z" />
<glyph unicode="," d="M55 -193q77 -2 138.5 14t105 42.5t67 60t23.5 68.5q0 26 -11 46.5t-24 41.5t-24 46.5t-11 61.5q0 39 13 72.5t36.5 58.5t57 39.5t74.5 14.5q44 0 77.5 -15.5t56 -43.5t33.5 -66.5t11 -83.5q0 -118 -49.5 -213t-134.5 -162.5t-198.5 -104t-240.5 -36.5v159z" />
<glyph unicode="-" d="M236 436l45 217h622l-45 -217h-622z" />
<glyph unicode="&#xad;" d="M236 436l45 217h622l-45 -217h-622z" />
<glyph unicode="." d="M297 162q0 45 16.5 82.5t44 65.5t64 43.5t76.5 15.5q41 0 75.5 -15.5t59.5 -41t39 -59.5t14 -71q0 -44 -16.5 -81t-44.5 -65t-65 -43.5t-79 -15.5q-40 0 -73.5 15.5t-58 41t-38.5 59t-14 69.5z" />
<glyph unicode="/" d="M-82 -215l1026 1628h250l-1026 -1628h-250z" />
<glyph unicode="0" d="M61 432q0 81 13.5 179.5t44.5 198t81.5 193t124.5 166t173.5 116.5t228.5 44q88 0 161.5 -27.5t125.5 -84t81 -142t29 -201.5q0 -81 -13.5 -179t-44.5 -198t-81 -193.5t-124 -166t-173.5 -116.5t-228.5 -44q-89 0 -162 27.5t-125.5 84t-81.5 142t-29 201.5zM313 360 q13 -94 59 -139t124 -45q52 0 97 21.5t82.5 59.5t68 89t54 110t40 123.5t26.5 129.5zM322 598l550 348q-12 93 -58 138.5t-124 45.5t-140.5 -47t-108.5 -123t-76 -171t-43 -191z" />
<glyph unicode="1" d="M49 0l43 217h334l168 840l-324 -160l-51 199l459 219h217l-219 -1098h287l-43 -217h-871z" />
<glyph unicode="2" d="M27 0l36 190l371 310q110 91 179.5 159t109 122t54 99.5t14.5 92.5q0 60 -35 99.5t-109 39.5q-77 0 -147 -33.5t-142 -89.5l-122 166q100 79 212 126.5t240 47.5q84 0 152.5 -21t117.5 -61.5t76 -99.5t27 -135q0 -72 -20 -140t-68.5 -140t-129.5 -151.5t-202 -174.5 l-225 -181h542l-45 -225h-886z" />
<glyph unicode="3" d="M37 0l41 211q60 -12 135 -19t160 -7q94 0 163 18t114 51t67 78.5t22 99.5q0 29 -12.5 56t-44 48t-85 33.5t-136.5 12.5h-152l39 186h109q78 0 139.5 16t105 46.5t66.5 75t23 100.5q0 24 -7.5 45t-28 37.5t-55 26t-88.5 9.5q-78 0 -150 -13t-157 -38v201q95 29 179.5 42 t174.5 13q95 0 168.5 -21t123 -58.5t75 -89t25.5 -113.5q0 -59 -17 -114t-51 -102.5t-85 -85t-120 -59.5q105 -17 163 -81.5t58 -158.5q0 -42 -10 -92.5t-36.5 -102.5t-74 -100.5t-122 -86.5t-180 -61t-248.5 -23q-34 0 -73.5 1.5t-79 4t-75.5 6t-63 8.5z" />
<glyph unicode="4" d="M-10 266l41 215l665 826h348l-165 -826h198l-43 -215h-198l-54 -266h-237l53 266h-608zM281 481h366l117 590z" />
<glyph unicode="5" d="M53 4l43 213q54 -14 124.5 -22.5t148.5 -8.5q94 0 162.5 22.5t112 60t64.5 85.5t21 99q0 34 -12 63.5t-42.5 50.5t-83.5 33t-134 12h-256l139 695h754l-47 -230h-527l-53 -266h72q102 0 185.5 -18t142.5 -56.5t91.5 -97.5t32.5 -141q0 -111 -41 -205.5t-123 -164 t-205.5 -109t-287.5 -39.5q-31 0 -68 2t-75.5 5t-74 7.5t-63.5 9.5z" />
<glyph unicode="6" d="M90 383q0 44 6 101.5t18.5 121.5t33 132.5t50 135t68 127.5t88.5 111q45 45 103 81t131.5 61.5t162.5 39t195 13.5h154l-43 -207h-174q-111 0 -189.5 -24t-132.5 -66.5t-87 -100.5t-54 -127l-6 -24q57 25 118 41t134 16q91 0 160 -23t115 -64.5t69.5 -100t23.5 -129.5 q0 -105 -37 -199.5t-108 -166t-174.5 -113.5t-237.5 -42q-189 0 -288 102.5t-99 303.5zM344 379q0 -106 43.5 -151.5t128.5 -45.5q66 0 115 26t82 66.5t49 90.5t16 98q0 34 -9.5 61.5t-30.5 47t-53.5 30t-78.5 10.5q-32 0 -65 -5.5t-64.5 -14.5t-60 -20t-51.5 -23 q-10 -51 -15.5 -93t-5.5 -77z" />
<glyph unicode="7" d="M106 0l734 1071h-623l49 236h908l-48 -236l-729 -1071h-291z" />
<glyph unicode="8" d="M59 260q0 74 26 136t70.5 113.5t102.5 93t123 73.5q-33 22 -63 47.5t-52.5 58t-35.5 72t-13 90.5q0 38 11 81.5t35.5 86t63.5 82t94.5 69.5t129 48t166.5 18q90 0 161.5 -19t120.5 -54t75 -85.5t26 -113.5q0 -65 -23.5 -120.5t-63 -102t-92.5 -85t-112 -69.5 q37 -23 70.5 -51.5t59 -64t41 -78t15.5 -93.5q0 -78 -32 -153t-98 -133.5t-166 -94t-236 -35.5q-97 0 -172 19.5t-126.5 56.5t-78.5 89.5t-27 117.5zM305 295q0 -26 11.5 -49t34.5 -40t59 -26.5t84 -9.5q60 0 106.5 14.5t78 40t48 61t16.5 76.5q0 31 -10.5 58t-32.5 51 t-54.5 47t-76.5 47q-130 -65 -197 -128.5t-67 -141.5zM461 969q0 -51 37.5 -95t122.5 -88q55 28 99.5 55.5t75.5 57.5t47.5 63.5t16.5 73.5q0 22 -9 41t-29.5 33t-53 22.5t-80.5 8.5q-62 0 -105.5 -15t-70.5 -39.5t-39 -55.5t-12 -62z" />
<glyph unicode="9" d="M47 0l41 209h178q118 0 200.5 20.5t139 60t92 98.5t58.5 136l6 25q-57 -25 -120 -41t-132 -16q-88 0 -156.5 21.5t-116 62t-72 99t-24.5 132.5q0 112 40 207.5t112.5 165.5t175.5 109.5t229 39.5q85 0 156.5 -22.5t122.5 -71.5t79.5 -125.5t28.5 -185.5 q0 -89 -14.5 -188.5t-45 -196t-79 -185.5t-117.5 -157q-97 -97 -255 -147t-381 -50h-146zM397 838q0 -29 8.5 -55t28.5 -45.5t53 -31.5t82 -12q27 0 59.5 5t65 14t63 20.5t54.5 24.5q9 49 14.5 91t5.5 79q0 97 -39.5 146.5t-132.5 49.5q-63 0 -111.5 -24t-82 -64t-51 -91.5 t-17.5 -106.5z" />
<glyph unicode=":" d="M311 150q0 40 15.5 74.5t41.5 60t60 39.5t72 14q37 0 69 -14t54 -37.5t35 -55t13 -65.5q0 -41 -15 -75.5t-40 -60t-59 -39.5t-72 -14t-69.5 14t-55 37.5t-36.5 55t-13 66.5zM451 838q0 40 15.5 74.5t41 60t59.5 39.5t72 14q37 0 69 -14t54.5 -37.5t35.5 -55t13 -65.5 q0 -41 -15 -75.5t-40.5 -59.5t-59.5 -39t-71 -14q-38 0 -70 14t-55 37.5t-36 54.5t-13 66z" />
<glyph unicode=";" d="M68 -193q76 -2 138 14t105 42.5t66.5 60t23.5 68.5q0 26 -11 46.5t-23.5 41.5t-23.5 46.5t-11 61.5q0 39 13 72.5t36.5 58.5t56.5 39.5t74 14.5q45 0 78 -15.5t55.5 -43.5t33.5 -66.5t11 -83.5q0 -118 -49.5 -213t-134 -162.5t-198 -104t-240.5 -36.5v159zM451 838 q0 40 15.5 74.5t41 60t59.5 39.5t72 14q37 0 69 -14t54.5 -37.5t35.5 -55t13 -65.5q0 -41 -15 -75.5t-40.5 -59.5t-59.5 -39t-71 -14q-38 0 -70 14t-55 37.5t-36 54.5t-13 66z" />
<glyph unicode="&#x3c;" d="M109 555l774 557l137 -170l-578 -405l414 -414l-176 -146z" />
<glyph unicode="=" d="M81 252l39 194h860l-39 -194h-860zM160 646l39 194h860l-39 -194h-860z" />
<glyph unicode="&#x3e;" d="M119 145l577 408l-413 412l176 147l571 -577l-778 -558z" />
<glyph unicode="?" d="M250 129q0 37 14.5 67.5t38.5 53t55.5 35t65.5 12.5t62 -12t48.5 -33t32 -48.5t11.5 -58.5q0 -37 -15 -67.5t-39.5 -53t-56.5 -35t-66 -12.5t-61.5 12t-47.5 33t-31 48.5t-11 58.5zM360 406l58 376h135q69 0 115 19.5t73 50.5t38.5 69t11.5 76q0 33 -14.5 66.5t-49.5 61 t-93.5 44.5t-146.5 17h-73l47 227h51q159 0 264.5 -36t168 -92t88.5 -125t26 -136q0 -79 -27 -154t-82 -134.5t-138 -98t-194 -43.5l-49 -188h-209z" />
<glyph unicode="@" d="M-41 74q0 104 15 217.5t44 228.5t71.5 228t97 214.5t120.5 188.5t143 150t163.5 99t181.5 36q94 0 166 -34t121 -96.5t73.5 -150t24.5 -194.5q0 -53 -6 -120.5t-18.5 -141.5t-31.5 -151.5t-45 -150t-59 -136t-74 -111.5t-89.5 -75.5t-104.5 -27.5q-39 0 -66.5 10.5 t-45 28t-26.5 41.5t-12 51q-17 -32 -39.5 -56.5t-48 -41t-52 -25t-50.5 -8.5q-76 0 -117 48.5t-41 162.5q0 26 4 70t14 97.5t25.5 113t38.5 117.5t54 111t71.5 93t90.5 64t112 24q34 0 65 -7.5t49 -16.5l158 32l-150 -546q-16 -59 -23.5 -95t-8 -55.5t4.5 -26t13 -6.5 q24 0 49.5 37t49.5 98t45.5 138t37.5 157.5t25.5 156.5t9.5 134q0 153 -52 233.5t-165 80.5q-64 0 -125 -31.5t-116.5 -87t-105.5 -131t-92.5 -163t-76 -184t-57.5 -193t-36.5 -190t-12.5 -176.5q0 -173 59 -262.5t188 -89.5q87 0 170.5 22.5t169.5 67.5v-180 q-83 -40 -177.5 -62t-178.5 -22q-101 0 -179.5 30t-132.5 91.5t-82 154.5t-28 218zM453 270q0 -24 5 -31.5t13 -7.5q11 0 26.5 13t36 51.5t46 108.5t55.5 184l45 166q-3 5 -16 8.5t-25 3.5q-29 0 -54.5 -31t-46 -79.5t-36.5 -107t-27 -113.5t-16.5 -100t-5.5 -65z" />
<glyph unicode="A" d="M-98 0l649 1307h344l125 -1307h-260l-21 258h-456l-125 -258h-256zM381 459h342l-47 608z" />
<glyph unicode="B" d="M27 0l262 1307h409q111 0 187 -20t123.5 -54.5t68.5 -82t21 -101.5q0 -64 -19.5 -122t-54 -106t-81.5 -83.5t-103 -53.5q45 -8 80.5 -29t60 -52t37 -69t12.5 -79q0 -38 -8 -86.5t-31.5 -99t-64.5 -99t-107.5 -86.5t-161.5 -61t-225 -23h-405zM309 201h160q81 0 137 21 t91 54.5t51 76t16 85.5q0 28 -10 53t-34.5 44.5t-67 31t-107.5 11.5h-160zM424 766h137q68 0 119.5 19.5t85.5 51.5t51 72.5t17 81.5q0 22 -7 44t-27.5 39t-57 27.5t-95.5 10.5h-155z" />
<glyph unicode="C" d="M90 455q0 35 5 91t19.5 124t39 143t63.5 147.5t94.5 138.5t130 116.5t171 80t218.5 29.5q90 0 172.5 -12.5t153.5 -34.5l-47 -227q-62 23 -135.5 40t-151.5 17q-96 0 -167.5 -36t-123 -92.5t-85.5 -127.5t-53.5 -141t-27.5 -132.5t-8 -101.5q0 -44 7.5 -92t35.5 -88.5 t82 -67t146 -26.5q33 0 71.5 5.5t78 15t79.5 22.5t76 28v-221q-94 -35 -180 -53t-174 -18q-141 0 -235 40t-150.5 106.5t-80.5 151.5t-24 175z" />
<glyph unicode="D" d="M-16 0l262 1307h375q248 0 374.5 -111.5t126.5 -335.5q0 -41 -4.5 -100t-18 -127.5t-38 -142t-65.5 -143.5t-99.5 -133t-140 -110.5t-188 -75.5t-242.5 -28h-342zM270 206h103q105 0 182 33.5t130.5 87.5t87.5 123t52.5 139t25.5 136t7 114q0 63 -15 112t-48 82t-86 50.5 t-129 17.5h-131z" />
<glyph unicode="E" d="M82 0l262 1307h786l-43 -208h-536l-66 -325h512l-39 -203h-512l-73 -363h536l-41 -208h-786z" />
<glyph unicode="F" d="M82 0l262 1307h772l-43 -209h-522l-72 -361h494l-41 -202h-494l-106 -535h-250z" />
<glyph unicode="G" d="M55 459q0 77 14.5 171.5t49.5 191.5t93 188t144.5 162t205 114t274.5 43q89 0 178 -16.5t168 -42.5l-47 -227q-66 25 -149.5 45.5t-174.5 20.5t-163.5 -30.5t-128 -81t-94.5 -116t-64 -137t-36.5 -144t-11.5 -135.5q0 -65 15.5 -114.5t49 -84t86 -52t126.5 -17.5 q46 0 77.5 5.5t63.5 16.5l68 334h-221l40 203h465l-141 -697q-97 -41 -192.5 -61.5t-210.5 -20.5q-114 0 -203.5 32t-152 93.5t-95.5 151t-33 205.5z" />
<glyph unicode="H" d="M-6 0l262 1307h246l-107 -525h445l106 525h246l-262 -1307h-246l113 569h-445l-112 -569h-246z" />
<glyph unicode="I" d="M47 0l39 202h290l182 903h-290l41 202h828l-41 -202h-289l-181 -903h287l-39 -202h-827z" />
<glyph unicode="J" d="M41 109l137 174q18 -19 40 -36.5t48.5 -31t57.5 -21.5t69 -8q33 0 70.5 12.5t72.5 41t61.5 76t41.5 118.5l135 670h-473l41 203h721l-186 -936q-17 -83 -59 -154.5t-105 -124t-147.5 -82.5t-190.5 -30q-50 0 -98 9t-91 25.5t-80 40.5t-65 54z" />
<glyph unicode="K" d="M25 0l262 1307h252l-117 -584l502 584h313l-582 -633l324 -674h-309l-267 633l-127 -633h-251z" />
<glyph unicode="L" d="M95 0l261 1307h250l-219 -1096h551l-41 -211h-802z" />
<glyph unicode="M" d="M-57 0l325 1307h267l38 -371l15 -209l94 197l199 383h295l-197 -1307h-217l123 739l51 295l-105 -200l-233 -445h-154l-43 445l-14 200l-63 -289l-172 -745h-209z" />
<glyph unicode="N" d="M-2 0l262 1307h289l199 -785l32 -153l115 577l74 361h225l-262 -1307h-289l-194 780l-39 168l-109 -542l-80 -406h-223z" />
<glyph unicode="O" d="M41 418q0 100 17 206t52 207.5t89 192t129 158t171.5 107.5t215.5 40q205 0 314.5 -112.5t109.5 -327.5q0 -100 -17 -206.5t-52 -208t-89 -191.5t-129 -158t-171.5 -108t-215.5 -40q-205 0 -314.5 113t-109.5 328zM299 438q0 -124 47 -182t154 -58q63 0 115.5 28t95 76 t74.5 112.5t53.5 139t32 155t10.5 159.5q0 124 -47.5 182t-153.5 58q-63 0 -115.5 -27.5t-95 -75.5t-74.5 -113t-53.5 -139t-32 -155t-10.5 -160z" />
<glyph unicode="P" d="M33 0l262 1307h371q127 0 214.5 -27.5t141.5 -74t78 -106.5t24 -124q0 -108 -38 -208.5t-115 -177.5t-194.5 -123t-276.5 -46h-138l-83 -420h-246zM402 624h132q75 0 136 24.5t103.5 67t66 99.5t23.5 122q0 32 -9.5 62t-34.5 53t-69 37t-114 14h-137z" />
<glyph unicode="Q" d="M41 418q0 100 17 206t52 207.5t89 192t129 158t171.5 107.5t215.5 40q205 0 314.5 -112.5t109.5 -327.5q0 -93 -14.5 -191.5t-44.5 -193.5t-76.5 -182t-110.5 -156.5t-146.5 -116.5t-183.5 -63v-10q0 -35 6 -60q7 -30 25 -49t48 -28t75 -9q43 0 88.5 18t85.5 50l104 -168 q-71 -53 -153.5 -81t-165.5 -28q-96 0 -164.5 25t-111 73t-59.5 117q-13 51 -13 113q0 22 2 45q-143 32 -216 139.5t-73 284.5zM299 438q0 -124 47 -181.5t154 -57.5q63 0 115.5 27.5t95 75.5t74.5 112.5t53.5 139t32 155t10.5 159.5q0 124 -47.5 182t-153.5 58 q-63 0 -115.5 -27.5t-95 -75.5t-74.5 -113t-53.5 -139t-32 -155t-10.5 -160z" />
<glyph unicode="R" d="M27 0l262 1307h375q93 0 169 -15.5t130 -49.5t83 -88t29 -132q0 -79 -24 -148t-70 -123.5t-111.5 -91t-148.5 -51.5q25 -14 46 -35.5t39.5 -55t36 -81t36.5 -112.5l90 -324h-277l-80 326q-15 65 -33.5 107t-42 66t-52.5 33t-66 9h-38l-107 -541h-246zM419 733h87 q71 0 128.5 15.5t97.5 45.5t61.5 74t21.5 101q0 69 -48.5 101t-154.5 32h-119z" />
<glyph unicode="S" d="M2 33l47 231q42 -15 89 -28t95 -22t96 -14t93 -5q79 0 135.5 14.5t93 39.5t53.5 57.5t17 68.5q0 42 -22.5 72.5t-60 55.5t-85 47t-97 45.5t-96.5 51t-84.5 65t-60 87t-22.5 116.5q0 80 33.5 154.5t103 132.5t177 92.5t255.5 34.5q43 0 86.5 -3.5t85 -9t78.5 -13t67 -15.5 l-43 -217q-29 10 -65.5 18.5t-76 15t-79.5 10t-76 3.5q-71 0 -122 -12.5t-84 -34t-48.5 -51t-15.5 -62.5q0 -38 23 -66.5t60.5 -52.5t85 -46t97.5 -46.5t97.5 -53.5t85 -67.5t60.5 -89t23 -116.5q0 -101 -43 -183t-122.5 -140t-192.5 -89t-252 -31q-111 0 -206 14t-183 42z " />
<glyph unicode="T" d="M197 1102l43 205h968l-43 -205h-358l-219 -1102h-252l219 1102h-358z" />
<glyph unicode="U" d="M60 319q0 66 17 142l169 846h246l-170 -852q-12 -62 -12 -109q0 -41 10 -72t31 -52t57 -31.5t86 -10.5q60 0 107.5 15.5t83 50t59.5 88t39 130.5l170 843h247l-171 -846q-25 -125 -73 -216.5t-119 -151t-165 -88t-209 -28.5q-106 0 -183.5 24t-127 69t-71 108t-21.5 141z " />
<glyph unicode="V" d="M160 1307h264l68 -787l20 -258l129 273l369 772h276l-663 -1307h-326z" />
<glyph unicode="W" d="M4 0l189 1307h217l-140 -838l-37 -229l101 204l237 465h156l51 -493l15 -174l45 204l206 861h209l-335 -1307h-277l-43 403l-14 164l-84 -168l-213 -399h-283z" />
<glyph unicode="X" d="M-94 0l510 670l-223 637h276l145 -455l322 455h301l-479 -637l258 -670h-301l-156 481l-344 -481h-309z" />
<glyph unicode="Y" d="M170 1307h258l113 -404l49 -198l131 204l276 398h277l-600 -844l-91 -463h-250l93 461z" />
<glyph unicode="Z" d="M2 0l37 188l766 896h-567l45 223h891l-41 -197l-767 -887h598l-44 -223h-918z" />
<glyph unicode="[" d="M123 -397l371 1855h526l-37 -190h-301l-297 -1475h301l-37 -190h-526z" />
<glyph unicode="\" d="M303 1413h229l371 -1628h-229z" />
<glyph unicode="]" d="M82 -397l37 190h299l297 1475h-299l37 190h524l-371 -1855h-524z" />
<glyph unicode="^" d="M117 668l504 639h186l266 -639h-215l-174 462l-346 -462h-221z" />
<glyph unicode="_" d="M-184 -410l39 193h1124l-39 -193h-1124z" />
<glyph unicode="`" d="M0 1016zM229 1413h330l252 -262h-244z" />
<glyph unicode="a" d="M61 330q0 153 41 282.5t119 223t191.5 146t257.5 52.5q77 0 137.5 -10.5t105.5 -24.5l174 37l-112 -563q-6 -32 -12 -68.5t-12.5 -90t-14.5 -129.5t-18 -185h-199l8 184q-23 -35 -58 -71.5t-81.5 -66.5t-103 -49.5t-122.5 -19.5q-148 0 -224.5 92t-76.5 261zM315 346 q0 -80 27.5 -122t83.5 -42q46 0 98 37t99 95t82.5 129t48.5 139l47 239q-32 11 -65.5 17t-71.5 6q-71 0 -124.5 -25.5t-92.5 -67t-64.5 -94.5t-40.5 -108t-21 -108.5t-6 -94.5z" />
<glyph unicode="b" d="M45 43l274 1370h244l-69 -348l-72 -211q27 43 64 77t81 58t92.5 36.5t98.5 12.5q148 0 224.5 -92t76.5 -260q0 -154 -41 -283t-119 -222.5t-191 -146t-257 -52.5q-65 0 -120 4.5t-104.5 12.5t-94 19t-87.5 25zM319 195q32 -11 66 -17t72 -6q71 0 124.5 25.5t92 67 t64 94.5t40.5 108t21 108t6 95q0 80 -27.5 122t-83.5 42q-31 0 -64.5 -17t-67 -46.5t-65 -69t-58 -84t-45.5 -91.5t-27 -92z" />
<glyph unicode="c" d="M119 373q0 80 17.5 160t52 153.5t87.5 136.5t123.5 109.5t159 73t195.5 26.5q93 0 168 -13t129 -30l-45 -229q-56 28 -126 45.5t-135 17.5q-70 0 -123.5 -20.5t-94 -54.5t-68 -78t-44.5 -91t-24.5 -93.5t-7.5 -84.5q0 -102 60 -154t169 -52q70 0 140 16.5t135 42.5v-209 q-39 -15 -81.5 -27t-84.5 -20t-81 -12t-71 -4q-221 0 -335.5 99t-114.5 292z" />
<glyph unicode="d" d="M61 330q0 153 41 282.5t119 223t191.5 146t257.5 52.5q54 0 95 -5t75 -11l80 395h243l-188 -940q-6 -32 -12 -68.5t-12.5 -90t-14.5 -129.5t-18 -185h-199l8 184q-23 -35 -58 -71.5t-81.5 -66.5t-103 -49.5t-122.5 -19.5q-148 0 -224.5 92t-76.5 261zM315 346 q0 -80 27.5 -122t83.5 -42q46 0 98 37t99 95t82.5 129t48.5 139l47 239q-22 8 -58 15.5t-79 7.5q-71 0 -124.5 -25.5t-92.5 -67t-64.5 -94.5t-40.5 -108t-21 -108.5t-6 -94.5z" />
<glyph unicode="e" d="M88 356q0 138 42.5 262t120 217.5t186.5 148t243 54.5q87 0 154.5 -20t114 -56t71 -86.5t24.5 -111.5q0 -77 -31 -139.5t-100 -107t-179.5 -69t-268.5 -24.5h-133q-2 -12 -3 -27.5t-1 -34.5q0 -91 57.5 -140.5t169.5 -49.5q75 0 161 11.5t165 33.5v-190 q-84 -22 -180.5 -36t-192.5 -14q-98 0 -176 24t-132 71t-83 118t-29 166zM371 598h106q105 0 169 12t99.5 31.5t47.5 45.5t12 54q0 53 -41 84t-109 31q-55 0 -101 -20.5t-81.5 -55.5t-61 -82t-40.5 -100z" />
<glyph unicode="f" d="M-119 -414l41 193q49 -6 103 -6q43 0 82 11.5t71.5 36t55.5 63.5t34 93l140 703h-295l39 190h294l29 146q43 213 168.5 314.5t343.5 101.5q63 0 127.5 -8.5t114.5 -20.5l-39 -191q-51 13 -107.5 20t-113.5 7q-111 0 -168.5 -58.5t-79.5 -164.5l-29 -146h400l-39 -190 h-400l-137 -692q-22 -114 -67.5 -192t-110.5 -126t-148 -69t-180 -21q-42 0 -72.5 1.5t-56.5 4.5zM0 1016z" />
<glyph unicode="g" d="M29 -344l95 178q63 -32 123 -47.5t132 -15.5q111 0 172 52.5t86 156.5q11 45 27.5 90t33.5 92q-27 -43 -64 -77.5t-80.5 -58.5t-92.5 -36.5t-99 -12.5q-148 0 -224.5 92t-76.5 261q0 153 41 282.5t119 223t191.5 146t257.5 52.5q77 0 137.5 -10.5t105.5 -24.5l174 37 l-208 -1044q-20 -101 -58 -177.5t-99 -129t-146.5 -79t-200.5 -26.5q-85 0 -178 18.5t-168 57.5zM315 346q0 -80 27.5 -122t83.5 -42q46 0 98 37t99 95t82.5 129t48.5 139l47 239q-32 11 -65.5 17t-71.5 6q-71 0 -124.5 -25.5t-92.5 -67t-64.5 -94.5t-40.5 -108t-21 -108.5 t-6 -94.5z" />
<glyph unicode="h" d="M37 0l282 1413h244l-69 -348l-72 -211q27 43 64.5 77t81.5 58t94 36.5t102 12.5q81 0 137.5 -26.5t88.5 -76t40 -119.5q2 -22 2 -46q0 -53 -12 -113l-133 -657h-244l133 662q7 36 7 65q1 37 -11 63q-20 44 -72 44q-32 0 -67 -17t-69 -46.5t-66 -69t-58 -84t-45.5 -91.5 t-27.5 -92l-86 -434h-244z" />
<glyph unicode="i" d="M164 772v187q65 36 139 58t152 22q170 0 237 -89q43 -57 42 -156q0 -56 -13 -126l-66 -328q-9 -46 -8 -79q0 -35 9 -55q19 -38 75 -38q47 0 104 20.5t130 55.5v-187q-65 -35 -139.5 -57.5t-151.5 -22.5q-171 1 -238 89q-42 56 -42 154q0 57 14 128l65 328q9 46 9 79 q0 35 -10 55q-20 38 -75 38q-46 0 -103.5 -20.5t-129.5 -55.5zM528 1286q0 36 14 66.5t38 53t55 35.5t65 13q36 0 64.5 -12.5t49 -33.5t31.5 -48t11 -57q0 -36 -14 -67t-37.5 -53.5t-54 -35t-64.5 -12.5q-35 0 -64 12.5t-50 33t-32.5 48t-11.5 57.5z" />
<glyph unicode="j" d="M-102 -295l149 168q18 -20 40 -37.5t49 -31t59.5 -21.5t70.5 -8q112 0 179 64t92 188l135 675q6 29 6 53q0 35 -13 57q-21 36 -87 36q-36 0 -73.5 -5.5t-79 -16t-87 -26t-98.5 -34.5v191q97 39 194 60.5t203 21.5q181 0 248 -89q42 -57 42 -155q0 -56 -14 -127l-127 -641 q-24 -123 -74.5 -208t-121 -138.5t-159.5 -77t-191 -23.5q-217 0 -342 125zM715 1286q0 36 14 66.5t38 53t55 35.5t65 13q35 0 63.5 -12.5t49 -33.5t31.5 -48t11 -57q0 -36 -14 -67t-37 -53.5t-54 -35t-65 -12.5q-35 0 -64 12.5t-49.5 33t-32 48t-11.5 57.5z" />
<glyph unicode="k" d="M37 0l282 1413h244l-69 -348l-72 -211q27 43 63.5 77t80 58t93 36.5t101.5 12.5q67 0 123.5 -17.5t97.5 -51t63.5 -82.5t22.5 -113q0 -75 -24.5 -135.5t-69 -106.5t-107 -78t-139.5 -51l262 -403h-295l-288 512q117 15 196 37t128 50t70 63t21 77q0 59 -31.5 83t-87.5 24 q-48 0 -101 -35t-99.5 -89t-80.5 -120t-46 -127l-94 -475h-244z" />
<glyph unicode="l" d="M227 350l213 1063h246l-219 -1102q-5 -26 -5 -47q0 -38 16 -60q25 -36 91 -36q73 0 156 22t193 64v-191q-101 -42 -201.5 -64t-206.5 -22q-182 1 -252 91q-45 59 -44 159q0 55 13 123z" />
<glyph unicode="m" d="M-43 0l109 543q6 31 11.5 68t12 90.5t14.5 129.5t19 185h180l-6 -164l20 29q61 81 115 118t117 37q74 0 110.5 -35t36.5 -98q0 -11 -1.5 -24t-4.5 -27q32 45 61.5 79.5t59.5 58t61.5 35t67.5 11.5q110 0 155 -80q26 -46 26 -120q0 -56 -15 -127l-141 -709h-211l139 692 q14 73 14 111q0 41 -28 41q-22 0 -53.5 -30t-62.5 -77t-57.5 -105.5t-37.5 -115.5l-103 -516h-209l140 692q14 73 14 111q0 41 -29 41q-19 0 -50 -30t-63 -77t-59 -105.5t-39 -115.5l-102 -516h-211z" />
<glyph unicode="n" d="M43 0l109 543q6 31 11.5 68t12 90.5t14.5 129.5t19 185h199l-9 -185q23 35 58.5 71.5t82 66.5t103 49.5t121.5 19.5q81 0 137.5 -26.5t88.5 -76t40 -119.5q2 -22 2 -46q0 -53 -12 -113l-133 -657h-244l133 662q7 36 7 65q1 37 -11 63q-20 44 -72 44q-30 0 -64 -17 t-67.5 -46.5t-65 -69t-57.5 -84t-45 -91.5t-28 -92l-86 -434h-244z" />
<glyph unicode="o" d="M55 362q0 86 18.5 169.5t54 159t87 139t119 110t149 72.5t176.5 26q94 0 170.5 -23.5t130 -71t82.5 -120t29 -170.5q0 -86 -18.5 -169.5t-53.5 -158.5t-87 -139t-119 -110.5t-149 -72.5t-177 -26t-171 23.5t-129.5 71t-82.5 120t-29 170.5zM311 387q0 -99 49 -149 t140 -50q54 0 98 20.5t79 55t61 79t43 93.5t25.5 99t8.5 94q0 99 -48.5 148.5t-139.5 49.5q-54 0 -98 -20.5t-79.5 -54.5t-61.5 -79t-43 -94t-25.5 -98.5t-8.5 -93.5z" />
<glyph unicode="p" d="M-37 -397l189 940q6 31 11.5 68t12 90.5t14.5 129.5t19 185h199l-9 -185q23 35 58.5 71.5t82 66.5t103 49.5t121.5 19.5q149 0 225 -92t76 -260q0 -154 -41 -283t-119 -222.5t-191 -146t-257 -52.5q-54 0 -96.5 5t-73.5 11l-4 -18l-76 -377h-244zM326 195 q21 -8 57.5 -15.5t79.5 -7.5q71 0 124.5 25.5t92.5 67t64 94.5t40 108t21 108t6 95q0 80 -27.5 122t-83.5 42q-30 0 -64 -17t-67.5 -46.5t-65 -69t-57.5 -84t-45 -91.5t-28 -92z" />
<glyph unicode="q" d="M61 330q0 153 41 282.5t119 223t191.5 146t257.5 52.5q77 0 137.5 -10.5t105.5 -24.5l174 37l-286 -1433h-244l70 348l71 211q-27 -43 -64 -77.5t-80.5 -58.5t-92.5 -36.5t-99 -12.5q-148 0 -224.5 92t-76.5 261zM315 346q0 -80 27.5 -122t83.5 -42q46 0 98 37t99 95 t82.5 129t48.5 139l47 239q-32 11 -65.5 17t-71.5 6q-71 0 -124.5 -25.5t-92.5 -67t-64.5 -94.5t-40.5 -108t-21 -108.5t-6 -94.5z" />
<glyph unicode="r" d="M78 0l108 543q6 31 12 68t12.5 90.5t14.5 129.5t19 185h198l-10 -199q22 40 56.5 79.5t79.5 71t101.5 51t123.5 19.5q87 0 148.5 -28t95.5 -81q35 -53 41 -131q1 -17 1 -35q0 -64 -18 -142h-246q14 61 15 102v7q0 36 -10 58q-11 24 -33.5 35t-55.5 11q-48 0 -98.5 -39.5 t-96 -104t-81.5 -148t-54 -171.5l-73 -371h-250z" />
<glyph unicode="s" d="M78 16v220q102 -36 195 -54t173 -18q117 0 170.5 37t53.5 94q0 20 -8 36.5t-29 31.5t-57.5 30t-94.5 33q-140 43 -210 116t-70 185q0 64 32 120.5t93.5 99t152.5 67t209 24.5q100 0 171 -8.5t124 -19.5v-199q-97 29 -171 38t-134 9q-62 0 -104 -10.5t-67 -29.5 t-35.5 -39.5t-10.5 -39.5q0 -23 9 -41t32 -34t62 -32t98 -34q136 -43 204 -110t68 -166q0 -89 -38 -153.5t-104 -107.5t-155 -63.5t-191 -20.5q-115 0 -205.5 10.5t-162.5 28.5z" />
<glyph unicode="t" d="M123 826l37 190h272l53 260l263 65l-66 -325h395l-37 -190h-395l-90 -447q-10 -49 -10 -86q-1 -41 15 -66q14 -24 43.5 -37.5t76.5 -13.5q56 0 111 10t106 22v-194q-69 -17 -137.5 -27t-128.5 -10q-100 0 -171.5 22t-113.5 70t-52 125q-3 25 -4 53q0 59 15 134l90 445 h-272z" />
<glyph unicode="u" d="M96 200q-2 21 -3 43q0 53 13 115l134 658h243l-133 -662q-6 -36 -7 -64q0 -38 12 -64q20 -44 71 -44q46 0 98 37t99 95t82.5 129t48.5 139l86 434h243l-108 -543q-6 -32 -12 -68.5t-12.5 -90t-14.5 -129.5t-18 -185h-199l8 184q-23 -35 -58 -71.5t-81.5 -66.5t-103 -49.5 t-122.5 -19.5q-81 0 -137.5 27t-88.5 76.5t-40 119.5z" />
<glyph unicode="v" d="M123 1016h254l141 -772q70 67 126 151.5t97.5 183t67.5 208.5t35 229h260q-16 -147 -61 -290t-114.5 -274.5t-161.5 -246.5t-202 -205h-241z" />
<glyph unicode="w" d="M49 0l60 1016h227l-41 -574l-14 -157l69 141l164 309h186l48 -307l18 -145q45 71 77 160t53 186t32.5 196t15.5 191h227q-9 -137 -36.5 -281t-74 -279t-112.5 -253t-153 -203h-193l-45 322l-10 112l-55 -115l-168 -319h-275z" />
<glyph unicode="x" d="M-70 0l484 512l-260 504h286l162 -334l291 334h285l-451 -502l266 -514h-293l-163 342l-301 -342h-306z" />
<glyph unicode="y" d="M-115 -205q29 -5 60.5 -7.5t62.5 -2.5q42 0 77.5 10t72 35t76.5 66.5t90 103.5l-201 1016h254l143 -785q60 89 106.5 164t80.5 140.5t58 125t39.5 117t25 116t14.5 122.5h260q-8 -65 -20 -127t-31 -125t-46.5 -129t-66.5 -139.5t-90.5 -156.5t-118.5 -179 q-86 -123 -159 -214t-137 -155t-120 -105.5t-109 -64.5t-103.5 -32t-102.5 -9q-37 0 -65 2.5t-50 5.5v207z" />
<glyph unicode="z" d="M47 0l35 172l614 635h-475l41 209h807l-35 -174l-600 -627h484l-44 -215h-827z" />
<glyph unicode="{" d="M143 479l39 189h64q109 0 164 52t75 157l37 176q21 103 59.5 179t98.5 126t142.5 75t191.5 25h84l-37 -188h-64q-48 0 -89 -13t-74.5 -41t-57.5 -72.5t-37 -107.5l-34 -174q-15 -75 -38 -128t-55.5 -88t-76 -54t-99.5 -27q104 -12 140.5 -84.5t7.5 -220.5l-52 -254 q-13 -65 -6 -106.5t29.5 -65.5t59.5 -33.5t85 -9.5h64l-37 -188h-84q-207 0 -289 104.5t-39 321.5l52 254q21 103 -16 149.5t-144 46.5h-64z" />
<glyph unicode="|" d="M264 -410l412 2048h225l-412 -2048h-225z" />
<glyph unicode="}" d="M35 -397l37 188h63q48 0 89 13t74.5 41t57.5 72.5t37 107.5l51 260q15 75 38.5 127.5t56.5 87t76.5 53.5t99.5 27q-107 12 -143 85.5t-7 221.5l35 168q13 64 6.5 106t-29.5 66t-60 33.5t-85 9.5h-63l37 188h83q208 0 289.5 -104.5t38.5 -321.5l-35 -168 q-20 -103 16.5 -149.5t143.5 -46.5h64l-39 -189h-64q-54 0 -94.5 -13t-69 -39t-47 -65.5t-28.5 -91.5l-54 -262q-21 -103 -59 -179t-98 -126.5t-142.5 -75t-191.5 -24.5h-84z" />
<glyph unicode="~" d="M39 393q4 78 23.5 148.5t58.5 123.5t99 84t145 31q56 0 101 -18.5t81.5 -46t67.5 -59.5t59 -59.5t55.5 -46t58.5 -18.5q22 0 41 9t33.5 30t23.5 55t11 83h205q-4 -78 -24 -148.5t-59.5 -123.5t-100 -84.5t-144.5 -31.5q-56 0 -101 18.5t-81.5 46t-67.5 60t-59.5 59.5 t-56 45.5t-58.5 18.5q-22 0 -40.5 -9t-32.5 -30t-22.5 -54.5t-10.5 -82.5h-205z" />
<glyph unicode="&#xa0;" />
<glyph unicode="&#xa1;" d="M240 -397l237 1007h209l-164 -1007h-282zM473 870q0 37 14.5 68t38.5 53t55.5 34.5t65.5 12.5t62 -12t48.5 -32.5t32 -48t11.5 -58.5q0 -37 -15 -68t-39.5 -53t-56 -34.5t-65.5 -12.5t-62 12t-48 32.5t-31 48t-11 58.5z" />
<glyph unicode="&#xa2;" d="M131 528q0 77 16 155t48.5 149t83 132.5t120 107t158.5 71.5t199 26l108 326h174l-112 -338q34 -5 62 -12t52 -17l-43 -215q-29 11 -64.5 23t-72.5 18l-196 -583q58 3 111.5 15.5t109.5 31.5v-199q-33 -13 -69.5 -23t-74 -17t-74.5 -10.5t-71 -4.5l-139 -414h-174 l143 422q-87 18 -144 56t-90.5 86.5t-47 104t-13.5 109.5zM389 578q0 -20 3.5 -48t15 -55.5t33 -50t57.5 -31.5l190 570q-81 -10 -138 -49.5t-93 -95t-52 -119t-16 -121.5z" />
<glyph unicode="&#xa3;" d="M-27 0l41 209h158l70 346h-158l37 182h158l32 168q21 102 61.5 181t102 133t145 82t191.5 28q111 0 198.5 -40.5t141.5 -108.5l-141 -146q-37 48 -92 73.5t-111 25.5q-48 0 -89.5 -15t-75.5 -45t-57.5 -75t-35.5 -105l-31 -156h406l-37 -182h-406l-69 -346h538l-41 -209 h-936z" />
<glyph unicode="&#xa4;" d="M-33 147l240 246q-14 29 -20.5 64.5t-6.5 77.5q0 51 9.5 107t27 110t43 103t57.5 87l-141 250l217 104l113 -231q40 14 81.5 21.5t88.5 7.5q43 0 80 -6.5t69 -18.5l203 227l191 -122l-240 -248q27 -59 27 -138q0 -52 -10 -108.5t-28.5 -110.5t-45 -103.5t-58.5 -86.5 l144 -250l-215 -104l-113 233q-38 -14 -81 -21.5t-89 -7.5q-43 0 -80.5 6t-71.5 17l-198 -227zM408 580q0 -78 35.5 -117t103.5 -39q43 0 77.5 16.5t60.5 43.5t44 61.5t29.5 71t16.5 72t5 63.5q0 147 -137 147q-45 0 -79.5 -15.5t-60.5 -41.5t-44 -59.5t-29.5 -69 t-16.5 -70.5t-5 -63z" />
<glyph unicode="&#xa5;" d="M74 135l30 154h293l27 137h-293l31 154h293l6 28l-262 699h262l104 -303l56 -181l122 172l230 312h278l-549 -699l-6 -28h291l-31 -154h-290l-27 -137h291l-31 -154h-291l-26 -135h-242l27 135h-293z" />
<glyph unicode="&#xa6;" d="M264 -410l172 856h226l-173 -856h-225zM510 807l166 831h225l-166 -831h-225z" />
<glyph unicode="&#xa7;" d="M-33 -195l43 204q35 -13 77 -24t86.5 -18.5t90 -12t88.5 -4.5q67 0 109 13t66 33.5t33 45.5t9 49q-2 29 -22 55t-52 51t-72 50t-82 53.5t-82 61t-71 72t-50 87t-19 105.5q0 57 19.5 110.5t53.5 100t79.5 85t97.5 66.5q-11 25 -18 49t-7 52q0 33 9 71t31 76t58 73.5 t89.5 63t126.5 43.5t169 16t173 -10.5t133 -22.5l-39 -188q-33 9 -70 16t-74 11t-72.5 6t-64.5 2q-64 0 -104.5 -12.5t-64 -32t-32 -42t-8.5 -42.5q1 -37 34.5 -69t83.5 -66t108 -72t107.5 -86t82.5 -109t33 -141q0 -55 -17.5 -106t-49 -96.5t-76.5 -85t-99 -72.5 q8 -17 14 -40.5t6 -51.5q0 -72 -31 -137t-93 -114t-154.5 -78t-216.5 -29q-110 0 -201.5 10.5t-167.5 30.5zM383 652q1 -43 28.5 -77.5t70.5 -66.5t95 -64.5t101 -71.5q54 43 84.5 86t30.5 94q-2 43 -29 78t-68 67.5t-91.5 65t-98.5 70.5q-62 -44 -92.5 -86t-30.5 -95z" />
<glyph unicode="&#xa8;" d="M0 1016zM373 1284q0 31 11.5 58t31.5 46.5t45.5 30.5t54.5 11q28 0 52.5 -11t41.5 -29t27 -41.5t10 -48.5q0 -31 -11.5 -57.5t-31.5 -46t-46 -30.5t-54 -11q-29 0 -53 10.5t-41 28.5t-27 41.5t-10 48.5zM791 1284q0 31 11.5 58t31.5 46.5t45.5 30.5t54.5 11 q28 0 52.5 -11t41.5 -29t27 -41.5t10 -48.5q0 -31 -12 -57.5t-31.5 -46t-45.5 -30.5t-54 -11q-29 0 -53 10.5t-41 28.5t-27 41.5t-10 48.5z" />
<glyph unicode="&#xa9;" d="M33 522q0 103 20.5 202.5t58 189t92.5 165.5t127 131.5t157.5 87t183.5 31.5q115 0 204.5 -43t149.5 -118t90.5 -177.5t30.5 -222.5q0 -101 -20 -199.5t-58 -186t-95.5 -162t-129 -128.5t-156.5 -84.5t-180 -30.5q-118 0 -208 39.5t-149 111.5t-88.5 172.5t-29.5 221.5z M203 542q0 -87 18.5 -163t57 -129.5t98 -85t140.5 -31.5q73 0 135.5 25.5t113 68t90 103t66.5 130t41 146t14 153.5q0 87 -19 163.5t-58.5 132.5t-100 87t-142.5 31q-72 0 -134 -24.5t-112.5 -69t-89 -105t-65 -131t-40 -147t-13.5 -154.5zM326 556q0 36 7 83t24 96t46 97 t74.5 86t106.5 61t143 23q34 -1 66.5 -4t55.5 -10l-35 -166q-21 7 -45 11t-52 5q-43 0 -73 -15t-50.5 -40t-33.5 -54.5t-20 -58.5t-9.5 -53t-2.5 -37q0 -52 24.5 -78t78.5 -26q27 1 49.5 5t49.5 12v-168q-35 -10 -72 -14.5t-73 -5.5q-128 0 -193.5 68.5t-65.5 182.5z" />
<glyph unicode="&#xaa;" d="M182 338l33 168h692l-33 -168h-692zM299 854q0 54 9.5 110.5t30 109t53 99t79.5 81.5t108.5 55t139.5 20q57 0 98.5 -8t67.5 -14l123 20l-76 -375q-5 -26 -9 -53.5t-8.5 -64t-9.5 -85.5t-12 -118h-152v110q-45 -66 -105 -96.5t-128 -30.5q-100 0 -154.5 60.5t-54.5 179.5 zM502 864q0 -46 17 -67t46 -21q25 0 55 23t58 64t51.5 97t36.5 123l16 91q-15 3 -29.5 4.5t-43.5 1.5q-52 0 -90.5 -27t-64.5 -71t-39 -101t-13 -117z" />
<glyph unicode="&#xab;" d="M121 553l344 403l172 -100l-281 -324l152 -319l-199 -84zM549 553l350 393l166 -100l-281 -314l156 -309l-192 -84z" />
<glyph unicode="&#xac;" d="M88 446l41 197h887l-96 -475h-213l55 278h-674z" />
<glyph unicode="&#xae;" d="M154 918q0 111 41.5 206t112 164t164 108.5t196.5 39.5t190 -38.5t151 -104t100 -151t36 -179.5q0 -111 -42.5 -206t-114 -164.5t-165 -109t-196.5 -39.5t-190 38.5t-150 104t-98 151t-35 180.5zM293 918q0 -69 25 -131t70 -109t107.5 -75t137.5 -28q74 0 141.5 28.5 t119 80t82 122.5t30.5 157q0 68 -26 130t-72 109t-109 75t-137 28q-75 0 -142 -28.5t-117.5 -80t-80 -122.5t-29.5 -156zM412 682l110 547h162q44 0 80.5 -6t63 -20.5t41 -39t14.5 -61.5t-12.5 -66.5t-33.5 -51t-49 -34t-59 -14.5q17 -2 29.5 -22.5t23.5 -57.5l47 -174h-143 l-37 176q-3 17 -19 28t-36 11h-12l-43 -215h-127zM602 991h31q21 0 41.5 5t36 15.5t25 26.5t9.5 39t-17.5 35t-68.5 12h-30z" />
<glyph unicode="&#xaf;" d="M0 1016zM424 1204l35 174h557l-35 -174h-557z" />
<glyph unicode="&#xb0;" d="M301 1030q0 100 32 176t88.5 127t132.5 77t165 26q87 0 150.5 -24.5t104 -66t60 -95t19.5 -111.5q0 -101 -32.5 -177.5t-88.5 -127.5t-132.5 -77t-164.5 -26t-151 24t-103.5 65.5t-60 95.5t-19.5 114zM512 1042q0 -25 6.5 -49.5t22.5 -44t43.5 -31.5t68.5 -12 q42 0 76.5 13.5t59.5 40.5t39 66.5t14 90.5q0 28 -7 54.5t-23.5 47t-44 32.5t-69.5 12q-41 0 -75.5 -14t-59 -41.5t-38 -68.5t-13.5 -96z" />
<glyph unicode="&#xb1;" d="M31 0l38 193h860l-38 -193h-860zM138 684l38 188h349l71 357h221l-71 -357h348l-38 -188h-348l-70 -352h-221l70 352h-349z" />
<glyph unicode="&#xb2;" d="M262 631l35 180l248 174q64 44 102 75.5t58.5 55t27 40.5t6.5 32q0 23 -17 39t-62 16q-86 0 -187 -63l-96 147q72 48 154.5 76.5t175.5 28.5q139 0 214.5 -57t75.5 -162q0 -42 -13.5 -79.5t-43 -74t-76.5 -75t-114 -81.5l-123 -79h319l-37 -193h-647z" />
<glyph unicode="&#xb3;" d="M256 629l35 173q82 -18 215 -18q61 0 99 9t59 23.5t28.5 32t7.5 35.5q0 12 -5 24.5t-23.5 22.5t-55 16.5t-98.5 6.5h-92l31 151h57q62 0 102.5 9.5t64 25t33 35.5t9.5 41q0 49 -92 49q-31 0 -57 -3t-51 -8t-50.5 -11t-54.5 -13v169q122 35 262 35q137 0 215 -48t78 -134 q0 -33 -10.5 -66.5t-31.5 -62.5t-53.5 -51.5t-76.5 -34.5q38 -3 67 -15t48 -31.5t28.5 -44t9.5 -51.5q0 -54 -23 -104.5t-78.5 -89.5t-148.5 -62.5t-233 -23.5q-22 0 -51 1t-59 3t-57.5 4.5t-47.5 5.5z" />
<glyph unicode="&#xb4;" d="M0 1016zM567 1151l273 262h329l-358 -262h-244z" />
<glyph unicode="&#xb5;" d="M-47 -397l283 1413h243l-133 -660q-17 -85 1 -129.5t71 -44.5q25 0 56 15t63.5 42t64.5 64t60 81t49 94t32 102l88 436h244l-129 -647q-12 -57 -16 -93.5t0.5 -57t18.5 -28.5t38 -8h31l-37 -188q-22 -5 -36.5 -8t-25 -4.5t-20 -1.5h-22.5q-51 0 -86 16t-54.5 43t-23.5 64 t6 79q-29 -44 -68 -81t-84 -65t-92 -43.5t-92 -15.5q-41 0 -72.5 12.5t-45.5 32.5l-24 -198l-44 -221h-244z" />
<glyph unicode="&#xb6;" d="M111 -111l127 168q47 -44 103.5 -71t137.5 -27q49 0 91.5 14.5t76.5 45t58.5 78t37.5 114.5l203 1012h-131l-143 -715q-134 0 -231.5 26t-160.5 74t-93.5 115t-30.5 149q0 48 10.5 106.5t37.5 118.5t74 117t120.5 101t176.5 71t242 27h408l-246 -1220 q-20 -100 -60.5 -179.5t-104.5 -135t-152 -85t-203 -29.5q-113 0 -197.5 32.5t-150.5 92.5z" />
<glyph unicode="&#xb7;" d="M381 551q0 45 16.5 82.5t44 65.5t64 43.5t76.5 15.5q41 0 75.5 -15.5t59.5 -41t39 -59.5t14 -71q0 -44 -16.5 -81t-44.5 -64.5t-65 -43t-79 -15.5q-40 0 -73.5 15t-58 40.5t-38.5 59t-14 69.5z" />
<glyph unicode="&#xb8;" d="M262 -295l111 295h229l-160 -295h-180z" />
<glyph unicode="&#xb9;" d="M279 631l34 182h215l80 396l-188 -82l-49 163l309 132h207l-123 -609h180l-35 -182h-630z" />
<glyph unicode="&#xba;" d="M182 338l33 168h692l-33 -168h-692zM283 883q0 46 10.5 97.5t32.5 101t56.5 94.5t83 79t111.5 54t142 20q72 0 129.5 -17.5t97 -52t60.5 -84.5t21 -114q0 -73 -25 -152.5t-78 -145.5t-136 -108.5t-198 -42.5q-72 0 -128.5 17.5t-96.5 51.5t-61 84.5t-21 117.5zM489 912 q0 -63 33 -96t94 -33q56 0 95 25t63.5 62.5t35.5 81t11 81.5q0 60 -32 92.5t-97 32.5q-54 0 -92 -24t-63 -61t-36.5 -80t-11.5 -81z" />
<glyph unicode="&#xbb;" d="M74 244l280 313l-155 309l192 84l199 -413l-350 -394zM502 233l280 324l-151 320l198 84l189 -424l-344 -404z" />
<glyph unicode="&#xbc;" d="M-107 0l1210 1413h209l-1211 -1413h-208zM193 1315l229 104h174l-117 -579h-190l82 407l-146 -65zM446 102l25 136l283 335h256l-68 -335h84l-27 -136h-84l-20 -102h-168l21 102h-302zM643 238h131l41 206z" />
<glyph unicode="&#xbd;" d="M-107 0l1210 1413h209l-1211 -1413h-208zM193 1315l229 104h174l-117 -579h-190l82 407l-146 -65zM514 0l29 143l151 105q56 38 89 64t50 44t22 31.5t5 26.5q0 17 -12.5 27t-38.5 10q-38 0 -74.5 -16t-68.5 -38l-62 117q50 34 111 56t129 22q54 0 94 -13.5t66 -35.5 t38.5 -50.5t12.5 -58.5q0 -31 -9.5 -61t-33 -60.5t-64.5 -63t-104 -67.5l-62 -37h234l-29 -145h-473z" />
<glyph unicode="&#xbe;" d="M-107 0l1210 1413h209l-1211 -1413h-208zM106 831l29 140q31 -6 72 -10.5t88 -4.5q71 0 102 17t31 49q0 9 -4.5 17t-18 13t-38.5 8t-66 3h-70l27 135h55q39 0 65 5t41 13.5t21 20.5t6 27t-12.5 23.5t-50.5 8.5q-43 0 -78.5 -5.5t-77.5 -16.5v131q28 7 52 12.5t46.5 8.5 t46 4.5t52.5 1.5q58 0 99.5 -10.5t68 -28.5t39 -42.5t12.5 -52.5q0 -35 -10.5 -61.5t-27.5 -45.5t-40.5 -31t-48.5 -17q34 -4 55.5 -15.5t34.5 -27t18 -33t5 -33.5q0 -100 -86.5 -156.5t-266.5 -56.5q-16 0 -39 0.5t-47.5 2t-46.5 3.5t-37 4zM446 102l25 136l283 335h256 l-68 -335h84l-27 -136h-84l-20 -102h-168l21 102h-302zM643 238h131l41 206z" />
<glyph unicode="&#xbf;" d="M63 -8q0 79 27 154t82 134.5t138 98t194 43.5l49 188h209l-57 -377h-136q-69 0 -114.5 -19.5t-73 -50t-38.5 -69t-11 -76.5q0 -33 14.5 -66.5t49.5 -60.5t93 -44t146 -17h74l-47 -227h-52q-159 0 -264.5 35.5t-168 92t-88.5 125.5t-26 136zM545 870q0 37 15 68t39.5 53 t56 34.5t65.5 12.5t61.5 -12t47.5 -32.5t31 -48t11 -58.5q0 -37 -14.5 -68t-38.5 -53t-55.5 -34.5t-65.5 -12.5t-62 12t-48.5 32.5t-31.5 48t-11 58.5z" />
<glyph unicode="&#xc0;" d="M-98 0l649 1307h344l125 -1307h-260l-21 258h-456l-125 -258h-256zM0 1307zM330 1671h329l213 -225h-243zM381 459h342l-47 608z" />
<glyph unicode="&#xc1;" d="M-98 0l649 1307h344l125 -1307h-260l-21 258h-456l-125 -258h-256zM0 1307zM381 459h342l-47 608zM627 1446l233 225h330l-320 -225h-243z" />
<glyph unicode="&#xc2;" d="M-98 0l649 1307h344l125 -1307h-260l-21 258h-456l-125 -258h-256zM0 1307zM381 459h342l-47 608zM412 1446l282 225h205l193 -225h-209l-105 94l-141 -94h-225z" />
<glyph unicode="&#xc3;" d="M-98 0l649 1307h344l125 -1307h-260l-21 258h-456l-125 -258h-256zM0 1307zM381 459h342l-47 608zM389 1538q47 81 106.5 119.5t141.5 38.5q57 0 96.5 -16t70.5 -35.5t58.5 -35.5t59.5 -16q37 0 67.5 23.5t59.5 66.5l104 -104q-45 -80 -104.5 -119t-141.5 -39 q-57 0 -96 16t-70 35.5t-58.5 35.5t-59.5 16q-38 0 -68 -23.5t-61 -66.5z" />
<glyph unicode="&#xc4;" d="M-98 0l649 1307h344l125 -1307h-260l-21 258h-456l-125 -258h-256zM0 1307zM381 459h342l-47 608zM414 1544q0 31 11.5 58t30.5 46.5t44.5 30.5t54.5 11q28 0 52.5 -10.5t42.5 -28.5t28 -41.5t10 -48.5q0 -32 -12 -58.5t-32 -46t-46 -30.5t-53 -11q-29 0 -53.5 10.5 t-41.5 28.5t-26.5 41.5t-9.5 48.5zM856 1544q0 31 11.5 58t31 46.5t45 30.5t53.5 11t52.5 -10.5t42.5 -28.5t28 -41.5t10 -48.5q0 -32 -12 -58.5t-32 -46t-45.5 -30.5t-53.5 -11q-29 0 -53.5 10.5t-41.5 28.5t-26.5 41.5t-9.5 48.5z" />
<glyph unicode="&#xc5;" d="M-98 0l649 1307h344l125 -1307h-260l-21 258h-456l-125 -258h-256zM0 1307zM381 459h342l-47 608zM541 1526q0 53 19 93t51.5 67t75 41t89.5 14q48 0 87.5 -13.5t68 -38t44 -59t15.5 -76.5q0 -51 -18.5 -91.5t-50 -68.5t-73.5 -42.5t-89 -14.5t-87 13.5t-69.5 38.5 t-46 60t-16.5 77zM680 1533q0 -34 23 -55t61 -21t63 22.5t25 65.5q0 34 -22 55t-60 21t-64 -22.5t-26 -65.5z" />
<glyph unicode="&#xc6;" d="M-152 0l758 1307h629l-41 -199h-268l-68 -338h252l-39 -195h-252l-76 -376h279l-39 -199h-498l52 262h-295l-142 -262h-252zM344 449h229l134 659z" />
<glyph unicode="&#xc7;" d="M90 455q0 35 5 91t19.5 124t39 143t63.5 147.5t94.5 138.5t130 116.5t171 80t218.5 29.5q90 0 172.5 -12.5t153.5 -34.5l-47 -227q-62 23 -135.5 40t-151.5 17q-96 0 -167.5 -36t-123 -92.5t-85.5 -127.5t-53.5 -141t-27.5 -132.5t-8 -101.5q0 -44 7.5 -92t35.5 -88.5 t82 -67t146 -26.5q33 0 71.5 5.5t78 15t79.5 22.5t76 28v-221q-79 -30 -152 -47t-146 -22l-151 -279h-180l111 295q-92 22 -154.5 67.5t-100.5 106.5t-54.5 133.5t-16.5 147.5z" />
<glyph unicode="&#xc8;" d="M0 1307zM82 0l262 1307h786l-43 -208h-536l-66 -325h512l-39 -203h-512l-73 -363h536l-41 -208h-786zM330 1671h329l213 -225h-243z" />
<glyph unicode="&#xc9;" d="M0 1307zM82 0l262 1307h786l-43 -208h-536l-66 -325h512l-39 -203h-512l-73 -363h536l-41 -208h-786zM627 1446l233 225h330l-320 -225h-243z" />
<glyph unicode="&#xca;" d="M0 1307zM82 0l262 1307h786l-43 -208h-536l-66 -325h512l-39 -203h-512l-73 -363h536l-41 -208h-786zM412 1446l282 225h205l193 -225h-209l-105 94l-141 -94h-225z" />
<glyph unicode="&#xcb;" d="M0 1307zM82 0l262 1307h786l-43 -208h-536l-66 -325h512l-39 -203h-512l-73 -363h536l-41 -208h-786zM414 1544q0 31 11.5 58t30.5 46.5t44.5 30.5t54.5 11q28 0 52.5 -10.5t42.5 -28.5t28 -41.5t10 -48.5q0 -32 -12 -58.5t-32 -46t-46 -30.5t-53 -11q-29 0 -53.5 10.5 t-41.5 28.5t-26.5 41.5t-9.5 48.5zM856 1544q0 31 11.5 58t31 46.5t45 30.5t53.5 11t52.5 -10.5t42.5 -28.5t28 -41.5t10 -48.5q0 -32 -12 -58.5t-32 -46t-45.5 -30.5t-53.5 -11q-29 0 -53.5 10.5t-41.5 28.5t-26.5 41.5t-9.5 48.5z" />
<glyph unicode="&#xcc;" d="M0 1307zM47 0l39 202h290l182 903h-290l41 202h828l-41 -202h-289l-181 -903h287l-39 -202h-827zM330 1671h329l213 -225h-243z" />
<glyph unicode="&#xcd;" d="M0 1307zM47 0l39 202h290l182 903h-290l41 202h828l-41 -202h-289l-181 -903h287l-39 -202h-827zM627 1446l233 225h330l-320 -225h-243z" />
<glyph unicode="&#xce;" d="M0 1307zM47 0l39 202h290l182 903h-290l41 202h828l-41 -202h-289l-181 -903h287l-39 -202h-827zM412 1446l282 225h205l193 -225h-209l-105 94l-141 -94h-225z" />
<glyph unicode="&#xcf;" d="M0 1307zM47 0l39 202h290l182 903h-290l41 202h828l-41 -202h-289l-181 -903h287l-39 -202h-827zM414 1544q0 31 11.5 58t30.5 46.5t44.5 30.5t54.5 11q28 0 52.5 -10.5t42.5 -28.5t28 -41.5t10 -48.5q0 -32 -12 -58.5t-32 -46t-46 -30.5t-53 -11q-29 0 -53.5 10.5 t-41.5 28.5t-26.5 41.5t-9.5 48.5zM856 1544q0 31 11.5 58t31 46.5t45 30.5t53.5 11t52.5 -10.5t42.5 -28.5t28 -41.5t10 -48.5q0 -32 -12 -58.5t-32 -46t-45.5 -30.5t-53.5 -11q-29 0 -53.5 10.5t-41.5 28.5t-26.5 41.5t-9.5 48.5z" />
<glyph unicode="&#xd0;" d="M4 0l115 571h-107l39 203h109l106 533h355q248 0 374.5 -111.5t126.5 -335.5q0 -41 -4.5 -100t-18 -127.5t-38 -142t-65.5 -143.5t-99.5 -133t-140 -110.5t-188 -75.5t-242.5 -28h-322zM291 206h82q105 0 182 33.5t130.5 88t87.5 123.5t52.5 139t25.5 136t7 114 q0 63 -15 111.5t-48 81.5t-86 50.5t-129 17.5h-111l-66 -327h232l-39 -203h-234z" />
<glyph unicode="&#xd1;" d="M-2 0l262 1307h289l199 -785l32 -153l115 577l74 361h225l-262 -1307h-289l-194 780l-39 168l-109 -542l-80 -406h-223zM0 1307zM389 1538q47 81 106.5 119.5t141.5 38.5q57 0 96.5 -16t70.5 -35.5t58.5 -35.5t59.5 -16q37 0 67.5 23.5t59.5 66.5l104 -104 q-45 -80 -104.5 -119t-141.5 -39q-57 0 -96 16t-70 35.5t-58.5 35.5t-59.5 16q-38 0 -68 -23.5t-61 -66.5z" />
<glyph unicode="&#xd2;" d="M0 1307zM41 418q0 100 17 206t52 207.5t89 192t129 158t171.5 107.5t215.5 40q205 0 314.5 -112.5t109.5 -327.5q0 -100 -17 -206.5t-52 -208t-89 -191.5t-129 -158t-171.5 -108t-215.5 -40q-205 0 -314.5 113t-109.5 328zM299 438q0 -124 47 -182t154 -58q63 0 115.5 28 t95 76t74.5 112.5t53.5 139t32 155t10.5 159.5q0 124 -47.5 182t-153.5 58q-63 0 -115.5 -27.5t-95 -75.5t-74.5 -113t-53.5 -139t-32 -155t-10.5 -160zM330 1671h329l213 -225h-243z" />
<glyph unicode="&#xd3;" d="M0 1307zM41 418q0 100 17 206t52 207.5t89 192t129 158t171.5 107.5t215.5 40q205 0 314.5 -112.5t109.5 -327.5q0 -100 -17 -206.5t-52 -208t-89 -191.5t-129 -158t-171.5 -108t-215.5 -40q-205 0 -314.5 113t-109.5 328zM299 438q0 -124 47 -182t154 -58q63 0 115.5 28 t95 76t74.5 112.5t53.5 139t32 155t10.5 159.5q0 124 -47.5 182t-153.5 58q-63 0 -115.5 -27.5t-95 -75.5t-74.5 -113t-53.5 -139t-32 -155t-10.5 -160zM627 1446l233 225h330l-320 -225h-243z" />
<glyph unicode="&#xd4;" d="M0 1307zM41 418q0 100 17 206t52 207.5t89 192t129 158t171.5 107.5t215.5 40q205 0 314.5 -112.5t109.5 -327.5q0 -100 -17 -206.5t-52 -208t-89 -191.5t-129 -158t-171.5 -108t-215.5 -40q-205 0 -314.5 113t-109.5 328zM299 438q0 -124 47 -182t154 -58q63 0 115.5 28 t95 76t74.5 112.5t53.5 139t32 155t10.5 159.5q0 124 -47.5 182t-153.5 58q-63 0 -115.5 -27.5t-95 -75.5t-74.5 -113t-53.5 -139t-32 -155t-10.5 -160zM412 1446l282 225h205l193 -225h-209l-105 94l-141 -94h-225z" />
<glyph unicode="&#xd5;" d="M0 1307zM41 418q0 100 17 206t52 207.5t89 192t129 158t171.5 107.5t215.5 40q205 0 314.5 -112.5t109.5 -327.5q0 -100 -17 -206.5t-52 -208t-89 -191.5t-129 -158t-171.5 -108t-215.5 -40q-205 0 -314.5 113t-109.5 328zM299 438q0 -124 47 -182t154 -58q63 0 115.5 28 t95 76t74.5 112.5t53.5 139t32 155t10.5 159.5q0 124 -47.5 182t-153.5 58q-63 0 -115.5 -27.5t-95 -75.5t-74.5 -113t-53.5 -139t-32 -155t-10.5 -160zM389 1538q47 81 106.5 119.5t141.5 38.5q57 0 96.5 -16t70.5 -35.5t58.5 -35.5t59.5 -16q37 0 67.5 23.5t59.5 66.5 l104 -104q-45 -80 -104.5 -119t-141.5 -39q-57 0 -96 16t-70 35.5t-58.5 35.5t-59.5 16q-38 0 -68 -23.5t-61 -66.5z" />
<glyph unicode="&#xd6;" d="M0 1307zM41 418q0 100 17 206t52 207.5t89 192t129 158t171.5 107.5t215.5 40q205 0 314.5 -112.5t109.5 -327.5q0 -100 -17 -206.5t-52 -208t-89 -191.5t-129 -158t-171.5 -108t-215.5 -40q-205 0 -314.5 113t-109.5 328zM299 438q0 -124 47 -182t154 -58q63 0 115.5 28 t95 76t74.5 112.5t53.5 139t32 155t10.5 159.5q0 124 -47.5 182t-153.5 58q-63 0 -115.5 -27.5t-95 -75.5t-74.5 -113t-53.5 -139t-32 -155t-10.5 -160zM414 1544q0 31 11.5 58t30.5 46.5t44.5 30.5t54.5 11q28 0 52.5 -10.5t42.5 -28.5t28 -41.5t10 -48.5q0 -32 -12 -58.5 t-32 -46t-46 -30.5t-53 -11q-29 0 -53.5 10.5t-41.5 28.5t-26.5 41.5t-9.5 48.5zM856 1544q0 31 11.5 58t31 46.5t45 30.5t53.5 11t52.5 -10.5t42.5 -28.5t28 -41.5t10 -48.5q0 -32 -12 -58.5t-32 -46t-45.5 -30.5t-53.5 -11q-29 0 -53.5 10.5t-41.5 28.5t-26.5 41.5 t-9.5 48.5z" />
<glyph unicode="&#xd7;" d="M69 256l349 293l-239 298l178 145l237 -294l351 294l127 -155l-351 -296l237 -295l-178 -146l-235 293l-349 -293z" />
<glyph unicode="&#xd8;" d="M37 -215l145 281q-69 55 -105 143t-36 209q0 100 16.5 206t50.5 207.5t87.5 192t128 158t170 107.5t215.5 40q66 0 120 -12l107 205h209l-146 -283q69 -56 104.5 -143.5t35.5 -206.5q0 -100 -16.5 -206.5t-51 -208t-88 -191.5t-127.5 -158t-170 -108t-215 -40 q-32 0 -62.5 3.5t-58.5 9.5l-104 -205h-209zM293 438q0 -38 3.5 -70.5t12.5 -58.5l414 802q-11 2 -23 3t-26 1q-63 0 -115.5 -28.5t-95 -77t-74.5 -114t-53.5 -141t-32 -156.5t-10.5 -160zM457 193q12 -2 23.5 -2h25.5q63 0 115.5 29t95 77.5t74.5 114t53.5 140.5t32 156 t10.5 160q0 38 -3.5 69.5t-13.5 57.5z" />
<glyph unicode="&#xd9;" d="M0 1307zM60 319q0 66 17 142l169 846h246l-170 -852q-12 -62 -12 -109q0 -41 10 -72t31 -52t57 -31.5t86 -10.5q60 0 107.5 15.5t83 50t59.5 88t39 130.5l170 843h247l-171 -846q-25 -125 -73 -216.5t-119 -151t-165 -88t-209 -28.5q-106 0 -183.5 24t-127 69t-71 108 t-21.5 141zM330 1671h329l213 -225h-243z" />
<glyph unicode="&#xda;" d="M0 1307zM60 319q0 66 17 142l169 846h246l-170 -852q-12 -62 -12 -109q0 -41 10 -72t31 -52t57 -31.5t86 -10.5q60 0 107.5 15.5t83 50t59.5 88t39 130.5l170 843h247l-171 -846q-25 -125 -73 -216.5t-119 -151t-165 -88t-209 -28.5q-106 0 -183.5 24t-127 69t-71 108 t-21.5 141zM627 1446l233 225h330l-320 -225h-243z" />
<glyph unicode="&#xdb;" d="M0 1307zM60 319q0 66 17 142l169 846h246l-170 -852q-12 -62 -12 -109q0 -41 10 -72t31 -52t57 -31.5t86 -10.5q60 0 107.5 15.5t83 50t59.5 88t39 130.5l170 843h247l-171 -846q-25 -125 -73 -216.5t-119 -151t-165 -88t-209 -28.5q-106 0 -183.5 24t-127 69t-71 108 t-21.5 141zM412 1446l282 225h205l193 -225h-209l-105 94l-141 -94h-225z" />
<glyph unicode="&#xdc;" d="M0 1307zM60 319q0 66 17 142l169 846h246l-170 -852q-12 -62 -12 -109q0 -41 10 -72t31 -52t57 -31.5t86 -10.5q60 0 107.5 15.5t83 50t59.5 88t39 130.5l170 843h247l-171 -846q-25 -125 -73 -216.5t-119 -151t-165 -88t-209 -28.5q-106 0 -183.5 24t-127 69t-71 108 t-21.5 141zM414 1544q0 31 11.5 58t30.5 46.5t44.5 30.5t54.5 11q28 0 52.5 -10.5t42.5 -28.5t28 -41.5t10 -48.5q0 -32 -12 -58.5t-32 -46t-46 -30.5t-53 -11q-29 0 -53.5 10.5t-41.5 28.5t-26.5 41.5t-9.5 48.5zM856 1544q0 31 11.5 58t31 46.5t45 30.5t53.5 11 t52.5 -10.5t42.5 -28.5t28 -41.5t10 -48.5q0 -32 -12 -58.5t-32 -46t-45.5 -30.5t-53.5 -11q-29 0 -53.5 10.5t-41.5 28.5t-26.5 41.5t-9.5 48.5z" />
<glyph unicode="&#xdd;" d="M0 1307zM170 1307h258l113 -404l49 -198l131 204l276 398h277l-600 -844l-91 -463h-250l93 461zM627 1446l233 225h330l-320 -225h-243z" />
<glyph unicode="&#xde;" d="M33 0l261 1307h248l-36 -180h123q127 0 214.5 -28t141.5 -74t78 -106t24 -124q0 -108 -38 -208.5t-115 -177.5t-194.5 -123t-276.5 -46h-134l-48 -240h-248zM369 444h128q75 0 136 24.5t103.5 67t66 99.5t23.5 122q0 32 -9.5 62t-34.5 53t-69 37t-114 14h-134z" />
<glyph unicode="&#xdf;" d="M-102 -397q23 44 44 94t39 102t32.5 103t23.5 98l205 1030q21 106 67.5 182t112.5 125t148 72t175 23q84 0 149.5 -18.5t110 -52t68 -82t23.5 -108.5q0 -73 -22 -123.5t-55.5 -87.5t-72 -64t-72 -52t-55.5 -53t-22 -66q0 -34 17 -62.5t42.5 -55.5t55 -56t55 -63 t42.5 -75.5t17 -95.5q0 -68 -28 -128t-83 -106t-137 -72.5t-190 -26.5q-26 0 -52.5 1t-51 3t-46 5t-37.5 7l39 199q35 -11 78 -18t86 -7q82 0 125 36.5t43 96.5q0 32 -16.5 59t-41.5 53t-54.5 52.5t-54.5 59t-41.5 73t-16.5 92.5q0 70 22.5 118.5t56.5 83.5t73.5 62 t73.5 54.5t56.5 60.5t22.5 80q0 25 -10 42t-27.5 27.5t-41 15.5t-50.5 5q-94 0 -154.5 -53.5t-83.5 -163.5l-204 -1028q-22 -106 -56 -202t-84 -195h-243z" />
<glyph unicode="&#xe0;" d="M0 1016zM61 330q0 153 41 282.5t119 223t191.5 146t257.5 52.5q77 0 137.5 -10.5t105.5 -24.5l174 37l-112 -563q-6 -32 -12 -68.5t-12.5 -90t-14.5 -129.5t-18 -185h-199l8 184q-23 -35 -58 -71.5t-81.5 -66.5t-103 -49.5t-122.5 -19.5q-148 0 -224.5 92t-76.5 261z M229 1413h330l252 -262h-244zM315 346q0 -80 27.5 -122t83.5 -42q46 0 98 37t99 95t82.5 129t48.5 139l47 239q-32 11 -65.5 17t-71.5 6q-71 0 -124.5 -25.5t-92.5 -67t-64.5 -94.5t-40.5 -108t-21 -108.5t-6 -94.5z" />
<glyph unicode="&#xe1;" d="M0 1016zM61 330q0 153 41 282.5t119 223t191.5 146t257.5 52.5q77 0 137.5 -10.5t105.5 -24.5l174 37l-112 -563q-6 -32 -12 -68.5t-12.5 -90t-14.5 -129.5t-18 -185h-199l8 184q-23 -35 -58 -71.5t-81.5 -66.5t-103 -49.5t-122.5 -19.5q-148 0 -224.5 92t-76.5 261z M315 346q0 -80 27.5 -122t83.5 -42q46 0 98 37t99 95t82.5 129t48.5 139l47 239q-32 11 -65.5 17t-71.5 6q-71 0 -124.5 -25.5t-92.5 -67t-64.5 -94.5t-40.5 -108t-21 -108.5t-6 -94.5zM567 1151l273 262h329l-358 -262h-244z" />
<glyph unicode="&#xe2;" d="M0 1016zM61 330q0 153 41 282.5t119 223t191.5 146t257.5 52.5q77 0 137.5 -10.5t105.5 -24.5l174 37l-112 -563q-6 -32 -12 -68.5t-12.5 -90t-14.5 -129.5t-18 -185h-199l8 184q-23 -35 -58 -71.5t-81.5 -66.5t-103 -49.5t-122.5 -19.5q-148 0 -224.5 92t-76.5 261z M315 346q0 -80 27.5 -122t83.5 -42q46 0 98 37t99 95t82.5 129t48.5 139l47 239q-32 11 -65.5 17t-71.5 6q-71 0 -124.5 -25.5t-92.5 -67t-64.5 -94.5t-40.5 -108t-21 -108.5t-6 -94.5zM354 1151l299 262h185l192 -262h-207l-98 123l-147 -123h-224z" />
<glyph unicode="&#xe3;" d="M0 1016zM61 330q0 153 41 282.5t119 223t191.5 146t257.5 52.5q77 0 137.5 -10.5t105.5 -24.5l174 37l-112 -563q-6 -32 -12 -68.5t-12.5 -90t-14.5 -129.5t-18 -185h-199l8 184q-23 -35 -58 -71.5t-81.5 -66.5t-103 -49.5t-122.5 -19.5q-148 0 -224.5 92t-76.5 261z M315 346q0 -80 27.5 -122t83.5 -42q46 0 98 37t99 95t82.5 129t48.5 139l47 239q-32 11 -65.5 17t-71.5 6q-71 0 -124.5 -25.5t-92.5 -67t-64.5 -94.5t-40.5 -108t-21 -108.5t-6 -94.5zM336 1276q85 157 246 157q57 0 96 -17t70 -37.5t58.5 -38t59.5 -17.5q37 0 68.5 23.5 t62.5 66.5l103 -108q-44 -81 -104 -119.5t-142 -38.5q-57 0 -96.5 17t-70.5 38t-58.5 38t-59.5 17q-37 0 -68.5 -23t-62.5 -67z" />
<glyph unicode="&#xe4;" d="M0 1016zM61 330q0 153 41 282.5t119 223t191.5 146t257.5 52.5q77 0 137.5 -10.5t105.5 -24.5l174 37l-112 -563q-6 -32 -12 -68.5t-12.5 -90t-14.5 -129.5t-18 -185h-199l8 184q-23 -35 -58 -71.5t-81.5 -66.5t-103 -49.5t-122.5 -19.5q-148 0 -224.5 92t-76.5 261z M315 346q0 -80 27.5 -122t83.5 -42q46 0 98 37t99 95t82.5 129t48.5 139l47 239q-32 11 -65.5 17t-71.5 6q-71 0 -124.5 -25.5t-92.5 -67t-64.5 -94.5t-40.5 -108t-21 -108.5t-6 -94.5zM373 1284q0 31 11.5 58t31.5 46.5t45.5 30.5t54.5 11q28 0 52.5 -11t41.5 -29t27 -41.5 t10 -48.5q0 -31 -11.5 -57.5t-31.5 -46t-46 -30.5t-54 -11q-29 0 -53 10.5t-41 28.5t-27 41.5t-10 48.5zM791 1284q0 31 11.5 58t31.5 46.5t45.5 30.5t54.5 11q28 0 52.5 -11t41.5 -29t27 -41.5t10 -48.5q0 -31 -12 -57.5t-31.5 -46t-45.5 -30.5t-54 -11q-29 0 -53 10.5 t-41 28.5t-27 41.5t-10 48.5z" />
<glyph unicode="&#xe5;" d="M0 1016zM61 330q0 153 41 282.5t119 223t191.5 146t257.5 52.5q77 0 137.5 -10.5t105.5 -24.5l174 37l-112 -563q-6 -32 -12 -68.5t-12.5 -90t-14.5 -129.5t-18 -185h-199l8 184q-23 -35 -58 -71.5t-81.5 -66.5t-103 -49.5t-122.5 -19.5q-148 0 -224.5 92t-76.5 261z M315 346q0 -80 27.5 -122t83.5 -42q46 0 98 37t99 95t82.5 129t48.5 139l47 239q-32 11 -65.5 17t-71.5 6q-71 0 -124.5 -25.5t-92.5 -67t-64.5 -94.5t-40.5 -108t-21 -108.5t-6 -94.5zM483 1311q0 55 21 99.5t56 76t80.5 48.5t94.5 17q50 0 92 -16.5t72 -45.5t47 -67.5 t17 -83.5q0 -54 -20.5 -98.5t-54.5 -76.5t-79 -50t-94 -18t-91.5 17t-73.5 46t-49 68t-18 84zM629 1324q-1 -20 6 -37t19.5 -30t29.5 -20t37 -7q40 0 67 27t29 67q3 40 -22.5 67t-65.5 27t-68.5 -27t-31.5 -67z" />
<glyph unicode="&#xe6;" d="M-33 221q0 38 6.5 82t23.5 87t47 82.5t75.5 69.5t109.5 48t150 18h104l15 74q3 19 5.5 36.5t2.5 33.5q0 49 -25.5 79.5t-91.5 30.5q-46 0 -108 -18.5t-127 -50.5v182q62 28 134 45.5t140 17.5q90 0 149 -29t87 -75q45 45 104 74.5t137 29.5q72 0 119.5 -20.5t76 -55 t40.5 -78.5t12 -91q0 -78 -33 -140.5t-93 -106.5t-143.5 -67.5t-185.5 -23.5h-57q-12 -62 -12 -111q0 -91 37 -139.5t106 -48.5q50 0 99.5 12t111.5 37v-176q-27 -10 -59.5 -19.5t-68 -16.5t-72.5 -11.5t-74 -4.5q-53 0 -93 11t-68.5 32t-47 50.5t-29.5 66.5 q-19 -34 -46 -63t-60.5 -50.5t-71.5 -34t-80 -12.5q-118 0 -182 60t-64 184zM178 244q-2 -42 15.5 -65t54.5 -23q29 0 59 18t56.5 50.5t46.5 76.5t30 96l13 58h-93q-51 0 -86 -18.5t-56.5 -48.5t-30.5 -68t-9 -76zM674 608h45q61 0 103.5 12t69.5 33.5t39.5 52t12.5 68.5 q0 88 -76 88q-60 0 -111 -66t-83 -188z" />
<glyph unicode="&#xe7;" d="M119 373q0 80 17.5 160t52 153.5t87.5 136.5t123.5 109.5t159 73t195.5 26.5q93 0 168 -13t129 -30l-45 -229q-56 28 -126 45.5t-135 17.5q-70 0 -123.5 -20.5t-94 -54.5t-68 -78t-44.5 -91t-24.5 -93.5t-7.5 -84.5q0 -102 60 -154t169 -52q70 0 140 16.5t135 42.5v-209 q-65 -26 -135 -40.5t-131 -19.5l-150 -280h-181l111 295q-140 33 -211 127t-71 246z" />
<glyph unicode="&#xe8;" d="M0 1016zM88 356q0 138 42.5 262t120 217.5t186.5 148t243 54.5q87 0 154.5 -20t114 -56t71 -86.5t24.5 -111.5q0 -77 -31 -139.5t-100 -107t-179.5 -69t-268.5 -24.5h-133q-2 -12 -3 -27.5t-1 -34.5q0 -91 57.5 -140.5t169.5 -49.5q75 0 161 11.5t165 33.5v-190 q-84 -22 -180.5 -36t-192.5 -14q-98 0 -176 24t-132 71t-83 118t-29 166zM229 1413h330l252 -262h-244zM371 598h106q105 0 169 12t99.5 31.5t47.5 45.5t12 54q0 53 -41 84t-109 31q-55 0 -101 -20.5t-81.5 -55.5t-61 -82t-40.5 -100z" />
<glyph unicode="&#xe9;" d="M0 1016zM88 356q0 138 42.5 262t120 217.5t186.5 148t243 54.5q87 0 154.5 -20t114 -56t71 -86.5t24.5 -111.5q0 -77 -31 -139.5t-100 -107t-179.5 -69t-268.5 -24.5h-133q-2 -12 -3 -27.5t-1 -34.5q0 -91 57.5 -140.5t169.5 -49.5q75 0 161 11.5t165 33.5v-190 q-84 -22 -180.5 -36t-192.5 -14q-98 0 -176 24t-132 71t-83 118t-29 166zM371 598h106q105 0 169 12t99.5 31.5t47.5 45.5t12 54q0 53 -41 84t-109 31q-55 0 -101 -20.5t-81.5 -55.5t-61 -82t-40.5 -100zM567 1151l273 262h329l-358 -262h-244z" />
<glyph unicode="&#xea;" d="M0 1016zM88 356q0 138 42.5 262t120 217.5t186.5 148t243 54.5q87 0 154.5 -20t114 -56t71 -86.5t24.5 -111.5q0 -77 -31 -139.5t-100 -107t-179.5 -69t-268.5 -24.5h-133q-2 -12 -3 -27.5t-1 -34.5q0 -91 57.5 -140.5t169.5 -49.5q75 0 161 11.5t165 33.5v-190 q-84 -22 -180.5 -36t-192.5 -14q-98 0 -176 24t-132 71t-83 118t-29 166zM354 1151l299 262h185l192 -262h-207l-98 123l-147 -123h-224zM371 598h106q105 0 169 12t99.5 31.5t47.5 45.5t12 54q0 53 -41 84t-109 31q-55 0 -101 -20.5t-81.5 -55.5t-61 -82t-40.5 -100z" />
<glyph unicode="&#xeb;" d="M0 1016zM88 356q0 138 42.5 262t120 217.5t186.5 148t243 54.5q87 0 154.5 -20t114 -56t71 -86.5t24.5 -111.5q0 -77 -31 -139.5t-100 -107t-179.5 -69t-268.5 -24.5h-133q-2 -12 -3 -27.5t-1 -34.5q0 -91 57.5 -140.5t169.5 -49.5q75 0 161 11.5t165 33.5v-190 q-84 -22 -180.5 -36t-192.5 -14q-98 0 -176 24t-132 71t-83 118t-29 166zM371 598h106q105 0 169 12t99.5 31.5t47.5 45.5t12 54q0 53 -41 84t-109 31q-55 0 -101 -20.5t-81.5 -55.5t-61 -82t-40.5 -100zM373 1284q0 31 11.5 58t31.5 46.5t45.5 30.5t54.5 11q28 0 52.5 -11 t41.5 -29t27 -41.5t10 -48.5q0 -31 -11.5 -57.5t-31.5 -46t-46 -30.5t-54 -11q-29 0 -53 10.5t-41 28.5t-27 41.5t-10 48.5zM791 1284q0 31 11.5 58t31.5 46.5t45.5 30.5t54.5 11q28 0 52.5 -11t41.5 -29t27 -41.5t10 -48.5q0 -31 -12 -57.5t-31.5 -46t-45.5 -30.5t-54 -11 q-29 0 -53 10.5t-41 28.5t-27 41.5t-10 48.5z" />
<glyph unicode="&#xec;" d="M20 1016zM164 772v186q65 36 139 58t152 22q170 0 237 -88.5t29 -281.5l-66 -328q-18 -95 1 -133.5t75 -38.5q47 0 104 20.5t130 55.5v-187q-65 -35 -139.5 -57.5t-151.5 -22.5q-171 0 -238 88.5t-28 282.5l65 328q19 95 -1 133.5t-75 38.5q-46 0 -103.5 -20.5 t-129.5 -55.5zM249 1413h330l252 -262h-244z" />
<glyph unicode="&#xed;" d="M20 1016zM164 772v186q65 36 139 58t152 22q170 0 237 -88.5t29 -281.5l-66 -328q-18 -95 1 -133.5t75 -38.5q47 0 104 20.5t130 55.5v-187q-65 -35 -139.5 -57.5t-151.5 -22.5q-171 0 -238 88.5t-28 282.5l65 328q19 95 -1 133.5t-75 38.5q-46 0 -103.5 -20.5 t-129.5 -55.5zM587 1151l273 262h329l-358 -262h-244z" />
<glyph unicode="&#xee;" d="M0 1016zM164 772v186q65 36 139 58t152 22q170 0 237 -88.5t29 -281.5l-66 -328q-18 -95 1 -133.5t75 -38.5q47 0 104 20.5t130 55.5v-187q-65 -35 -139.5 -57.5t-151.5 -22.5q-171 0 -238 88.5t-28 282.5l65 328q19 95 -1 133.5t-75 38.5q-46 0 -103.5 -20.5 t-129.5 -55.5zM354 1151l299 262h185l192 -262h-207l-98 123l-147 -123h-224z" />
<glyph unicode="&#xef;" d="M20 1016zM164 772v186q65 36 139 58t152 22q170 0 237 -88.5t29 -281.5l-66 -328q-18 -95 1 -133.5t75 -38.5q47 0 104 20.5t130 55.5v-187q-65 -35 -139.5 -57.5t-151.5 -22.5q-171 0 -238 88.5t-28 282.5l65 328q19 95 -1 133.5t-75 38.5q-46 0 -103.5 -20.5 t-129.5 -55.5zM393 1284q0 31 11.5 58t31.5 46.5t45.5 30.5t54.5 11q28 0 52.5 -11t41.5 -29t27 -41.5t10 -48.5q0 -31 -11.5 -57.5t-31.5 -46t-46 -30.5t-54 -11q-29 0 -53 10.5t-41 28.5t-27 41.5t-10 48.5zM811 1284q0 31 11.5 58t31.5 46.5t45.5 30.5t54.5 11 q28 0 52.5 -11t41.5 -29t27 -41.5t10 -48.5q0 -31 -12 -57.5t-31.5 -46t-45.5 -30.5t-54 -11q-29 0 -53 10.5t-41 28.5t-27 41.5t-10 48.5z" />
<glyph unicode="&#xf0;" d="M57 338q0 57 11 131t37.5 151.5t70.5 151.5t111 132.5t159 94t213 35.5h27q-11 25 -23 48.5t-26 47.5l-299 -61v180l201 41l-84 123h301l45 -70l301 62v-180l-207 -43q76 -145 111.5 -269.5t35.5 -242.5q0 -64 -10.5 -140t-36 -153t-69 -149.5t-110 -128t-158.5 -89 t-214 -33.5q-197 0 -292 94.5t-95 266.5zM313 371q0 -96 43 -140.5t131 -44.5q72 0 127 39t92.5 103t56.5 146t19 167q0 91 -24 186q-25 7 -54 11t-57 4q-61 0 -110 -23t-86 -61t-63 -87t-43 -101.5t-24.5 -104t-7.5 -94.5z" />
<glyph unicode="&#xf1;" d="M0 1016zM43 0l109 543q6 31 11.5 68t12 90.5t14.5 129.5t19 185h199l-9 -185q23 35 58.5 71.5t82 66.5t103 49.5t121.5 19.5q81 0 137.5 -26.5t88.5 -76t40 -120t-10 -158.5l-133 -657h-244l133 662q16 83 -4.5 127.5t-71.5 44.5q-30 0 -64 -17t-67.5 -46.5t-65 -69 t-57.5 -84t-45 -91.5t-28 -92l-86 -434h-244zM336 1276q85 157 246 157q57 0 96 -17t70 -37.5t58.5 -38t59.5 -17.5q37 0 68.5 23.5t62.5 66.5l103 -108q-44 -81 -104 -119.5t-142 -38.5q-57 0 -96.5 17t-70.5 38t-58.5 38t-59.5 17q-37 0 -68.5 -23t-62.5 -67z" />
<glyph unicode="&#xf2;" d="M0 1016zM55 362q0 86 18.5 169.5t54 159t87 139t119 110t149 72.5t176.5 26q94 0 170.5 -23.5t130 -71t82.5 -120t29 -170.5q0 -86 -18.5 -169.5t-53.5 -158.5t-87 -139t-119 -110.5t-149 -72.5t-177 -26t-171 23.5t-129.5 71t-82.5 120t-29 170.5zM229 1413h330 l252 -262h-244zM311 387q0 -99 49 -149t140 -50q54 0 98 20.5t79 55t61 79t43 93.5t25.5 99t8.5 94q0 99 -48.5 148.5t-139.5 49.5q-54 0 -98 -20.5t-79.5 -54.5t-61.5 -79t-43 -94t-25.5 -98.5t-8.5 -93.5z" />
<glyph unicode="&#xf3;" d="M0 1016zM55 362q0 86 18.5 169.5t54 159t87 139t119 110t149 72.5t176.5 26q94 0 170.5 -23.5t130 -71t82.5 -120t29 -170.5q0 -86 -18.5 -169.5t-53.5 -158.5t-87 -139t-119 -110.5t-149 -72.5t-177 -26t-171 23.5t-129.5 71t-82.5 120t-29 170.5zM311 387 q0 -99 49 -149t140 -50q54 0 98 20.5t79 55t61 79t43 93.5t25.5 99t8.5 94q0 99 -48.5 148.5t-139.5 49.5q-54 0 -98 -20.5t-79.5 -54.5t-61.5 -79t-43 -94t-25.5 -98.5t-8.5 -93.5zM567 1151l273 262h329l-358 -262h-244z" />
<glyph unicode="&#xf4;" d="M0 1016zM55 362q0 86 18.5 169.5t54 159t87 139t119 110t149 72.5t176.5 26q94 0 170.5 -23.5t130 -71t82.5 -120t29 -170.5q0 -86 -18.5 -169.5t-53.5 -158.5t-87 -139t-119 -110.5t-149 -72.5t-177 -26t-171 23.5t-129.5 71t-82.5 120t-29 170.5zM311 387 q0 -99 49 -149t140 -50q54 0 98 20.5t79 55t61 79t43 93.5t25.5 99t8.5 94q0 99 -48.5 148.5t-139.5 49.5q-54 0 -98 -20.5t-79.5 -54.5t-61.5 -79t-43 -94t-25.5 -98.5t-8.5 -93.5zM354 1151l299 262h185l192 -262h-207l-98 123l-147 -123h-224z" />
<glyph unicode="&#xf5;" d="M0 1016zM55 362q0 86 18.5 169.5t54 159t87 139t119 110t149 72.5t176.5 26q94 0 170.5 -23.5t130 -71t82.5 -120t29 -170.5q0 -86 -18.5 -169.5t-53.5 -158.5t-87 -139t-119 -110.5t-149 -72.5t-177 -26t-171 23.5t-129.5 71t-82.5 120t-29 170.5zM311 387 q0 -99 49 -149t140 -50q54 0 98 20.5t79 55t61 79t43 93.5t25.5 99t8.5 94q0 99 -48.5 148.5t-139.5 49.5q-54 0 -98 -20.5t-79.5 -54.5t-61.5 -79t-43 -94t-25.5 -98.5t-8.5 -93.5zM336 1276q85 157 246 157q57 0 96 -17t70 -37.5t58.5 -38t59.5 -17.5q37 0 68.5 23.5 t62.5 66.5l103 -108q-44 -81 -104 -119.5t-142 -38.5q-57 0 -96.5 17t-70.5 38t-58.5 38t-59.5 17q-37 0 -68.5 -23t-62.5 -67z" />
<glyph unicode="&#xf6;" d="M0 1016zM55 362q0 86 18.5 169.5t54 159t87 139t119 110t149 72.5t176.5 26q94 0 170.5 -23.5t130 -71t82.5 -120t29 -170.5q0 -86 -18.5 -169.5t-53.5 -158.5t-87 -139t-119 -110.5t-149 -72.5t-177 -26t-171 23.5t-129.5 71t-82.5 120t-29 170.5zM311 387 q0 -99 49 -149t140 -50q54 0 98 20.5t79 55t61 79t43 93.5t25.5 99t8.5 94q0 99 -48.5 148.5t-139.5 49.5q-54 0 -98 -20.5t-79.5 -54.5t-61.5 -79t-43 -94t-25.5 -98.5t-8.5 -93.5zM373 1284q0 31 11.5 58t31.5 46.5t45.5 30.5t54.5 11q28 0 52.5 -11t41.5 -29t27 -41.5 t10 -48.5q0 -31 -11.5 -57.5t-31.5 -46t-46 -30.5t-54 -11q-29 0 -53 10.5t-41 28.5t-27 41.5t-10 48.5zM791 1284q0 31 11.5 58t31.5 46.5t45.5 30.5t54.5 11q28 0 52.5 -11t41.5 -29t27 -41.5t10 -48.5q0 -31 -12 -57.5t-31.5 -46t-45.5 -30.5t-54 -11q-29 0 -53 10.5 t-41 28.5t-27 41.5t-10 48.5z" />
<glyph unicode="&#xf7;" d="M63 444l41 201h971l-41 -201h-971zM334 147q0 35 12.5 64t34.5 50t51 32.5t62 11.5t60.5 -11.5t47 -31t30.5 -46t11 -56.5q0 -33 -13.5 -61t-36 -49t-52 -32.5t-62.5 -11.5t-60 11.5t-45.5 31t-29 45t-10.5 53.5zM489 926q0 34 12.5 63t34.5 50t51 32.5t62 11.5 t60.5 -11.5t47.5 -31t31 -46t11 -56.5q0 -33 -13.5 -61t-36 -49t-52 -32.5t-62.5 -11.5t-60 11.5t-46 31t-29.5 45t-10.5 54.5z" />
<glyph unicode="&#xf8;" d="M55 362q0 86 18 169.5t52.5 159t85.5 139t117.5 110t148 72.5t176.5 26q47 0 92 -6l109 199h205l-141 -258q72 -47 112.5 -126t40.5 -194q0 -86 -18 -169.5t-52.5 -158.5t-85.5 -139t-117.5 -110.5t-148 -72.5t-176.5 -26q-26 0 -49.5 3t-46.5 6l-109 -201h-205l142 260 q-71 46 -110.5 124.5t-39.5 192.5zM295 383q0 -38 6.5 -70t20.5 -57l317 583h-18q-57 0 -103 -21.5t-82 -57t-62.5 -82t-44 -97t-26 -102t-8.5 -96.5zM481 176h19q56 0 102 21t82 56.5t62.5 82t44 97t26 101.5t8.5 97q0 78 -26 126z" />
<glyph unicode="&#xf9;" d="M0 1016zM95.5 200.5q-7.5 70.5 10.5 157.5l134 658h243l-133 -662q-15 -83 5 -127.5t71 -44.5q46 0 98 37t99 95t82.5 129t48.5 139l86 434h243l-108 -543q-6 -32 -12 -68.5t-12.5 -90t-14.5 -129.5t-18 -185h-199l8 184q-23 -35 -58 -71.5t-81.5 -66.5t-103 -49.5 t-122.5 -19.5q-81 0 -137.5 27t-89 76.5t-40 120zM229 1413h330l252 -262h-244z" />
<glyph unicode="&#xfa;" d="M0 1016zM95.5 200.5q-7.5 70.5 10.5 157.5l134 658h243l-133 -662q-15 -83 5 -127.5t71 -44.5q46 0 98 37t99 95t82.5 129t48.5 139l86 434h243l-108 -543q-6 -32 -12 -68.5t-12.5 -90t-14.5 -129.5t-18 -185h-199l8 184q-23 -35 -58 -71.5t-81.5 -66.5t-103 -49.5 t-122.5 -19.5q-81 0 -137.5 27t-89 76.5t-40 120zM567 1151l273 262h329l-358 -262h-244z" />
<glyph unicode="&#xfb;" d="M0 1016zM95.5 200.5q-7.5 70.5 10.5 157.5l134 658h243l-133 -662q-15 -83 5 -127.5t71 -44.5q46 0 98 37t99 95t82.5 129t48.5 139l86 434h243l-108 -543q-6 -32 -12 -68.5t-12.5 -90t-14.5 -129.5t-18 -185h-199l8 184q-23 -35 -58 -71.5t-81.5 -66.5t-103 -49.5 t-122.5 -19.5q-81 0 -137.5 27t-89 76.5t-40 120zM354 1151l299 262h185l192 -262h-207l-98 123l-147 -123h-224z" />
<glyph unicode="&#xfc;" d="M0 1016zM95.5 200.5q-7.5 70.5 10.5 157.5l134 658h243l-133 -662q-15 -83 5 -127.5t71 -44.5q46 0 98 37t99 95t82.5 129t48.5 139l86 434h243l-108 -543q-6 -32 -12 -68.5t-12.5 -90t-14.5 -129.5t-18 -185h-199l8 184q-23 -35 -58 -71.5t-81.5 -66.5t-103 -49.5 t-122.5 -19.5q-81 0 -137.5 27t-89 76.5t-40 120zM373 1284q0 31 11.5 58t31.5 46.5t45.5 30.5t54.5 11q28 0 52.5 -11t41.5 -29t27 -41.5t10 -48.5q0 -31 -11.5 -57.5t-31.5 -46t-46 -30.5t-54 -11q-29 0 -53 10.5t-41 28.5t-27 41.5t-10 48.5zM791 1284q0 31 11.5 58 t31.5 46.5t45.5 30.5t54.5 11q28 0 52.5 -11t41.5 -29t27 -41.5t10 -48.5q0 -31 -12 -57.5t-31.5 -46t-45.5 -30.5t-54 -11q-29 0 -53 10.5t-41 28.5t-27 41.5t-10 48.5z" />
<glyph unicode="&#xfd;" d="M-115 -205q29 -5 60.5 -7.5t62.5 -2.5q42 0 77.5 10t72 35t76.5 66.5t90 103.5l-201 1016h254l143 -785q60 89 106.5 164t80.5 140.5t58 125t39.5 117t25 116t14.5 122.5h260q-8 -65 -20 -127t-31 -125t-46.5 -129t-66.5 -139.5t-90.5 -156.5t-118.5 -179 q-86 -123 -159 -214t-137 -155t-120 -105.5t-109 -64.5t-103.5 -32t-102.5 -9q-37 0 -65 2.5t-50 5.5v207zM0 1016zM567 1151l273 262h329l-358 -262h-244z" />
<glyph unicode="&#xfe;" d="M-43 -397l88 440l274 1370h244l-69 -348l-72 -211q27 43 64 77t81 58t92.5 36.5t98.5 12.5q148 0 224.5 -92t76.5 -260q0 -154 -41 -283t-119 -222.5t-191 -146t-257 -52.5q-48 0 -91 2.5t-81 7.5l-3 -12l-75 -377h-244zM319 195q32 -11 66 -17t72 -6q71 0 124.5 25.5 t92 67t64 94.5t40.5 108t21 108t6 95q0 80 -27.5 122t-83.5 42q-31 0 -64.5 -17t-67 -46.5t-65 -69t-58 -84t-45.5 -91.5t-27 -92z" />
<glyph unicode="&#xff;" d="M-115 -205q29 -5 60.5 -7.5t62.5 -2.5q42 0 77.5 10t72 35t76.5 66.5t90 103.5l-201 1016h254l143 -785q60 89 106.5 164t80.5 140.5t58 125t39.5 117t25 116t14.5 122.5h260q-8 -65 -20 -127t-31 -125t-46.5 -129t-66.5 -139.5t-90.5 -156.5t-118.5 -179 q-86 -123 -159 -214t-137 -155t-120 -105.5t-109 -64.5t-103.5 -32t-102.5 -9q-37 0 -65 2.5t-50 5.5v207zM0 1016zM373 1284q0 31 11.5 58t31.5 46.5t45.5 30.5t54.5 11q28 0 52.5 -11t41.5 -29t27 -41.5t10 -48.5q0 -31 -11.5 -57.5t-31.5 -46t-46 -30.5t-54 -11 q-29 0 -53 10.5t-41 28.5t-27 41.5t-10 48.5zM791 1284q0 31 11.5 58t31.5 46.5t45.5 30.5t54.5 11q28 0 52.5 -11t41.5 -29t27 -41.5t10 -48.5q0 -31 -12 -57.5t-31.5 -46t-45.5 -30.5t-54 -11q-29 0 -53 10.5t-41 28.5t-27 41.5t-10 48.5z" />
<glyph unicode="&#x152;" d="M29 414q0 45 5.5 108t18.5 136t35.5 150.5t56.5 151.5t81.5 140.5t111 116t144 79t180.5 29.5q40 0 71.5 -3t58 -6t51.5 -6t54 -3h363l-41 -197h-289l-68 -340h266l-38 -190h-267l-75 -383h288l-39 -197h-354q-38 0 -66 -3t-54 -6t-53 -6t-62 -3q-102 0 -173.5 29.5 t-117.5 85t-67 135.5t-21 182zM274 414q0 -115 42.5 -169t132.5 -54q26 0 42 3t27 8l183 906q-14 5 -28 6.5t-43 1.5q-67 0 -120 -41t-92.5 -104.5t-67 -142t-44.5 -156.5t-24.5 -146.5t-7.5 -111.5z" />
<glyph unicode="&#x153;" d="M0 270q0 53 7.5 114.5t21.5 133.5q24 121 60.5 217t87.5 163.5t116.5 103.5t148.5 36q78 0 128 -37.5t67 -117.5q48 74 116.5 114.5t153.5 40.5q55 0 100 -17t77.5 -50t50.5 -81t18 -110q0 -56 -21 -116.5t-71 -111t-132.5 -83.5t-205.5 -33h-70q-5 -20 -6.5 -44.5 t-1.5 -49.5q0 -91 34 -142t105 -51q51 0 101.5 15.5t99.5 34.5v-172q-57 -22 -116.5 -36t-120.5 -14q-50 0 -92.5 10t-74.5 29.5t-52.5 49.5t-26.5 68q-20 -32 -48.5 -61.5t-62.5 -50.5t-71 -33t-74 -12q-124 0 -185 70.5t-61 222.5zM193 276q0 -66 19.5 -96.5t59.5 -30.5 q28 0 54 20t50 63.5t46 111.5t41 166q15 74 23 129.5t8 97.5q0 66 -20 97.5t-58 31.5q-29 0 -55.5 -21.5t-50.5 -63.5t-46 -109.5t-41 -163.5q-30 -150 -30 -232zM682 592h57q96 0 155.5 43.5t59.5 128.5q0 28 -6.5 47t-18.5 32.5t-27 18t-31 4.5q-32 0 -59.5 -21t-51 -56 t-43.5 -85t-35 -112z" />
<glyph unicode="&#x178;" d="M0 1307zM170 1307h258l113 -404l49 -198l131 204l276 398h277l-600 -844l-91 -463h-250l93 461zM414 1544q0 31 11.5 58t30.5 46.5t44.5 30.5t54.5 11q28 0 52.5 -10.5t42.5 -28.5t28 -41.5t10 -48.5q0 -32 -12 -58.5t-32 -46t-46 -30.5t-53 -11q-29 0 -53.5 10.5 t-41.5 28.5t-26.5 41.5t-9.5 48.5zM856 1544q0 31 11.5 58t31 46.5t45 30.5t53.5 11t52.5 -10.5t42.5 -28.5t28 -41.5t10 -48.5q0 -32 -12 -58.5t-32 -46t-45.5 -30.5t-53.5 -11q-29 0 -53.5 10.5t-41.5 28.5t-26.5 41.5t-9.5 48.5z" />
<glyph unicode="&#x2c6;" d="M0 1016zM354 1151l299 262h185l192 -262h-207l-98 123l-147 -123h-224z" />
<glyph unicode="&#x2dc;" d="M0 1016zM336 1276q85 157 246 157q57 0 96 -17t70 -37.5t58.5 -38t59.5 -17.5q37 0 68.5 23.5t62.5 66.5l103 -108q-44 -81 -104 -119.5t-142 -38.5q-57 0 -96.5 17t-70.5 38t-58.5 38t-59.5 17q-37 0 -68.5 -23t-62.5 -67z" />
<glyph unicode="&#x2000;" horiz-adv-x="870" />
<glyph unicode="&#x2001;" horiz-adv-x="1741" />
<glyph unicode="&#x2002;" horiz-adv-x="870" />
<glyph unicode="&#x2003;" horiz-adv-x="1741" />
<glyph unicode="&#x2004;" horiz-adv-x="580" />
<glyph unicode="&#x2005;" horiz-adv-x="435" />
<glyph unicode="&#x2006;" horiz-adv-x="290" />
<glyph unicode="&#x2007;" horiz-adv-x="290" />
<glyph unicode="&#x2008;" horiz-adv-x="217" />
<glyph unicode="&#x2009;" horiz-adv-x="348" />
<glyph unicode="&#x200a;" horiz-adv-x="96" />
<glyph unicode="&#x2010;" d="M236 436l45 217h622l-45 -217h-622z" />
<glyph unicode="&#x2011;" d="M236 436l45 217h622l-45 -217h-622z" />
<glyph unicode="&#x2012;" d="M236 436l45 217h622l-45 -217h-622z" />
<glyph unicode="&#x2013;" d="M117 438l43 213h860l-43 -213h-860z" />
<glyph unicode="&#x2014;" d="M-20 438l43 213h1134l-43 -213h-1134z" />
<glyph unicode="&#x2018;" d="M463 915q0 118 49.5 213.5t134 163t197.5 104t241 36.5v-160q-77 1 -138.5 -14.5t-104.5 -41.5t-66.5 -60t-23.5 -69q0 -26 11 -46.5t23.5 -41.5t23.5 -46.5t11 -61.5q0 -39 -13 -72.5t-36.5 -58t-56.5 -39t-74 -14.5q-45 0 -78 15.5t-55.5 43.5t-33.5 66t-11 83z" />
<glyph unicode="&#x2019;" d="M264 707v159q77 -2 138.5 14t105 42t67 60t23.5 69q0 26 -11 46.5t-24 41.5t-24 46.5t-11 61.5q0 39 13 72.5t36.5 58.5t57 39.5t74.5 14.5q44 0 77.5 -16t56 -43.5t33.5 -66t11 -83.5q0 -118 -49.5 -213t-134.5 -162.5t-198.5 -104t-240.5 -36.5z" />
<glyph unicode="&#x201a;" d="M55 -193q77 -2 138.5 14t105 42.5t67 60t23.5 68.5q0 26 -11 46.5t-24 41.5t-24 46.5t-11 61.5q0 39 13 72.5t36.5 58.5t57 39.5t74.5 14.5q44 0 77.5 -15.5t56 -43.5t33.5 -66.5t11 -83.5q0 -118 -49.5 -213t-134.5 -162.5t-198.5 -104t-240.5 -36.5v159z" />
<glyph unicode="&#x201c;" d="M184 997q0 99 40 179t110.5 137t168 88t212.5 31v-154q-59 1 -107 -8.5t-82 -28.5t-52.5 -46t-18.5 -60q0 -23 8 -40.5t17.5 -35t17.5 -38t8 -50.5q0 -33 -12 -62t-33.5 -51t-51.5 -34.5t-65 -12.5q-38 0 -67.5 13.5t-50 38t-31.5 59t-11 75.5zM711 997q0 99 39.5 179 t109.5 137t167 88t212 31v-154q-59 1 -107 -8.5t-82 -28.5t-52.5 -46t-18.5 -60q0 -23 8 -40.5t17.5 -35t17.5 -38t8 -50.5q0 -33 -12 -62t-33.5 -51t-51 -34.5t-65.5 -12.5q-38 0 -67 13.5t-49 38t-30.5 59t-10.5 75.5z" />
<glyph unicode="&#x201d;" d="M129 811v154q59 -2 107 8t82 29t52.5 46t18.5 60q0 23 -8 40t-17.5 34.5t-17.5 38.5t-8 51q0 33 12 62t33.5 51t51.5 34.5t65 12.5q37 0 66.5 -13.5t49.5 -38.5t30.5 -59t10.5 -76q0 -98 -39.5 -178t-109.5 -137t-167 -88t-212 -31zM653 811v154q59 -2 107 8t82 29 t52.5 46t18.5 60q0 23 -8 40t-17.5 34.5t-17.5 38.5t-8 51q0 33 12 62t33.5 51t51.5 34.5t65 12.5q37 0 67 -13.5t50.5 -38.5t31.5 -59t11 -76q0 -98 -39.5 -178t-110.5 -137t-168.5 -88t-212.5 -31z" />
<glyph unicode="&#x201e;" d="M-94 -154q59 -2 107 8t82 29.5t52.5 46.5t18.5 60q0 23 -8 40t-17.5 34.5t-17.5 38.5t-8 51q0 33 12 62t33.5 50.5t51 34t64.5 12.5q38 0 67.5 -13.5t49.5 -38t30.5 -58.5t10.5 -76q0 -98 -39.5 -178t-109.5 -137t-167 -88t-212 -31v153zM430 -154q59 -2 107 8t82 29.5 t52.5 46.5t18.5 60q0 23 -8 40t-17.5 34.5t-17.5 38.5t-8 51q0 33 12 62t33.5 50.5t51.5 34t65 12.5q37 0 67 -13.5t50.5 -38t31.5 -58.5t11 -76q0 -98 -40 -178t-110.5 -137t-168 -88t-212.5 -31v153z" />
<glyph unicode="&#x2022;" d="M209 537q0 82 30.5 152t82.5 121t120.5 79.5t143.5 28.5t138.5 -28t110 -75.5t73 -110t26.5 -131.5q0 -82 -31.5 -151.5t-84 -120.5t-121.5 -79.5t-144 -28.5t-138.5 28t-109 75.5t-71 109.5t-25.5 131z" />
<glyph unicode="&#x2026;" d="M-43 123q0 32 12.5 60t33 48.5t47.5 32.5t56 12q31 0 57 -11.5t45 -31t29.5 -45t10.5 -53.5q0 -34 -13 -63t-34 -50t-48.5 -33t-56.5 -12q-31 0 -56.5 11t-44 30.5t-28.5 46t-10 58.5zM344 123q0 32 12.5 60t33.5 48.5t48 32.5t56 12q30 0 56 -11.5t45 -31t29.5 -45 t10.5 -53.5q0 -34 -13 -63t-34 -50t-48.5 -33t-56.5 -12q-31 0 -56.5 11t-44 30.5t-28.5 46t-10 58.5zM731 123q0 32 12.5 60t33.5 48.5t48 32.5t56 12q31 0 56.5 -11.5t44.5 -31t29.5 -45t10.5 -53.5q0 -34 -13 -63t-34 -50t-48.5 -33t-56.5 -12q-31 0 -56.5 11t-44 30.5 t-28.5 46t-10 58.5z" />
<glyph unicode="&#x202f;" horiz-adv-x="348" />
<glyph unicode="&#x2039;" d="M269 555l470 460l149 -126l-370 -354l228 -353l-178 -107z" />
<glyph unicode="&#x203a;" d="M252 200l370 354l-228 353l178 107l299 -480l-470 -460z" />
<glyph unicode="&#x205f;" horiz-adv-x="435" />
<glyph unicode="&#x20ac;" d="M23 412l30 154h119q5 36 13.5 80.5t19.5 82.5h-119l31 154h139q45 106 109 189t143 140t171 87t193 30q81 0 158 -12.5t150 -40.5l-45 -227q-73 34 -143 48.5t-130 14.5q-111 0 -194.5 -61.5t-139.5 -167.5h363l-31 -154h-395q-12 -38 -21 -81t-12 -82h395l-30 -154h-363 q13 -107 68.5 -162.5t169.5 -55.5q31 0 66.5 5t72 14.5t73 22.5t70.5 28v-215q-88 -35 -170.5 -53.5t-160.5 -18.5q-218 0 -331 110.5t-126 324.5h-143z" />
<glyph unicode="&#x2122;" d="M145 1171l29 136h401l-28 -136h-119l-78 -393h-162l78 393h-121zM483 778l183 529h180l12 -238l2 -78l27 74l110 242h199l-27 -529h-163l16 240l8 86l-33 -80l-108 -246h-148l-12 252v74l-18 -68l-80 -258h-148z" />
<glyph unicode="&#x25fc;" horiz-adv-x="1014" d="M0 0v1015h1015v-1015h-1015z" />
<glyph unicode="&#xfb01;" d="M-51 -397q23 44 44 94t39 102t32.5 103t23.5 98l143 723h-157l39 190h157l23 117q22 110 69 186.5t117.5 124.5t163.5 69.5t207 21.5q34 0 71.5 -2.5t73.5 -7.5t68.5 -11.5t58.5 -13.5l-39 -197q-24 9 -54.5 16t-64 12t-68 8t-65.5 3q-57 0 -106 -12t-88 -38.5 t-66.5 -69.5t-40.5 -105l-20 -101h549l-182 -913h-240l143 723h-309l-143 -723q-22 -106 -55 -205t-83 -192h-241zM0 1016z" />
<glyph unicode="&#xfb02;" d="M-51 -397q23 44 44 94t39 102t32.5 103t23.5 98l143 723h-157l39 190h157l23 117q22 110 68.5 186.5t114.5 124.5t156 69.5t195 21.5q81 0 167 -8.5t161 -26.5l-278 -1397h-240l246 1233q-13 3 -36 4.5t-44 1.5q-119 0 -184.5 -57.5t-88.5 -171.5l-20 -97h182l-39 -190 h-182l-143 -723q-22 -106 -55 -205t-83 -192h-241zM0 1016z" />
</font>
</defs>
</svg>
